<?xml version="1.0" encoding="UTF-8" standalone="no"?>
<!-- Created with Inkscape (http://www.inkscape.org/) -->

<svg
   width="64.000008mm"
   height="64mm"
   viewBox="0 0 64.000008 64"
   version="1.1"
   id="svg1992"
   inkscape:version="1.1 (c68e22c387, 2021-05-23)"
   sodipodi:docname="logrhythm-kafkabeat.svg"
   xmlns:inkscape="http://www.inkscape.org/namespaces/inkscape"
   xmlns:sodipodi="http://sodipodi.sourceforge.net/DTD/sodipodi-0.dtd"
   xmlns="http://www.w3.org/2000/svg"
   xmlns:svg="http://www.w3.org/2000/svg">
  <sodipodi:namedview
     id="namedview1994"
     pagecolor="#505050"
     bordercolor="#eeeeee"
     borderopacity="1"
     inkscape:pageshadow="0"
     inkscape:pageopacity="0"
     inkscape:pagecheckerboard="0"
     inkscape:document-units="mm"
     showgrid="false"
     fit-margin-top="0"
     fit-margin-left="0"
     fit-margin-right="0"
     fit-margin-bottom="0"
     inkscape:zoom="3.1108586"
     inkscape:cx="196.56953"
     inkscape:cy="203.32007"
     inkscape:window-width="3840"
     inkscape:window-height="2097"
     inkscape:window-x="1912"
     inkscape:window-y="1072"
     inkscape:window-maximized="1"
     inkscape:current-layer="layer1" />
  <defs
     id="defs1989" />
  <g
     inkscape:label="Layer 1"
     inkscape:groupmode="layer"
     id="layer1">
    <rect
       style="fill:#ffffff;fill-opacity:1;stroke:none;stroke-width:1.93787;stroke-miterlimit:4;stroke-dasharray:none;stroke-opacity:1"
       id="rect2099"
       width="30.06213"
       height="30.062128"
       x="0.9689346"
       y="0.9689346"
       ry="3.3787844" />
    <rect
       style="fill:#ffffff;fill-opacity:1;stroke:none;stroke-width:2;stroke-miterlimit:4;stroke-dasharray:none;stroke-opacity:1"
       id="rect1030"
       width="45.328484"
       height="45.32848"
       x="17.671524"
       y="17.67152"
       ry="5.0946212" />
    <g
       id="g4864"
       transform="matrix(1.5052646,0,0,-1.5051067,13.024714,24.690805)">
      <path
         d="M 0,0 C 0,1.091 0.885,1.975 1.977,1.975 3.068,1.975 3.954,1.091 3.955,0 3.955,-1.095 3.068,-1.978 1.977,-1.978 0.885,-1.978 0,-1.093 0,0"
         style="fill:#007dc3;fill-opacity:1;fill-rule:nonzero;stroke:none"
         id="path4866"
         inkscape:connector-curvature="0" />
    </g>
    <path
       d="m 47.573002,42.531266 c -1.586942,0 -3.009668,0.703076 -3.98393,1.809996 l -2.496504,-1.767348 c 0.265016,-0.729644 0.417176,-1.513117 0.417176,-2.333161 0,-0.805826 -0.146871,-1.576159 -0.40316,-2.295022 l 2.490918,-1.748619 c 0.974168,1.101331 2.393164,1.800583 3.9755,1.800583 2.929072,0 5.312444,-2.382968 5.312444,-5.312434 0,-2.929467 -2.383372,-5.312434 -5.312444,-5.312434 -2.929077,0 -5.312431,2.382967 -5.312431,5.312434 0,0.524341 0.07922,1.029955 0.221383,1.508804 l -2.492582,1.749502 c -1.041233,-1.291734 -2.540429,-2.193643 -4.248556,-2.468952 v -3.004079 c 2.4064,-0.505417 4.219533,-2.64347 4.219533,-5.198213 0,-2.929466 -2.383359,-5.312433 -5.312434,-5.312433 -2.929075,0 -5.312435,2.382967 -5.312435,5.312433 0,2.520525 1.766172,4.632205 4.124431,5.173702 v 3.0431 c -3.218403,0.564932 -5.673826,3.373707 -5.673826,6.751628 0,3.394394 2.479737,6.213464 5.721378,6.759178 v 3.213305 c -2.382379,0.523655 -4.171983,2.64828 -4.171983,5.185959 0,2.929466 2.38336,5.312432 5.312435,5.312432 2.929075,0 5.312434,-2.382966 5.312434,-5.312432 0,-2.537679 -1.789602,-4.662304 -4.171982,-5.185959 v -3.213404 a 6.8596725,6.8596725 0 0 0 4.176692,-2.429145 l 2.513171,1.778818 c -0.139521,0.474535 -0.217659,0.975149 -0.217659,1.494196 0,2.929466 2.383354,5.312432 5.312431,5.312432 2.929072,0 5.312444,-2.382966 5.312444,-5.312432 0,-2.929467 -2.383372,-5.312435 -5.312444,-5.312435 z m 0,-12.421729 c 1.420373,0 2.575627,1.155746 2.575627,2.575724 0,1.419976 -1.155254,2.575625 -2.575627,2.575625 -1.42037,0 -2.57562,-1.155649 -2.57562,-2.575625 0,-1.419978 1.15525,-2.575724 2.57562,-2.575724 z m -15.50081,-4.837214 c 0,-1.419975 1.155355,-2.575624 2.575723,-2.575624 1.420369,0 2.575624,1.155649 2.575624,2.575624 0,1.419978 -1.155255,2.575627 -2.575624,2.575627 -1.420368,0 -2.575723,-1.155649 -2.575723,-2.575627 z m 5.151347,30.126872 c 0,1.419977 -1.155255,2.575623 -2.575624,2.575623 -1.420368,0 -2.575723,-1.155646 -2.575723,-2.575623 0,-1.419975 1.155355,-2.575627 2.575723,-2.575627 1.420369,0 2.575624,1.155652 2.575624,2.575627 z M 34.647718,43.832902 c -1.980985,0 -3.59254,-1.611259 -3.59254,-3.592149 0,-1.980985 1.611555,-3.59254 3.59254,-3.59254 1.980888,0 3.592444,1.611555 3.592444,3.59254 0,1.98089 -1.611556,3.592149 -3.592444,3.592149 z m 12.925284,6.586522 c -1.42037,0 -2.57562,-1.155748 -2.57562,-2.575723 0,-1.419977 1.15525,-2.575626 2.57562,-2.575626 1.420373,0 2.575627,1.155649 2.575627,2.575626 0,1.419975 -1.155254,2.575723 -2.575627,2.575723 z"
       style="fill:#231f20;stroke-width:0.0980441"
       id="path2428" />
    <g
       id="g4868"
       transform="matrix(1.5052646,0,0,-1.5051067,21.719104,15.999077)">
      <path
         d="M 0,0 C 0,1.09 0.885,1.977 1.977,1.977 3.069,1.977 3.954,1.09 3.954,0 3.955,-1.094 3.069,-1.98 1.976,-1.977 0.885,-1.98 0,-1.094 0,0"
         style="fill:#007dc3;fill-opacity:1;fill-rule:nonzero;stroke:none"
         id="path4870"
         inkscape:connector-curvature="0" />
    </g>
    <g
       id="g4872"
       transform="matrix(1.5052646,0,0,-1.5051067,4.3290876,24.690805)">
      <path
         d="M 0,0 C 0,1.091 0.886,1.975 1.979,1.975 3.07,1.975 3.956,1.091 3.956,0 3.956,-1.095 3.07,-1.98 1.979,-1.98 0.886,-1.98 0,-1.093 0,0"
         style="fill:#007dc3;fill-opacity:1;fill-rule:nonzero;stroke:none"
         id="path4874"
         inkscape:connector-curvature="0" />
    </g>
    <g
       id="g4876"
       transform="matrix(1.5052646,0,0,-1.5051067,13.023519,15.999077)">
      <path
         d="M 0,0 C 0,1.092 0.886,1.977 1.977,1.977 3.069,1.977 3.954,1.09 3.956,0 3.956,-1.094 3.069,-1.98 1.977,-1.98 0.886,-1.98 0.001,-1.094 0,0"
         style="fill:#002d56;fill-opacity:1;fill-rule:nonzero;stroke:none"
         id="path4878"
         inkscape:connector-curvature="0" />
    </g>
    <g
       id="g4880"
       transform="matrix(1.5052646,0,0,-1.5051067,21.719104,7.3076901)">
      <path
         d="M 0,0 C -0.001,1.092 0.884,1.979 1.976,1.979 3.068,1.978 3.954,1.092 3.954,-0.001 3.954,-1.092 3.068,-1.977 1.976,-1.977 0.884,-1.977 0,-1.092 0,0"
         style="fill:#007dc3;fill-opacity:1;fill-rule:nonzero;stroke:none"
         id="path4882"
         inkscape:connector-curvature="0" />
    </g>
    <g
       id="g4884"
       transform="matrix(1.5052646,0,0,-1.5051067,4.3307517,15.999077)">
      <path
         d="M 0,0 C 0,1.09 0.886,1.977 1.977,1.977 3.069,1.977 3.955,1.09 3.955,-0.001 3.955,-1.094 3.07,-1.98 1.977,-1.98 0.885,-1.98 0,-1.094 0,0"
         style="fill:#007dc3;fill-opacity:1;fill-rule:nonzero;stroke:none"
         id="path4886"
         inkscape:connector-curvature="0" />
    </g>
    <g
       id="g4888"
       transform="matrix(1.5052646,0,0,-1.5051067,13.024714,7.3076901)">
      <path
         d="m 0,0 c 0,1.091 0.885,1.978 1.977,1.978 1.093,0 1.978,-0.886 1.978,-1.979 0,-1.092 -0.887,-1.976 -1.978,-1.976 C 0.885,-1.977 0,-1.092 0,0"
         style="fill:#007dc3;fill-opacity:1;fill-rule:nonzero;stroke:none"
         id="path4890"
         inkscape:connector-curvature="0" />
    </g>
    <path
       id="rect2638"
       style="fill:none;fill-opacity:1;stroke:#cbcbcb;stroke-width:1.99904;stroke-miterlimit:4;stroke-dasharray:none;stroke-opacity:1"
       d="m 4.3764963,0.99951836 c -1.8709451,0 -3.37697794,1.50603274 -3.37697794,3.37697794 V 27.669793 c 0,1.870943 1.50603284,3.377493 3.37697794,3.377493 H 17.693813 v 26.861385 c 0,2.82106 2.271265,5.091811 5.092326,5.091811 h 35.122532 c 2.82106,0 5.091811,-2.270751 5.091811,-5.091811 V 22.786139 c 0,-2.821061 -2.270751,-5.092326 -5.091811,-5.092326 H 31.047286 V 4.3764963 c 0,-1.8709452 -1.50655,-3.37697794 -3.377493,-3.37697794 z" />
    <path
       style="fill:#cbcbcb;stroke:#cbcbcb;stroke-width:2;stroke-linecap:butt;stroke-linejoin:miter;stroke-opacity:1;stroke-miterlimit:4;stroke-dasharray:none;fill-opacity:1"
       d="M 17.693813,31.047285 31.047285,17.693813"
       id="path2730" />
  </g>
</svg>
