<?xml version="1.0" encoding="UTF-8" standalone="no"?>
<!-- Created with Inkscape (http://www.inkscape.org/) -->

<svg
   width="64.000008mm"
   height="64mm"
   viewBox="0 0 64.000008 64"
   version="1.1"
   id="svg1992"
   inkscape:version="1.1 (c68e22c387, 2021-05-23)"
   sodipodi:docname="logrhythm-qualysfimbeat.svg"
   xmlns:inkscape="http://www.inkscape.org/namespaces/inkscape"
   xmlns:sodipodi="http://sodipodi.sourceforge.net/DTD/sodipodi-0.dtd"
   xmlns:xlink="http://www.w3.org/1999/xlink"
   xmlns="http://www.w3.org/2000/svg"
   xmlns:svg="http://www.w3.org/2000/svg">
  <sodipodi:namedview
     id="namedview1994"
     pagecolor="#505050"
     bordercolor="#eeeeee"
     borderopacity="1"
     inkscape:pageshadow="0"
     inkscape:pageopacity="0"
     inkscape:pagecheckerboard="0"
     inkscape:document-units="mm"
     showgrid="false"
     fit-margin-top="0"
     fit-margin-left="0"
     fit-margin-right="0"
     fit-margin-bottom="0"
     inkscape:zoom="3.1108586"
     inkscape:cx="258.93173"
     inkscape:cy="201.06989"
     inkscape:window-width="3840"
     inkscape:window-height="2097"
     inkscape:window-x="1912"
     inkscape:window-y="1072"
     inkscape:window-maximized="1"
     inkscape:current-layer="layer1" />
  <defs
     id="defs1989">
    <path
       id="C"
       d="M30.345 28c0 .8-.552 1.333-1.379 1.333H17.931c-.828 0-1.379-.533-1.379-1.333v-8c0-.8.552-1.333 1.379-1.333H28.69c1.103 0 1.655.533 1.655 1.333v8z" />
    <clipPath
       clipPathUnits="userSpaceOnUse"
       id="clipPath33844">
      <path
         d="M 0,0 H 1224 V 792 H 0 Z"
         id="path33842" />
    </clipPath>
    <clipPath
       clipPathUnits="userSpaceOnUse"
       id="clipPath33864">
      <path
         d="M 0,0 H 1224 V 792 H 0 Z"
         id="path33862" />
    </clipPath>
    <clipPath
       clipPathUnits="userSpaceOnUse"
       id="clipPath33872">
      <path
         d="m 905.447,739.356 h 50.239 v -22.564 h -50.239 z"
         id="path33870" />
    </clipPath>
    <clipPath
       clipPathUnits="userSpaceOnUse"
       id="clipPath33892">
      <path
         d="m 888.711,755.702 h 33.218 v -38.883 h -33.218 z"
         id="path33890" />
    </clipPath>
    <clipPath
       clipPathUnits="userSpaceOnUse"
       id="clipPath33912">
      <path
         d="m 837.85,739.356 h 50.266 V 716.792 H 837.85 Z"
         id="path33910" />
    </clipPath>
    <clipPath
       clipPathUnits="userSpaceOnUse"
       id="clipPath34208">
      <path
         d="M 0,0 H 1224 V 792 H 0 Z"
         id="path34206" />
    </clipPath>
    <clipPath
       clipPathUnits="userSpaceOnUse"
       id="clipPath34316">
      <path
         d="M 0,0 H 1224 V 792 H 0 Z"
         id="path34314" />
    </clipPath>
    <clipPath
       clipPathUnits="userSpaceOnUse"
       id="clipPath34338">
      <path
         d="M 0,0 H 1224 V 792 H 0 Z"
         id="path34336" />
    </clipPath>
    <clipPath
       clipPathUnits="userSpaceOnUse"
       id="clipPath34380">
      <path
         d="M 0,0 H 1224 V 792 H 0 Z"
         id="path34378" />
    </clipPath>
    <clipPath
       clipPathUnits="userSpaceOnUse"
       id="clipPath34442">
      <path
         d="M 0,0 H 1224 V 792 H 0 Z"
         id="path34440" />
    </clipPath>
    <clipPath
       clipPathUnits="userSpaceOnUse"
       id="clipPath34476">
      <path
         d="M 0,0 H 1224 V 792 H 0 Z"
         id="path34474" />
    </clipPath>
    <clipPath
       clipPathUnits="userSpaceOnUse"
       id="clipPath34536">
      <path
         d="M 0,0 H 1224 V 792 H 0 Z"
         id="path34534" />
    </clipPath>
    <clipPath
       clipPathUnits="userSpaceOnUse"
       id="clipPath34584">
      <path
         d="M 0,0 H 1224 V 792 H 0 Z"
         id="path34582" />
    </clipPath>
    <clipPath
       clipPathUnits="userSpaceOnUse"
       id="clipPath34620">
      <path
         d="M 0,0 H 1224 V 792 H 0 Z"
         id="path34618" />
    </clipPath>
    <clipPath
       clipPathUnits="userSpaceOnUse"
       id="clipPath34656">
      <path
         d="M 0,0 H 1224 V 792 H 0 Z"
         id="path34654" />
    </clipPath>
    <polygon
       id="path-1"
       points="21.884 22.3389 21.884 0.6959 0.4676 0.6959 0.4676 22.3389 21.884 22.3389" />
  </defs>
  <g
     inkscape:label="Layer 1"
     inkscape:groupmode="layer"
     id="layer1">
    <rect
       style="fill:#ffffff;fill-opacity:1;stroke:none;stroke-width:1.93787;stroke-miterlimit:4;stroke-dasharray:none;stroke-opacity:1"
       id="rect2099"
       width="30.06213"
       height="30.062128"
       x="0.9689346"
       y="0.9689346"
       ry="3.3787844" />
    <rect
       style="fill:#ffffff;fill-opacity:1;stroke:none;stroke-width:2;stroke-miterlimit:4;stroke-dasharray:none;stroke-opacity:1"
       id="rect1030"
       width="45.328484"
       height="45.32848"
       x="17.671524"
       y="17.67152"
       ry="5.0946212" />
    <g
       id="g4864"
       transform="matrix(1.5052646,0,0,-1.5051067,13.024714,24.690805)">
      <path
         d="M 0,0 C 0,1.091 0.885,1.975 1.977,1.975 3.068,1.975 3.954,1.091 3.955,0 3.955,-1.095 3.068,-1.978 1.977,-1.978 0.885,-1.978 0,-1.093 0,0"
         style="fill:#007dc3;fill-opacity:1;fill-rule:nonzero;stroke:none"
         id="path4866"
         inkscape:connector-curvature="0" />
    </g>
    <g
       id="g4868"
       transform="matrix(1.5052646,0,0,-1.5051067,21.719104,15.999077)">
      <path
         d="M 0,0 C 0,1.09 0.885,1.977 1.977,1.977 3.069,1.977 3.954,1.09 3.954,0 3.955,-1.094 3.069,-1.98 1.976,-1.977 0.885,-1.98 0,-1.094 0,0"
         style="fill:#007dc3;fill-opacity:1;fill-rule:nonzero;stroke:none"
         id="path4870"
         inkscape:connector-curvature="0" />
    </g>
    <g
       id="g4872"
       transform="matrix(1.5052646,0,0,-1.5051067,4.3290876,24.690805)">
      <path
         d="M 0,0 C 0,1.091 0.886,1.975 1.979,1.975 3.07,1.975 3.956,1.091 3.956,0 3.956,-1.095 3.07,-1.98 1.979,-1.98 0.886,-1.98 0,-1.093 0,0"
         style="fill:#007dc3;fill-opacity:1;fill-rule:nonzero;stroke:none"
         id="path4874"
         inkscape:connector-curvature="0" />
    </g>
    <g
       id="g4876"
       transform="matrix(1.5052646,0,0,-1.5051067,13.023519,15.999077)">
      <path
         d="M 0,0 C 0,1.092 0.886,1.977 1.977,1.977 3.069,1.977 3.954,1.09 3.956,0 3.956,-1.094 3.069,-1.98 1.977,-1.98 0.886,-1.98 0.001,-1.094 0,0"
         style="fill:#002d56;fill-opacity:1;fill-rule:nonzero;stroke:none"
         id="path4878"
         inkscape:connector-curvature="0" />
    </g>
    <g
       id="g4880"
       transform="matrix(1.5052646,0,0,-1.5051067,21.719104,7.3076901)">
      <path
         d="M 0,0 C -0.001,1.092 0.884,1.979 1.976,1.979 3.068,1.978 3.954,1.092 3.954,-0.001 3.954,-1.092 3.068,-1.977 1.976,-1.977 0.884,-1.977 0,-1.092 0,0"
         style="fill:#007dc3;fill-opacity:1;fill-rule:nonzero;stroke:none"
         id="path4882"
         inkscape:connector-curvature="0" />
    </g>
    <g
       id="g4884"
       transform="matrix(1.5052646,0,0,-1.5051067,4.3307517,15.999077)">
      <path
         d="M 0,0 C 0,1.09 0.886,1.977 1.977,1.977 3.069,1.977 3.955,1.09 3.955,-0.001 3.955,-1.094 3.07,-1.98 1.977,-1.98 0.885,-1.98 0,-1.094 0,0"
         style="fill:#007dc3;fill-opacity:1;fill-rule:nonzero;stroke:none"
         id="path4886"
         inkscape:connector-curvature="0" />
    </g>
    <g
       id="g4888"
       transform="matrix(1.5052646,0,0,-1.5051067,13.024714,7.3076901)">
      <path
         d="m 0,0 c 0,1.091 0.885,1.978 1.977,1.978 1.093,0 1.978,-0.886 1.978,-1.979 0,-1.092 -0.887,-1.976 -1.978,-1.976 C 0.885,-1.977 0,-1.092 0,0"
         style="fill:#007dc3;fill-opacity:1;fill-rule:nonzero;stroke:none"
         id="path4890"
         inkscape:connector-curvature="0" />
    </g>
    <path
       id="rect2638"
       style="fill:none;fill-opacity:1;stroke:#cbcbcb;stroke-width:1.99904;stroke-miterlimit:4;stroke-dasharray:none;stroke-opacity:1"
       d="m 4.3764963,0.99951836 c -1.8709451,0 -3.37697794,1.50603274 -3.37697794,3.37697794 V 27.669793 c 0,1.870943 1.50603284,3.377493 3.37697794,3.377493 H 17.693813 v 26.861385 c 0,2.82106 2.271265,5.091811 5.092326,5.091811 h 35.122532 c 2.82106,0 5.091811,-2.270751 5.091811,-5.091811 V 22.786139 c 0,-2.821061 -2.270751,-5.092326 -5.091811,-5.092326 H 31.047286 V 4.3764963 c 0,-1.8709452 -1.50655,-3.37697794 -3.377493,-3.37697794 z" />
    <symbol
       id="A"
       overflow="visible"
       transform="matrix(0.41767611,0,0,0.41767611,23.419883,23.419877)"
       style="fill:#ffffff;fill-rule:evenodd;stroke:#000000;stroke-linecap:round;stroke-linejoin:round">
      <g
         fill="#b8d432"
         stroke="none"
         id="g8655">
        <path
           d="m 49.655,36 c 0,0.8 -0.552,1.333 -1.379,1.333 H 37.517 C 36.689,37.333 36.138,36.8 36.138,36 v -7.733 c 0,-0.8 0.552,-1.333 1.379,-1.333 h 10.759 c 0.828,0 1.379,0.533 1.379,1.333 z m 19.31,8 c 0,0.8 -0.552,1.333 -1.379,1.333 H 56.827 C 55.999,45.333 55.448,44.8 55.448,44 v -7.733 c 0,-0.8 0.552,-1.333 1.379,-1.333 h 10.759 c 0.828,0 1.379,0.533 1.379,1.333 z m -19.31,8 c 0,0.8 -0.552,1.333 -1.379,1.333 H 37.517 C 36.689,53.333 36.138,52.8 36.138,52 v -7.733 c 0,-0.8 0.552,-1.333 1.379,-1.333 h 10.759 c 0.828,0 1.379,0.533 1.379,1.333 z"
           id="path8651" />
        <use
           xlink:href="#C"
           id="use8653"
           x="0"
           y="0"
           width="100%"
           height="100%" />
      </g>
      <path
         d="M 78.621,0 V 0 H 70.345 9.379 4.138 1.379 C 0.552,0 0,0.533 0,1.333 v 16 c 0,0.8 0.552,1.333 1.379,1.333 h 8.276 c 0.828,0 1.379,-0.533 1.379,-1.333 v -6.667 h 57.931 v 6.667 c 0,0.8 0.552,1.333 1.655,1.333 h 8 c 0.828,0 1.379,-0.533 1.379,-1.333 v -8 -8 C 80,0.533 79.448,0 78.621,0 Z m 0,61.6 h -8 c -0.828,0 -1.379,0.533 -1.379,1.333 v 6.4 H 11.035 v -6.667 c 0,-0.8 -0.552,-1.333 -1.655,-1.333 h -8 c -0.828,0 -1.379,0.533 -1.379,1.6 V 78.666 C 0,79.466 0.552,80 1.379,80 h 2.759 5.517 60.966 7.724 0.276 C 79.449,80 80,79.467 80,78.667 V 62.933 C 80,62.133 79.448,61.6 78.621,61.6 Z"
         stroke="none"
         fill="#0072c6"
         id="path8657" />
      <g
         fill="#b8d432"
         id="g8663">
        <use
           xlink:href="#C"
           y="16"
           stroke="none"
           id="use8659"
           x="0"
           width="100%"
           height="100%" />
        <use
           xlink:href="#C"
           y="32"
           stroke="none"
           id="use8661"
           x="0"
           width="100%"
           height="100%" />
      </g>
    </symbol>
    <path
       style="fill:#cbcbcb;stroke:#cbcbcb;stroke-width:2;stroke-linecap:butt;stroke-linejoin:miter;stroke-opacity:1;stroke-miterlimit:4;stroke-dasharray:none;fill-opacity:1"
       d="M 17.693813,31.047285 31.047285,17.693813"
       id="path2730" />
    <symbol
       id="A-1"
       overflow="visible"
       transform="matrix(0.26458333,0,0,0.26458333,30.506123,29.620135)"
       style="fill:#ffffff;fill-rule:evenodd;stroke:#000000;stroke-linecap:round;stroke-linejoin:round">
      <g
         stroke="none"
         id="g46539">
        <circle
           cx="11.537"
           cy="11.537"
           fill="#aecbfa"
           r="11.537"
           transform="rotate(-120.00001,32.587855,18.998472)"
           id="circle46519" />
        <g
           fill="#669df6"
           id="g46525">
          <circle
             cx="7.1900001"
             cy="7.1900001"
             r="7.1900001"
             transform="rotate(-120.00001,40.952989,-0.51006138)"
             id="circle46521" />
          <circle
             cx="7.1900001"
             cy="7.1900001"
             r="7.1900001"
             transform="rotate(120.00001,2.8880404,16.499675)"
             id="circle46523" />
        </g>
        <circle
           cx="36.651001"
           cy="8.8000002"
           fill="#aecbfa"
           r="8.8000002"
           id="circle46527" />
        <circle
           cx="36.651001"
           cy="73.120003"
           fill="#669df6"
           r="6.8800001"
           id="circle46529" />
        <circle
           cx="9.1960001"
           cy="9.1960001"
           fill="#aecbfa"
           r="9.1960001"
           transform="rotate(-120.00001,22.809383,33.232345)"
           id="circle46531" />
        <path
           fill="#4285f4"
           d="m 23.029,45.13 -8.724,5.037 a 8.82,8.82 0 0 1 2.116,2.474 8.82,8.82 0 0 1 1.084,3.069 l 8.724,-5.037 c -0.717,-0.773 -1.36,-1.639 -1.91,-2.592 -0.55,-0.953 -0.979,-1.943 -1.29,-2.95 z"
           id="path46533" />
        <circle
           cx="9.1960001"
           cy="9.1960001"
           fill="#aecbfa"
           r="9.1960001"
           transform="rotate(120.00001,23.038046,49.083686)"
           id="circle46535" />
        <path
           d="m 47.076,50.673 c 1.497,-1.6 2.58,-3.502 3.204,-5.54 l 8.718,5.033 c -0.829,0.666 -1.551,1.495 -2.116,2.474 a 8.82,8.82 0 0 0 -1.084,3.069 z M 39.851,27.071 a 14.17,14.17 0 0 0 -6.4,0.005 V 17.004 a 8.82,8.82 0 0 0 6.4,0 z"
           fill="#4285f4"
           id="path46537" />
      </g>
    </symbol>
    <g
       id="g48052"
       transform="matrix(0.51578106,0,0,0.51578106,30.780033,-17.02162)">
      <path
         d="m 18.522016,72.428754 c 21.208206,0 31.871972,11.34745 31.871972,11.34745 0,0 1.2192,8.399462 0.441061,25.311896 -1.175544,25.54816 -32.305625,40.89135 -32.308271,40.89294 -0.0026,0.001 -31.132462,-15.34478 -32.30827,-40.89294 -0.778404,-16.912434 0.44106,-25.311896 0.44106,-25.311896 0,0 10.6539774,-11.34745 31.862448,-11.34745"
         id="Fill-1"
         fill="#ed2e26"
         style="fill-rule:evenodd;stroke:none;stroke-width:0.264583" />
      <path
         d="m 2.6074874,106.0121 c 0,-9.0334 7.1413686,-16.382466 15.9191856,-16.382466 8.785224,0 15.932414,7.147189 15.932414,15.932146 0,7.01358 -6.028796,12.78361 -10.675408,15.7488 1.802606,1.02843 5.780881,2.10846 9.589823,2.45745 5.56207,-4.30451 8.954293,-10.95852 8.954293,-18.20625 0,-13.123859 -10.676995,-23.800855 -23.801122,-23.800855 -13.1238627,0 -23.8008584,10.676996 -23.8008584,23.800855 0,7.92639 3.3004124,14.96775 9.5440498,20.36366 5.8375016,5.04428 14.3763996,8.41137 24.0985146,10.00548 2.106348,-1.1639 5.70865,-4.60031 7.059612,-6.61193 -8.119798,-1.04432 -15.804356,-3.02446 -20.955793,-5.72691 C 6.5995207,119.46246 2.6074874,113.54744 2.6074874,106.0121"
         id="Fill-19"
         fill="#ffffff"
         style="fill-rule:evenodd;stroke:none;stroke-width:0.264583" />
    </g>
  </g>
  <style
     type="text/css"
     id="style46080">
	.st0{fill:#00297A;}
</style>
</svg>
