<?xml version="1.0" encoding="UTF-8" standalone="no"?>

<svg version="1.1" x="0px" y="0px" viewBox="0 2 32.329678 37.526066" enable-background="new 0 2 48 48"
  xml:space="preserve" id="svg36" sodipodi:docname="host-linux.svg" inkscape:version="1.1.1 (3bf5ae0d25, 2021-09-20)"
  width="32.329678" height="37.526066" xmlns:inkscape="http://www.inkscape.org/namespaces/inkscape"
  xmlns:sodipodi="http://sodipodi.sourceforge.net/DTD/sodipodi-0.dtd" xmlns="http://www.w3.org/2000/svg"
  xmlns:svg="http://www.w3.org/2000/svg">
  <defs id="defs40">

  </defs>
  <sodipodi:namedview id="namedview38" pagecolor="#ffffff" bordercolor="#666666" borderopacity="1.0"
    inkscape:pageshadow="2" inkscape:pageopacity="0.0" inkscape:pagecheckerboard="0" showgrid="false"
    inkscape:zoom="9.09375" inkscape:cx="26.446735" inkscape:cy="23.477663" inkscape:window-width="1920"
    inkscape:window-height="1017" inkscape:window-x="6832" inkscape:window-y="309" inkscape:window-maximized="1"
    inkscape:current-layer="svg36" fit-margin-top="0" fit-margin-left="0" fit-margin-right="0" fit-margin-bottom="0" />
  <path id="polygon2" sodipodi:type="inkscape:offset" inkscape:radius="0.60730511"
    inkscape:original="M 24.767578 5.9160156 C 23.880103 5.8956786 22.836719 6.0867187 21.699219 6.6992188 C 18.999219 8.0992187 19.300781 11.099219 19.800781 17.199219 C 19.800781 17.599219 19.7 18.1 19.5 18.5 C 19.1 19.4 18.400781 20.200391 17.800781 20.900391 C 17.100781 21.900391 16.400391 22.9 15.900391 24 C 14.700391 26.3 13.600391 29.200781 13.900391 30.300781 C 13.914081 30.298081 13.932938 30.304976 13.955078 30.316406 C 13.763849 30.440681 13.593507 30.607665 13.400391 30.800781 C 13.000391 31.200781 12.600391 32.099609 11.900391 32.599609 C 11.300391 33.099609 9.5992186 32.999609 9.1992188 33.599609 C 8.7992187 34.199609 9.5996094 35.099609 9.5996094 36.599609 C 9.5996064 37.199604 9.1 37.6 9 38 C 8.9 38.5 8.8 38.799219 9 39.199219 C 9.4 39.799219 9.9007821 39.999219 13.300781 40.699219 C 15.100781 41.099219 16.800391 42.099219 17.900391 42.199219 C 18.931012 42.292909 20.664415 42.211749 20.878906 39.980469 C 21.438901 39.904139 22.929942 39.900391 24.300781 39.900391 C 26.290357 39.805651 27.476557 39.716416 29.041016 40.046875 C 29.134416 40.777454 29.384653 41.264076 29.699219 41.5 C 29.999219 41.8 30.499609 42 31.599609 42 C 32.699609 42 33.399609 41.600391 34.099609 40.900391 C 34.599609 40.400391 35.000391 40.199219 36.400391 39.199219 C 37.500391 38.499219 39.2 37.600781 39.5 37.300781 C 39.7 37.100781 40 37.000391 40 36.400391 C 40 35.900391 39.600781 35.699609 39.300781 35.599609 C 38.900781 35.399609 38.199609 35.099219 37.599609 34.199219 C 37.299609 33.699219 37.400391 32.299219 36.900391 31.699219 C 36.789711 31.551646 36.664825 31.487169 36.546875 31.462891 C 36.668078 31.112616 36.900391 30.469871 36.900391 30.199219 C 37.600391 27.899219 35.900781 24.200391 34.300781 21.900391 C 32.700781 19.600391 31.399219 18.200781 30.699219 15.300781 C 29.999219 12.400781 30.900781 13.199219 30.300781 10.699219 C 30.000781 9.3992203 29.5 8.5007814 29 7.8007812 C 28.4 7.1007814 27.700781 6.6996094 27.300781 6.5996094 C 26.794531 6.3183594 25.908618 5.9421631 24.767578 5.9160156 z "
    fill="#ffffff"
    d="m 24.78125,5.3085938 c -0.983207,-0.022531 -2.136875,0.1940906 -3.361328,0.8515624 -8.48e-4,4.396e-4 -0.0011,0.00151 -0.002,0.00195 -0.002,0.00107 -0.0039,8.812e-4 -0.0059,0.00195 -1.510146,0.7865333 -2.252562,2.1565468 -2.464843,3.9511715 -0.211525,1.788235 -0.004,4.065983 0.24414,7.089844 -0.001,0.297886 -0.0894,0.733491 -0.234375,1.023438 a 0.60736584,0.60736584 0 0 0 -0.01172,0.02539 c -0.347594,0.782089 -1.002611,1.548619 -1.605468,2.251953 a 0.60736584,0.60736584 0 0 0 -0.03711,0.04687 c -0.698581,0.997974 -1.420389,2.023853 -1.951172,3.189454 -9.98e-4,0.0022 -0.0029,0.0037 -0.0039,0.0059 -0.607841,1.168212 -1.18784,2.476554 -1.585937,3.658203 -0.346624,1.028864 -0.53899,1.893618 -0.451172,2.671875 -0.110918,0.09876 -0.238277,0.191402 -0.339844,0.292969 -0.289255,0.289255 -0.480839,0.623028 -0.705078,0.941406 -0.224239,0.318378 -0.464288,0.61121 -0.71875,0.792969 a 0.60736584,0.60736584 0 0 0 -0.03516,0.02734 c -0.06785,0.05654 -0.595725,0.218994 -1.158203,0.333985 -0.281239,0.0575 -0.5735182,0.120168 -0.8574222,0.224609 -0.2839041,0.104442 -0.5882083,0.250477 -0.8027344,0.572266 -0.1907218,0.286082 -0.2322838,0.627935 -0.2050782,0.90625 0.027206,0.278315 0.1048773,0.522165 0.1816407,0.771484 0.1535268,0.498638 0.3222656,1.016221 0.3222656,1.658203 -7e-7,0.131434 -0.055378,0.264935 -0.1738281,0.458985 -0.1184498,0.19405 -0.3120504,0.410311 -0.4082032,0.794922 a 0.60736584,0.60736584 0 0 0 -0.00586,0.02734 C 8.3573627,38.11553 8.2990041,38.32967 8.28125,38.595703 c -0.017754,0.266034 0.030586,0.58461 0.1757812,0.875 a 0.60736584,0.60736584 0 0 0 0.037109,0.06445 c 0.247609,0.371414 0.659971,0.712658 1.328125,0.949219 0.6681544,0.236561 1.6500484,0.459431 3.3554684,0.810547 0.832394,0.185881 1.674819,0.520041 2.460938,0.832031 0.788548,0.312955 1.503343,0.613763 2.207031,0.677735 0.561628,0.05105 1.358371,0.07351 2.117188,-0.296876 0.629707,-0.307363 1.105666,-1.004734 1.34375,-1.933593 0.573509,-0.0441 1.766189,-0.06641 2.99414,-0.06641 a 0.60736584,0.60736584 0 0 0 0.0293,0 c 1.831058,-0.08719 2.92773,-0.133621 4.238281,0.0957 0.139644,0.565802 0.357558,1.045556 0.736329,1.345703 0.445073,0.42658 1.144348,0.658203 2.294921,0.658203 1.247082,0 2.168261,-0.515917 2.929688,-1.277344 0.440851,-0.440851 0.817368,-0.631414 2.214844,-1.628906 0.0064,-0.0045 0.0034,-0.0032 0.0098,-0.0078 0.526622,-0.333782 1.208442,-0.722019 1.802735,-1.068359 0.301752,-0.175855 0.580179,-0.339702 0.810547,-0.484375 0.230367,-0.144673 0.391931,-0.239588 0.5625,-0.410156 0.02857,-0.02857 0.189036,-0.126257 0.36914,-0.351563 0.180104,-0.225305 0.308594,-0.577298 0.308594,-0.978515 0,-0.411632 -0.198073,-0.78347 -0.435547,-1 -0.237474,-0.216531 -0.490678,-0.31395 -0.679687,-0.376953 l 0.08008,0.0332 c -0.432544,-0.216272 -0.944079,-0.425947 -1.453125,-1.179688 -0.0079,-0.0188 -0.116479,-0.481393 -0.19336,-0.982422 -0.07688,-0.501017 -0.149939,-1.077607 -0.550781,-1.568359 -0.03137,-0.04069 -0.07976,-0.04044 -0.115234,-0.07617 0.03224,-0.09579 0.05873,-0.168266 0.08984,-0.269531 0.06713,-0.218443 0.11629,-0.423675 0.134766,-0.666016 0.39025,-1.354688 0.103401,-2.926576 -0.449219,-4.46875 -0.560605,-1.564458 -1.406742,-3.100439 -2.236328,-4.292969 -1.622214,-2.331932 -2.839597,-3.61812 -3.509766,-6.394531 -0.339029,-1.404549 -0.285401,-1.768986 -0.224609,-2.228515 0.06067,-0.458611 0.138624,-1.069705 -0.171875,-2.367188 l -0.002,-0.0059 C 30.570894,9.1756345 30.024656,8.1899873 29.494141,7.4472656 A 0.60736584,0.60736584 0 0 0 29.460938,7.40625 C 28.783829,6.6162904 28.056472,6.1620673 27.447266,6.0097656 l 0.148437,0.058594 C 27.027496,5.7526886 26.048471,5.3376328 24.78125,5.3085938 Z M 13.667969,30.679688 a 0.60736584,0.60736584 0 0 0 0.349609,0.216796 c -0.282748,0.05576 -0.327499,-0.03363 -0.341797,-0.04102 z"
    transform="translate(-8.2777444,-3.3070223)" />
  <g id="g1982" transform="translate(-8.2777444,-5.3070223)">
    <polygon fill="#eceff1"
      points="36.1,29.3 30.1,22 28.4,17.9 20.1,18.2 20.2,20.5 18.6,23.5 16.1,28.4 15.6,32.5 17.4,38.3 21.5,40.6 27.7,40.6 33.5,36.2 "
      id="polygon2-9" transform="translate(7.81e-4,3.91e-4)" />
    <path fill="#263238"
      d="m 34.300781,23.900391 c -1.6,-2.3 -2.9,-3.7 -3.6,-6.6 -0.7,-2.9 0.2,-2.1 -0.4,-4.6 -0.3,-1.3 -0.8,-2.2 -1.3,-2.9 -0.6,-0.7 -1.3,-1.1 -1.7,-1.2 -0.9,-0.5 -3,-1.3 -5.6,0.1 -2.7,1.4 -2.4,4.4 -1.9,10.5 0,0.4 -0.1,0.9 -0.3,1.3 -0.4,0.9 -1.1,1.7 -1.7,2.4 -0.7,1 -1.4,2 -1.9,3.1 -1.2,2.3 -2.3,5.2 -2,6.3 0.5,-0.1 6.8,9.5 6.8,9.7 0.4,-0.1 2.1,-0.1 3.6,-0.1 2.1,-0.1 3.3,-0.2 5,0.2 0,-0.3 -0.1,-0.6 -0.1,-0.9 0,-0.6 0.1,-1.1 0.2,-1.8 0.1,-0.5 0.2,-1 0.3,-1.6 -1,0.9 -2.8,1.9 -4.5,2.2 -1.5,0.3 -4,-0.2 -5.2,-1.7 0.1,0 0.3,0 0.4,-0.1 0.3,-0.1 0.6,-0.2 0.7,-0.4 0.3,-0.5 0.1,-1 -0.1,-1.3 -0.2,-0.3 -1.7,-1.4 -2.4,-2 -0.7,-0.6 -1.1,-0.9 -1.5,-1.3 0,0 -0.6,-0.6 -0.8,-0.8 -0.2,-0.2 -0.3,-0.4 -0.4,-0.5 -0.2,-0.5 -0.3,-1.1 -0.2,-1.9 0.1,-1.1 0.5,-2 1,-3 0.2,-0.4 0.7,-1.2 0.7,-1.2 0,0 -1.7,4.2 -0.8,5.5 0,0 0.1,-1.3 0.5,-2.6 0.3,-0.9 0.8,-2.2 1.4,-2.9 0.6,-0.7 2.1,-3.3 2.2,-4.9 0,-0.7 0.1,-1.4 0.1,-1.9 -0.4,-0.4 6.6,-1.4 7,-0.3 0.1,0.4 1.5,4 2.3,5.9 0.4,0.9 0.9,1.7 1.2,2.7 0.3,1.1 0.5,2.6 0.5,4.1 0,0.3 0,0.8 -0.1,1.3 0.2,0 4.1,-4.2 -0.5,-7.7 0,0 2.8,1.3 2.9,3.9 0.1,2.1 -0.8,3.8 -1,4.1 0.1,0 2.1,0.9 2.2,0.9 0.4,0 1.2,-0.3 1.2,-0.3 0.1,-0.3 0.4,-1.1 0.4,-1.4 0.7,-2.3 -1,-6 -2.6,-8.3 z"
      id="path4" />
    <g id="g10" transform="translate(7.81e-4,3.91e-4)">
      <ellipse fill="#eceff1" cx="21.6" cy="15.3" rx="1.3" ry="2" id="ellipse6" />
      <ellipse fill="#eceff1" cx="26.1" cy="15.2" rx="1.7" ry="2.3" id="ellipse8" />
    </g>
    <g id="g16" transform="translate(7.81e-4,3.91e-4)">
      <ellipse transform="matrix(-0.1254,-0.9921,0.9921,-0.1254,8.9754,38.9969)" fill="#212121" cx="21.700001" cy="15.5"
        rx="1.2" ry="0.69999999" id="ellipse12" />
      <ellipse fill="#212121" cx="26" cy="15.6" rx="1" ry="1.3" id="ellipse14" />
    </g>
    <path fill="#ffc107"
      d="m 39.300781,37.600391 c -0.4,-0.2 -1.1,-0.5 -1.7,-1.4 -0.3,-0.5 -0.2,-1.9 -0.7,-2.5 -0.3,-0.4 -0.7,-0.2 -0.8,-0.2 -0.9,0.2 -3,1.6 -4.4,0 -0.2,-0.2 -0.5,-0.5 -1,-0.5 -0.5,0 -0.7,0.2 -0.9,0.6 -0.2,0.4 -0.2,0.7 -0.2,1.7 0,0.8 0,1.7 -0.1,2.4 -0.2,1.7 -0.5,2.7 -0.5,3.7 0,1.1 0.3,1.8 0.7,2.1 0.3,0.3 0.8,0.5 1.9,0.5 1.1,0 1.8,-0.4 2.5,-1.1 0.5,-0.5 0.9,-0.7 2.3,-1.7 1.1,-0.7 2.8,-1.6 3.1,-1.9 0.2,-0.2 0.5,-0.3 0.5,-0.9 0,-0.5 -0.4,-0.7 -0.7,-0.8 z"
      id="path18" />
    <path fill="#ffc107"
      d="m 19.200781,37.900391 c -1,-1.6 -1.1,-1.9 -1.8,-2.9 -0.6,-1 -1.9,-2.9 -2.7,-2.9 -0.6,0 -0.9,0.3 -1.3,0.7 -0.4,0.4 -0.8,1.3 -1.5,1.8 -0.6,0.5 -2.3,0.4 -2.7,1 -0.4,0.6 0.4,1.5 0.4,3 0,0.6 -0.5,1 -0.6,1.4 -0.1,0.5 -0.2,0.8 0,1.2 0.4,0.6 0.9,0.8 4.3,1.5 1.8,0.4 3.5,1.4 4.6,1.5 1.1,0.1 3,0 3,-2.7 0.1,-1.6 -0.8,-2 -1.7,-3.6 z"
      id="path20" />
    <path fill="#ffc107"
      d="m 21.100781,19.800391 c -0.6,-0.4 -1.1,-0.8 -1.1,-1.4 0,-0.6 0.4,-0.8 1,-1.3 0.1,-0.1 1.2,-1.1 2.3,-1.1 1.1,0 2.4,0.7 2.9,0.9 0.9,0.2 1.8,0.4 1.7,1.1 -0.1,1 -0.2,1.2 -1.2,1.7 -0.7,0.2 -2,1.3 -2.9,1.3 -0.4,0 -1,0 -1.4,-0.1 -0.3,-0.1 -0.8,-0.6 -1.3,-1.1 z"
      id="path22" />
    <g id="g32" transform="translate(7.81e-4,3.91e-4)">
      <path fill="#634703"
        d="m 20.9,19 c 0.2,0.2 0.5,0.4 0.8,0.5 0.2,0.1 0.5,0.2 0.5,0.2 0.4,0 0.7,0 0.9,0 0.5,0 1.2,-0.2 1.9,-0.6 0.7,-0.3 0.8,-0.5 1.3,-0.7 0.5,-0.3 1,-0.6 0.8,-0.7 -0.2,-0.1 -0.4,0 -1.1,0.4 -0.6,0.4 -1.1,0.6 -1.7,0.9 -0.3,0.1 -0.7,0.3 -1,0.3 -0.3,0 -0.6,0 -0.9,0 -0.3,0 -0.5,-0.1 -0.8,-0.2 -0.2,-0.1 -0.3,-0.2 -0.4,-0.2 -0.2,-0.1 -0.6,-0.5 -0.8,-0.6 0,0 -0.2,0 -0.1,0.1 0.3,0.3 0.4,0.4 0.6,0.6 z"
        id="path26" />
      <path fill="#634703"
        d="m 23.9,16.8 c 0.1,0.2 0.3,0.2 0.4,0.3 0.1,0.1 0.2,0.1 0.2,0.1 0.1,-0.1 0,-0.3 -0.1,-0.3 0,-0.2 -0.5,-0.2 -0.5,-0.1 z"
        id="path28" />
      <path fill="#634703"
        d="m 22.3,17 c 0,0.1 0.2,0.2 0.2,0.1 0.1,-0.1 0.2,-0.2 0.3,-0.2 0.2,-0.1 0.1,-0.2 -0.2,-0.2 -0.2,0.1 -0.2,0.2 -0.3,0.3 z"
        id="path30" />
    </g>
    <path fill="#455a64"
      d="m 32.000781,34.700391 c 0,0.1 0,0.2 0,0.3 0.2,0.4 0.7,0.5 1.1,0.5 0.6,0 1.2,-0.4 1.5,-0.8 0,-0.1 0.1,-0.2 0.2,-0.3 0.2,-0.3 0.3,-0.5 0.4,-0.6 0,0 -0.1,-0.1 -0.1,-0.2 -0.1,-0.2 -0.4,-0.4 -0.8,-0.5 -0.3,-0.1 -0.8,-0.2 -1,-0.2 -0.9,-0.1 -1.4,0.2 -1.7,0.5 0,0 0.1,0 0.1,0.1 0.2,0.2 0.3,0.4 0.3,0.7 0.1,0.2 0,0.3 0,0.5 z"
      id="path34" />
  </g>
</svg>