<?xml version="1.0" encoding="utf-8"?>
<!-- Generator: Adobe Illustrator 27.0.0, SVG Export Plug-In . SVG Version: 6.00 Build 0)  -->
<svg version="1.1" id="Layer_1" xmlns="http://www.w3.org/2000/svg" xmlns:xlink="http://www.w3.org/1999/xlink" x="0px" y="0px"
	width="168px" height="49px" viewBox="0 0 168 49" style="enable-background:new 0 0 168 49;" xml:space="preserve">
<style type="text/css">
	.st0{clip-path:url(#SVGID_00000165952612364856587350000007955856920144243862_);fill:#0055B8;}
	.st1{clip-path:url(#SVGID_00000165952612364856587350000007955856920144243862_);}
	.st2{clip-path:url(#SVGID_00000062898076206005787150000012912539092489858439_);fill:#0055B8;}
	
		.st3{clip-path:url(#SVGID_00000133498324388754093070000000904712960967128467_);fill:url(#SVGID_00000145759088909712800230000011130649207222832798_);}
	.st4{clip-path:url(#SVGID_00000160900387565437667820000004096904168750024835_);}
	
		.st5{clip-path:url(#SVGID_00000134950169431036227490000010255672892299695282_);fill:url(#SVGID_00000054233210069238490220000016412167886580664464_);}
	.st6{clip-path:url(#SVGID_00000042709253679173657970000001379876446866728326_);}
	
		.st7{clip-path:url(#SVGID_00000173870002864605505080000005342692181059946895_);fill:url(#SVGID_00000003820868015022497640000015800131036986004894_);}
	.st8{clip-path:url(#SVGID_00000073679164581469452550000016993871487651180214_);}
	.st9{clip-path:url(#SVGID_00000008110521525176665380000017817098184380983723_);fill:#FFFFFF;}
	.st10{clip-path:url(#SVGID_00000162328648900367199920000017533096332413662643_);}
	
		.st11{clip-path:url(#SVGID_00000155118806269530320580000018321502915855693465_);fill:url(#SVGID_00000178897949988686859670000010573323449757973926_);}
	.st12{clip-path:url(#SVGID_00000038391941239426458810000009525492551089645489_);fill:#FFFFFF;}
</style>
<g id="LogRhythm_x5F_TM_x5F_Logo_x5F_ForLightBackgrounds_x5F_RGB_00000098194681651824652890000007077493447349373860_">
	<g>
		<defs>
			<rect id="SVGID_1_" x="5.7" y="13.3" width="156.5" height="22.5"/>
		</defs>
		<clipPath id="SVGID_00000058587879484670076670000010733119176227645058_">
			<use xlink:href="#SVGID_1_"  style="overflow:visible;"/>
		</clipPath>
		<polygon style="clip-path:url(#SVGID_00000058587879484670076670000010733119176227645058_);fill:#0055B8;" points="57,15.6 
			54.6,15.6 54.6,31.6 63.5,31.6 63.5,29.6 57,29.6 		"/>
		<g style="clip-path:url(#SVGID_00000058587879484670076670000010733119176227645058_);">
			<defs>
				<rect id="SVGID_00000003097615351988185940000017116380083869510552_" x="5.7" y="13.3" width="156.5" height="22.5"/>
			</defs>
			<clipPath id="SVGID_00000106832054693041775790000000534088240092725166_">
				<use xlink:href="#SVGID_00000003097615351988185940000017116380083869510552_"  style="overflow:visible;"/>
			</clipPath>
			<path style="clip-path:url(#SVGID_00000106832054693041775790000000534088240092725166_);fill:#0055B8;" d="M69.9,19.3
				c-2.9,0-4.6,1.3-4.6,3.4v5.7c0,2.2,1.7,3.4,4.6,3.4c2.9,0,4.6-1.3,4.6-3.4v-5.7C74.5,20.5,72.8,19.3,69.9,19.3 M67.6,23.2
				c0-1.2,0.7-1.8,2.3-1.8c1.5,0,2.3,0.6,2.3,1.8v4.8c0,1.2-0.7,1.8-2.3,1.8c-1.6,0-2.3-0.6-2.3-1.8V23.2z"/>
			<path style="clip-path:url(#SVGID_00000106832054693041775790000000534088240092725166_);fill:#0055B8;" d="M83.6,19.9
				c-1-0.5-2-0.7-3.1-0.7c-2.3,0-3.7,1.2-3.7,3.3v5.5c0,2.1,1.4,3.4,3.7,3.4c0.9,0,1.8-0.2,2.7-0.6v0.4c0,1.6-1,2.4-3.2,2.4
				c-1,0-2.4-0.2-2.9-0.3l-0.2,0v2l0.1,0c0.8,0.2,2.1,0.3,3.1,0.3c3.7,0,5.4-1.3,5.4-4.3v-12h-1.9L83.6,19.9z M79.2,23
				c0-1.4,1-1.6,1.8-1.6c0.9,0,1.5,0.2,2.3,0.6v7c-0.8,0.4-1.5,0.5-2.2,0.5c-1.6,0-1.9-1-1.9-1.9V23z"/>
			<path style="clip-path:url(#SVGID_00000106832054693041775790000000534088240092725166_);fill:#0055B8;" d="M97.8,21.4V20
				c0-3-1.8-4.4-5.6-4.4h-4v16h2.4v-6h1.9l3.8,6h2.8L95,25.2C96.9,24.7,97.8,23.4,97.8,21.4 M90.7,23.5v-5.9h1.7c2.1,0,3,0.8,3,2.5
				v1.1c0,1.6-0.9,2.3-3.1,2.3H90.7z"/>
			<path style="clip-path:url(#SVGID_00000106832054693041775790000000534088240092725166_);fill:#0055B8;" d="M106.4,19.3
				c-1,0-2.1,0.3-3.2,0.8v-4.5h-2.3v16h2.3v-9.5c0.7-0.3,1.7-0.8,2.6-0.8c1,0,1.5,0.5,1.5,1.6v8.7h2.3v-9.2
				C109.6,20.4,108.5,19.3,106.4,19.3"/>
			<path style="clip-path:url(#SVGID_00000106832054693041775790000000534088240092725166_);fill:#0055B8;" d="M116.5,28.5l-2.8-9
				h-2.5l4.1,11.9l0,0.1c-0.7,1.9-1.5,2.3-2.5,2.3c-0.4,0-0.7,0-0.9-0.1l-0.2-0.1v2l0.1,0c0.3,0.1,0.7,0.1,1.3,0.1
				c1.9,0,3.3-0.7,4.5-3.9l4.1-12.3h-2.5L116.5,28.5z"/>
			<path style="clip-path:url(#SVGID_00000106832054693041775790000000534088240092725166_);fill:#0055B8;" d="M127.4,29.7
				c-1.2,0-1.6-0.5-1.6-1.6v-6.7h2.8v-1.9h-2.8v-3.1h-1.9l-0.4,3.1l0,1.9v7c0,2.2,1.1,3.3,3.5,3.3c0.8,0,1.6-0.1,2-0.2l0.1,0v-2
				l-0.2,0.1C128.6,29.6,128,29.7,127.4,29.7"/>
			<path style="clip-path:url(#SVGID_00000106832054693041775790000000534088240092725166_);fill:#0055B8;" d="M137,19.3
				c-1,0-2.1,0.3-3.2,0.8v-4.5h-2.3v16h2.3v-9.5c0.7-0.3,1.7-0.8,2.6-0.8c1,0,1.5,0.5,1.5,1.6v8.7h2.3v-9.2
				C140.1,20.4,139,19.3,137,19.3"/>
			<path style="clip-path:url(#SVGID_00000106832054693041775790000000534088240092725166_);fill:#0055B8;" d="M154.2,19.3
				c-1.3,0-2.5,0.4-3.6,1.1c-0.5-0.8-1.4-1.1-2.7-1.1c-1,0-2.2,0.3-3.1,0.9l-0.2-0.8h-1.9v12.2h2.3V22c0.7-0.5,1.5-0.7,2.4-0.7
				c1,0,1.5,0.5,1.5,1.7v8.6h2.3v-9c0-0.1,0-0.3,0-0.5c0.8-0.5,1.6-0.8,2.4-0.8c1,0,1.5,0.5,1.5,1.7v8.6h2.3v-9
				C157.4,20.5,156.2,19.3,154.2,19.3"/>
			<path style="clip-path:url(#SVGID_00000106832054693041775790000000534088240092725166_);fill:#0055B8;" d="M159.4,20.2v1.5H159
				v-1.5h-0.5v-0.4h1.5v0.4H159.4z M161.8,21.7v-1.3h0l-0.5,1.3h-0.3l-0.5-1.3h0v1.3h-0.4v-1.8h0.6l0.5,1.2l0.5-1.2h0.6v1.8H161.8z"
				/>
		</g>
		<g style="clip-path:url(#SVGID_00000058587879484670076670000010733119176227645058_);">
			<defs>
				<path id="SVGID_00000113341806477991914670000009688529887535594172_" d="M21,32c-1,0-2-1.5-2.8-3.8h-2.1
					c0.8,2.7,2.3,5.8,4.9,5.8c1.5,0,3.6-0.8,6.1-3.9c-0.2-0.8-0.4-1.6-0.6-2.4C23.9,31.3,22,32,21,32 M33.3,13.3L33,13.9
					c-0.6,1.7-1.5,4-2.7,6.6c0.1,0.4,0.3,0.9,0.4,1.3c0.1,0.5,0.3,1,0.4,1.5c1.5-3.1,2.7-6,3.5-8.1h10.2c-0.9,2.3-2.3,5.6-4.1,9.1
					C37.3,31,34.6,32,33.4,32c-1.1,0-1.8-1.4-2.2-2.2c-0.9-2.1-1.4-4.3-2-6.4c-0.2-0.6-0.4-1.2-0.6-1.9c-0.9-2.1-2.2-4-4.2-4
					c-3.6,0-5.3,4.6-5.9,6.6H8.2c0.4-1.3,1.7-4.7,3.9-4.7c0.8,0,1.6,1,2.3,2.6h2.1c-0.9-2.4-2.3-4.5-4.4-4.5c-4.4,0-6,7.1-6.1,7.4
					l-0.3,1.2l14.3,0l0.2-0.8c0.4-1.6,1.8-5.9,4.2-5.9c1.1,0,2.2,1.7,3,4.4c0.5,1.7,0.8,3.5,1.4,5.2c0.9,2.5,2.3,4.8,4.6,4.8
					c2.1,0,5.3-1.5,9.1-8.7c2.1-4,3.7-8,4.7-10.6l0.5-1.3H33.3z"/>
			</defs>
			<clipPath id="SVGID_00000002360569511141839910000017874760560426135205_">
				<use xlink:href="#SVGID_00000113341806477991914670000009688529887535594172_"  style="overflow:visible;"/>
			</clipPath>
			
				<linearGradient id="SVGID_00000051355439088000200470000017791494369721004700_" gradientUnits="userSpaceOnUse" x1="-1.8892" y1="-751.8649" x2="-1.4499" y2="-751.8649" gradientTransform="matrix(62.7858 -27.1704 -27.1704 -62.7858 -20300.3809 -47226.7266)">
				<stop  offset="0" style="stop-color:#00ADA3"/>
				<stop  offset="0.1512" style="stop-color:#00ADA3"/>
				<stop  offset="0.4968" style="stop-color:#00B6ED"/>
				<stop  offset="1" style="stop-color:#0055B8"/>
			</linearGradient>
			
				<polygon style="clip-path:url(#SVGID_00000002360569511141839910000017874760560426135205_);fill:url(#SVGID_00000051355439088000200470000017791494369721004700_);" points="
				-1.8,16.5 41.1,-2 55.2,30.6 12.4,49.2 			"/>
		</g>
	</g>
</g>
</svg>
