<?xml version="1.0" encoding="UTF-8" standalone="no"?>

<svg width="260" height="25" viewBox="0 0 260 25" fill="none" xmlns="http://www.w3.org/2000/svg">
   <path d="M54.6432 2.97961H52.0701V20.0556H61.4736V17.9036H54.6432V2.97961Z" fill="#FCFDFD"/>
   <path d="M68.3508 6.95618C65.2631 6.95618 63.4854 8.3129 63.4854 10.6053V16.6404C63.4854 18.9796 65.2631 20.2895 68.3508 20.2895C71.4386 20.2895 73.2163 18.9328 73.2163 16.6404V10.6053C73.2163 8.26612 71.4386 6.95618 68.3508 6.95618ZM65.9181 11.0731C65.9181 9.76319 66.7134 9.15501 68.3508 9.15501C69.9883 9.15501 70.7836 9.76319 70.7836 11.0731V16.1258C70.7836 17.4357 70.0351 18.0439 68.3508 18.0439C66.6666 18.0439 65.9181 17.4357 65.9181 16.1258V11.0731Z" fill="#FCFDFD"/>
   <path d="M82.9474 7.65796C81.9181 7.14334 80.8889 6.90942 79.6257 6.90942C77.193 6.90942 75.7427 8.21937 75.7427 10.4182V16.3129C75.7427 18.5585 77.2865 19.9621 79.7193 19.9621C80.655 19.9621 81.6374 19.7281 82.6199 19.3071V19.7749C82.6199 21.4591 81.4971 22.3012 79.2514 22.3012C78.1754 22.3012 76.7251 22.1141 76.1637 21.9738L75.9298 21.927V24.079L76.0702 24.1258C76.9123 24.3129 78.269 24.4533 79.345 24.4533C83.3216 24.4533 85.0994 23.0498 85.0994 19.8685V7.09656H83.0877L82.9474 7.65796ZM78.2222 10.886C78.2222 9.43574 79.2982 9.15504 80.1871 9.15504C81.076 9.15504 81.731 9.34217 82.6667 9.76323V17.155C81.8245 17.5293 81.0292 17.7164 80.2807 17.7164C78.5965 17.7164 78.269 16.6404 78.269 15.7047V10.886H78.2222Z" fill="#FCFDFD"/>
   <path d="M98.0585 9.24859V7.75151C98.0585 4.57023 96.1403 3.02637 92.1637 3.02637H87.8596V20.0556H90.4795V13.6463H92.4912L96.5614 20.0556H99.5087L95.1111 13.272C97.076 12.7106 98.0585 11.3539 98.0585 9.24859ZM90.4795 11.4474V5.17841H92.3041C94.5029 5.17841 95.4854 6.02052 95.4854 7.84508V8.96789C95.4854 10.6989 94.5029 11.4474 92.2105 11.4474H90.4795Z" fill="#FCFDFD"/>
   <path d="M107.228 6.95622C106.152 6.95622 104.982 7.23692 103.766 7.84511V2.97961H101.333V20.0556H103.766V9.99716C104.515 9.62289 105.591 9.20184 106.526 9.20184C107.602 9.20184 108.117 9.76324 108.117 10.886V20.0556H110.596V10.2779C110.596 8.12581 109.427 6.95622 107.228 6.95622Z" fill="#FCFDFD"/>
   <path d="M117.895 16.7808L114.9 7.19019H112.281L116.678 19.8685L116.631 19.9621C115.93 22.0206 115.088 22.3949 113.965 22.3949C113.497 22.3949 113.216 22.3481 112.982 22.3013L112.748 22.2077V24.313L112.889 24.3598C113.216 24.4533 113.59 24.5001 114.245 24.5001C116.257 24.5001 117.801 23.7984 118.971 20.3364L123.368 7.19019H120.702L117.895 16.7808Z" fill="#FCFDFD"/>
   <path d="M129.59 18.0907C128.374 18.0907 127.859 17.5761 127.859 16.3597V9.20183H130.854V7.14335H127.859V3.91528H125.848L125.38 7.14335V9.20183V16.6872C125.38 19.0264 126.596 20.196 129.076 20.196C129.871 20.196 130.76 20.0556 131.181 19.9621L131.321 19.9153V17.81L131.087 17.9036C130.9 17.9972 130.152 18.0907 129.59 18.0907Z" fill="#FCFDFD"/>
   <path d="M139.789 6.95622C138.713 6.95622 137.544 7.23692 136.327 7.84511V2.97961H133.895V20.0556H136.327V9.99716C137.076 9.62289 138.152 9.20184 139.088 9.20184C140.164 9.20184 140.678 9.76324 140.678 10.886V20.0556H143.158V10.2779C143.158 8.12581 141.941 6.95622 139.789 6.95622Z" fill="#FCFDFD"/>
   <path d="M158.082 6.95618C156.725 6.95618 155.368 7.37723 154.292 8.17255C153.731 7.37723 152.748 6.95618 151.439 6.95618C150.316 6.95618 149.053 7.33045 148.164 7.89185L147.977 7.09653H145.965V20.0556H148.398V9.90354C149.099 9.43571 150.035 9.15501 150.924 9.15501C152.047 9.15501 152.515 9.71641 152.515 10.9796V20.0556H154.947V10.4182C154.947 10.2778 154.947 10.0907 154.901 9.95033C155.789 9.38893 156.632 9.10822 157.474 9.10822C158.55 9.10822 159.064 9.66963 159.064 10.9328V20.0556H161.544V10.4182C161.544 8.21933 160.281 6.95618 158.082 6.95618Z" fill="#FCFDFD"/>
   <path d="M163.649 7.9386V9.48246H163.181V7.9386H162.62V7.56433H164.211V7.9386H163.649ZM166.222 9.48246V8.12573L165.708 9.48246H165.427L164.912 8.12573V9.48246H164.444V7.56433H165.099L165.567 8.82749L166.035 7.56433H166.643V9.48246H166.222Z" fill="#FCFDFD"/>
   <path d="M44.6316 0.546784L44.117 1.95029C43.0877 4.71053 41.4035 8.92105 39.1111 13.2251C35.0877 20.8977 31.6257 22.5351 29.4269 22.5351C27.0409 22.5351 25.4971 20.0088 24.5614 17.3889C23.9064 15.5643 23.6257 13.6462 23.0643 11.8216C22.1754 8.92105 21.0058 7.14327 19.8363 7.14327C17.3099 7.14327 15.7661 11.6813 15.3918 13.4123L15.2515 14.1608H0L0.280702 12.8977C0.327485 12.5702 2.0117 5.03801 6.73684 5.03801C9.02924 5.03801 10.4795 7.28363 11.462 9.85673H9.21637C8.46784 8.12573 7.57895 7.09649 6.73684 7.09649C4.49123 7.09649 3.08772 10.7456 2.61988 12.1023H13.5673C14.1754 9.90351 16.0468 5.03801 19.8363 5.03801C21.9415 5.03801 23.3918 7.00292 24.3275 9.24854C24.5146 9.90351 24.7485 10.5585 24.9357 11.2135C25.5906 13.5058 26.0585 15.845 27.0409 18.0439C27.462 18.9795 28.1637 20.4298 29.3801 20.4298C30.7368 20.4298 33.5439 19.3538 37.2865 12.2427C39.2047 8.59357 40.7018 4.99123 41.6374 2.60526H30.7368C29.8947 4.80409 28.6316 7.89181 26.9942 11.2135C26.8538 10.652 26.7134 10.1374 26.5731 9.57602C26.4327 9.10819 26.2924 8.64035 26.152 8.17251C27.4152 5.45906 28.3509 2.97953 29.0526 1.15497L29.2865 0.5H44.6316V0.546784ZM22.0819 15.7515C19.3684 19.7281 17.3099 20.4298 16.2807 20.4298C15.2515 20.4298 14.1287 18.886 13.2865 16.3596H11.0877C11.9766 19.307 13.5673 22.4883 16.2807 22.4883C17.8246 22.4883 20.0702 21.6462 22.7368 18.3246C22.5497 17.4825 22.3158 16.6404 22.0819 15.7515Z" fill="#FCFDFD"/>
   <path d="M175.807 20.12C175.095 20.12 174.483 20.004 173.971 19.772C173.459 19.532 173.059 19.168 172.771 18.68C172.483 18.184 172.327 17.568 172.303 16.832C172.295 16.488 172.291 16.148 172.291 15.812C172.291 15.476 172.295 15.132 172.303 14.78C172.327 14.052 172.487 13.444 172.783 12.956C173.079 12.468 173.483 12.1 173.995 11.852C174.515 11.604 175.119 11.48 175.807 11.48C176.495 11.48 177.099 11.604 177.619 11.852C178.139 12.1 178.547 12.468 178.843 12.956C179.139 13.444 179.299 14.052 179.323 14.78C179.339 15.132 179.347 15.476 179.347 15.812C179.347 16.148 179.339 16.488 179.323 16.832C179.299 17.568 179.143 18.184 178.855 18.68C178.567 19.168 178.163 19.532 177.643 19.772C177.131 20.004 176.519 20.12 175.807 20.12ZM175.807 18.74C176.327 18.74 176.751 18.588 177.079 18.284C177.407 17.972 177.583 17.468 177.607 16.772C177.623 16.42 177.631 16.096 177.631 15.8C177.631 15.496 177.623 15.172 177.607 14.828C177.591 14.364 177.503 13.988 177.343 13.7C177.191 13.404 176.983 13.192 176.719 13.064C176.455 12.928 176.151 12.86 175.807 12.86C175.471 12.86 175.171 12.928 174.907 13.064C174.643 13.192 174.431 13.404 174.271 13.7C174.119 13.988 174.035 14.364 174.019 14.828C174.011 15.172 174.007 15.496 174.007 15.8C174.007 16.096 174.011 16.42 174.019 16.772C174.043 17.468 174.219 17.972 174.547 18.284C174.875 18.588 175.295 18.74 175.807 18.74ZM181.229 22.28C181.149 22.28 181.081 22.252 181.025 22.196C180.969 22.14 180.941 22.072 180.941 21.992V14.048C180.941 13.968 180.969 13.9 181.025 13.844C181.081 13.788 181.149 13.76 181.229 13.76H182.177C182.265 13.76 182.333 13.788 182.381 13.844C182.437 13.9 182.465 13.968 182.465 14.048V14.528C182.657 14.272 182.909 14.06 183.221 13.892C183.533 13.724 183.921 13.64 184.385 13.64C184.809 13.64 185.177 13.708 185.489 13.844C185.801 13.98 186.061 14.176 186.269 14.432C186.477 14.68 186.637 14.976 186.749 15.32C186.861 15.664 186.925 16.044 186.941 16.46C186.949 16.596 186.953 16.736 186.953 16.88C186.953 17.024 186.949 17.168 186.941 17.312C186.933 17.712 186.873 18.084 186.761 18.428C186.649 18.764 186.485 19.06 186.269 19.316C186.061 19.564 185.801 19.76 185.489 19.904C185.177 20.048 184.809 20.12 184.385 20.12C183.953 20.12 183.585 20.044 183.281 19.892C182.977 19.732 182.729 19.524 182.537 19.268V21.992C182.537 22.072 182.509 22.14 182.453 22.196C182.405 22.252 182.337 22.28 182.249 22.28H181.229ZM183.941 18.836C184.285 18.836 184.553 18.764 184.745 18.62C184.937 18.468 185.073 18.272 185.153 18.032C185.241 17.792 185.293 17.528 185.309 17.24C185.325 17 185.325 16.76 185.309 16.52C185.293 16.232 185.241 15.968 185.153 15.728C185.073 15.488 184.937 15.296 184.745 15.152C184.553 15 184.285 14.924 183.941 14.924C183.613 14.924 183.345 15 183.137 15.152C182.937 15.304 182.789 15.5 182.693 15.74C182.605 15.972 182.553 16.212 182.537 16.46C182.529 16.604 182.525 16.756 182.525 16.916C182.525 17.076 182.529 17.232 182.537 17.384C182.545 17.624 182.601 17.856 182.705 18.08C182.809 18.296 182.961 18.476 183.161 18.62C183.361 18.764 183.621 18.836 183.941 18.836ZM191.138 20.12C190.25 20.12 189.546 19.864 189.026 19.352C188.506 18.84 188.226 18.112 188.186 17.168C188.178 17.088 188.174 16.988 188.174 16.868C188.174 16.74 188.178 16.64 188.186 16.568C188.218 15.968 188.354 15.448 188.594 15.008C188.842 14.568 189.182 14.232 189.614 14C190.046 13.76 190.554 13.64 191.138 13.64C191.786 13.64 192.33 13.776 192.77 14.048C193.21 14.312 193.542 14.684 193.766 15.164C193.99 15.636 194.102 16.184 194.102 16.808V17.06C194.102 17.14 194.074 17.208 194.018 17.264C193.962 17.32 193.89 17.348 193.802 17.348H189.818C189.818 17.348 189.818 17.36 189.818 17.384C189.818 17.408 189.818 17.428 189.818 17.444C189.826 17.724 189.878 17.984 189.974 18.224C190.078 18.456 190.226 18.644 190.418 18.788C190.618 18.932 190.854 19.004 191.126 19.004C191.35 19.004 191.538 18.972 191.69 18.908C191.842 18.836 191.966 18.756 192.062 18.668C192.158 18.58 192.226 18.508 192.266 18.452C192.338 18.356 192.394 18.3 192.434 18.284C192.482 18.26 192.55 18.248 192.638 18.248H193.67C193.75 18.248 193.814 18.272 193.862 18.32C193.918 18.368 193.942 18.428 193.934 18.5C193.926 18.628 193.858 18.784 193.73 18.968C193.61 19.152 193.434 19.332 193.202 19.508C192.97 19.684 192.678 19.832 192.326 19.952C191.982 20.064 191.586 20.12 191.138 20.12ZM189.818 16.34H192.47V16.304C192.47 15.992 192.418 15.72 192.314 15.488C192.21 15.256 192.058 15.072 191.858 14.936C191.658 14.8 191.418 14.732 191.138 14.732C190.858 14.732 190.618 14.8 190.418 14.936C190.218 15.072 190.066 15.256 189.962 15.488C189.866 15.72 189.818 15.992 189.818 16.304V16.34ZM195.814 20C195.734 20 195.666 19.972 195.61 19.916C195.554 19.86 195.526 19.792 195.526 19.712V14.048C195.526 13.968 195.554 13.9 195.61 13.844C195.666 13.788 195.734 13.76 195.814 13.76H196.798C196.878 13.76 196.946 13.788 197.002 13.844C197.058 13.9 197.086 13.968 197.086 14.048V14.54C197.294 14.284 197.558 14.072 197.878 13.904C198.206 13.728 198.61 13.64 199.09 13.64C199.578 13.64 200.002 13.752 200.362 13.976C200.722 14.192 200.998 14.5 201.19 14.9C201.39 15.3 201.49 15.78 201.49 16.34V19.712C201.49 19.792 201.462 19.86 201.406 19.916C201.35 19.972 201.282 20 201.202 20H200.146C200.066 20 199.998 19.972 199.942 19.916C199.886 19.86 199.858 19.792 199.858 19.712V16.412C199.858 15.948 199.742 15.584 199.51 15.32C199.286 15.056 198.958 14.924 198.526 14.924C198.11 14.924 197.778 15.056 197.53 15.32C197.282 15.584 197.158 15.948 197.158 16.412V19.712C197.158 19.792 197.13 19.86 197.074 19.916C197.018 19.972 196.95 20 196.87 20H195.814ZM209.44 20.12C208.696 20.12 208.064 19.992 207.544 19.736C207.032 19.472 206.64 19.1 206.368 18.62C206.096 18.132 205.944 17.548 205.912 16.868C205.904 16.54 205.9 16.188 205.9 15.812C205.9 15.436 205.904 15.076 205.912 14.732C205.944 14.06 206.096 13.48 206.368 12.992C206.648 12.504 207.044 12.132 207.556 11.876C208.076 11.612 208.704 11.48 209.44 11.48C209.984 11.48 210.472 11.552 210.904 11.696C211.336 11.84 211.704 12.04 212.008 12.296C212.312 12.544 212.548 12.836 212.716 13.172C212.884 13.508 212.972 13.872 212.98 14.264C212.988 14.336 212.964 14.396 212.908 14.444C212.86 14.492 212.8 14.516 212.728 14.516H211.588C211.5 14.516 211.428 14.496 211.372 14.456C211.316 14.408 211.276 14.332 211.252 14.228C211.124 13.7 210.904 13.34 210.592 13.148C210.28 12.956 209.892 12.86 209.428 12.86C208.892 12.86 208.464 13.012 208.144 13.316C207.824 13.612 207.652 14.104 207.628 14.792C207.604 15.448 207.604 16.12 207.628 16.808C207.652 17.496 207.824 17.992 208.144 18.296C208.464 18.592 208.892 18.74 209.428 18.74C209.892 18.74 210.28 18.644 210.592 18.452C210.904 18.252 211.124 17.892 211.252 17.372C211.276 17.26 211.316 17.184 211.372 17.144C211.428 17.104 211.5 17.084 211.588 17.084H212.728C212.8 17.084 212.86 17.108 212.908 17.156C212.964 17.204 212.988 17.264 212.98 17.336C212.972 17.728 212.884 18.092 212.716 18.428C212.548 18.764 212.312 19.06 212.008 19.316C211.704 19.564 211.336 19.76 210.904 19.904C210.472 20.048 209.984 20.12 209.44 20.12ZM217.17 20.12C216.53 20.12 215.99 20.008 215.55 19.784C215.118 19.56 214.786 19.244 214.554 18.836C214.33 18.428 214.202 17.952 214.17 17.408C214.162 17.264 214.158 17.088 214.158 16.88C214.158 16.672 214.162 16.496 214.17 16.352C214.202 15.8 214.334 15.324 214.566 14.924C214.806 14.516 215.142 14.2 215.574 13.976C216.014 13.752 216.546 13.64 217.17 13.64C217.794 13.64 218.322 13.752 218.754 13.976C219.194 14.2 219.53 14.516 219.762 14.924C220.002 15.324 220.138 15.8 220.17 16.352C220.178 16.496 220.182 16.672 220.182 16.88C220.182 17.088 220.178 17.264 220.17 17.408C220.138 17.952 220.006 18.428 219.774 18.836C219.55 19.244 219.218 19.56 218.778 19.784C218.346 20.008 217.81 20.12 217.17 20.12ZM217.17 18.932C217.594 18.932 217.922 18.8 218.154 18.536C218.386 18.264 218.514 17.868 218.538 17.348C218.546 17.228 218.55 17.072 218.55 16.88C218.55 16.688 218.546 16.532 218.538 16.412C218.514 15.9 218.386 15.508 218.154 15.236C217.922 14.964 217.594 14.828 217.17 14.828C216.746 14.828 216.418 14.964 216.186 15.236C215.954 15.508 215.826 15.9 215.802 16.412C215.794 16.532 215.79 16.688 215.79 16.88C215.79 17.072 215.794 17.228 215.802 17.348C215.826 17.868 215.954 18.264 216.186 18.536C216.418 18.8 216.746 18.932 217.17 18.932ZM221.961 20C221.881 20 221.813 19.972 221.757 19.916C221.701 19.86 221.673 19.792 221.673 19.712V11.768C221.673 11.688 221.701 11.62 221.757 11.564C221.813 11.508 221.881 11.48 221.961 11.48H222.957C223.037 11.48 223.105 11.508 223.161 11.564C223.217 11.62 223.245 11.688 223.245 11.768V19.712C223.245 19.792 223.217 19.86 223.161 19.916C223.105 19.972 223.037 20 222.957 20H221.961ZM225.287 20C225.207 20 225.139 19.972 225.083 19.916C225.027 19.86 224.999 19.792 224.999 19.712V11.768C224.999 11.688 225.027 11.62 225.083 11.564C225.139 11.508 225.207 11.48 225.287 11.48H226.283C226.363 11.48 226.431 11.508 226.487 11.564C226.543 11.62 226.571 11.688 226.571 11.768V19.712C226.571 19.792 226.543 19.86 226.487 19.916C226.431 19.972 226.363 20 226.283 20H225.287ZM231.001 20.12C230.113 20.12 229.409 19.864 228.889 19.352C228.369 18.84 228.089 18.112 228.049 17.168C228.041 17.088 228.037 16.988 228.037 16.868C228.037 16.74 228.041 16.64 228.049 16.568C228.081 15.968 228.217 15.448 228.457 15.008C228.705 14.568 229.045 14.232 229.477 14C229.909 13.76 230.417 13.64 231.001 13.64C231.649 13.64 232.193 13.776 232.633 14.048C233.073 14.312 233.405 14.684 233.629 15.164C233.853 15.636 233.965 16.184 233.965 16.808V17.06C233.965 17.14 233.937 17.208 233.881 17.264C233.825 17.32 233.753 17.348 233.665 17.348H229.681C229.681 17.348 229.681 17.36 229.681 17.384C229.681 17.408 229.681 17.428 229.681 17.444C229.689 17.724 229.741 17.984 229.837 18.224C229.941 18.456 230.089 18.644 230.281 18.788C230.481 18.932 230.717 19.004 230.989 19.004C231.213 19.004 231.401 18.972 231.553 18.908C231.705 18.836 231.829 18.756 231.925 18.668C232.021 18.58 232.089 18.508 232.129 18.452C232.201 18.356 232.257 18.3 232.297 18.284C232.345 18.26 232.413 18.248 232.501 18.248H233.533C233.613 18.248 233.677 18.272 233.725 18.32C233.781 18.368 233.805 18.428 233.797 18.5C233.789 18.628 233.721 18.784 233.593 18.968C233.473 19.152 233.297 19.332 233.065 19.508C232.833 19.684 232.541 19.832 232.189 19.952C231.845 20.064 231.449 20.12 231.001 20.12ZM229.681 16.34H232.333V16.304C232.333 15.992 232.281 15.72 232.177 15.488C232.073 15.256 231.921 15.072 231.721 14.936C231.521 14.8 231.281 14.732 231.001 14.732C230.721 14.732 230.481 14.8 230.281 14.936C230.081 15.072 229.929 15.256 229.825 15.488C229.729 15.72 229.681 15.992 229.681 16.304V16.34ZM238.088 20.12C237.512 20.12 237.004 20.012 236.564 19.796C236.132 19.58 235.792 19.268 235.544 18.86C235.304 18.444 235.172 17.944 235.148 17.36C235.14 17.24 235.136 17.084 235.136 16.892C235.136 16.692 235.14 16.528 235.148 16.4C235.172 15.816 235.304 15.32 235.544 14.912C235.792 14.496 236.132 14.18 236.564 13.964C237.004 13.748 237.512 13.64 238.088 13.64C238.6 13.64 239.036 13.712 239.396 13.856C239.756 14 240.052 14.18 240.284 14.396C240.516 14.612 240.688 14.84 240.8 15.08C240.92 15.312 240.984 15.524 240.992 15.716C241 15.804 240.972 15.876 240.908 15.932C240.852 15.98 240.784 16.004 240.704 16.004H239.648C239.568 16.004 239.504 15.984 239.456 15.944C239.416 15.904 239.376 15.844 239.336 15.764C239.216 15.444 239.056 15.22 238.856 15.092C238.664 14.956 238.416 14.888 238.112 14.888C237.712 14.888 237.392 15.016 237.152 15.272C236.92 15.52 236.796 15.916 236.78 16.46C236.764 16.764 236.764 17.044 236.78 17.3C236.796 17.852 236.92 18.252 237.152 18.5C237.392 18.748 237.712 18.872 238.112 18.872C238.424 18.872 238.676 18.808 238.868 18.68C239.06 18.544 239.216 18.316 239.336 17.996C239.376 17.916 239.416 17.856 239.456 17.816C239.504 17.776 239.568 17.756 239.648 17.756H240.704C240.784 17.756 240.852 17.784 240.908 17.84C240.972 17.888 241 17.956 240.992 18.044C240.984 18.188 240.944 18.352 240.872 18.536C240.808 18.712 240.7 18.896 240.548 19.088C240.404 19.272 240.22 19.444 239.996 19.604C239.772 19.756 239.5 19.88 239.18 19.976C238.868 20.072 238.504 20.12 238.088 20.12ZM245.214 20C244.734 20 244.33 19.916 244.002 19.748C243.674 19.58 243.43 19.332 243.27 19.004C243.11 18.668 243.03 18.252 243.03 17.756V15.032H242.082C242.002 15.032 241.934 15.004 241.878 14.948C241.822 14.892 241.794 14.824 241.794 14.744V14.048C241.794 13.968 241.822 13.9 241.878 13.844C241.934 13.788 242.002 13.76 242.082 13.76H243.03V11.768C243.03 11.688 243.054 11.62 243.102 11.564C243.158 11.508 243.23 11.48 243.318 11.48H244.29C244.37 11.48 244.438 11.508 244.494 11.564C244.55 11.62 244.578 11.688 244.578 11.768V13.76H246.078C246.158 13.76 246.226 13.788 246.282 13.844C246.338 13.9 246.366 13.968 246.366 14.048V14.744C246.366 14.824 246.338 14.892 246.282 14.948C246.226 15.004 246.158 15.032 246.078 15.032H244.578V17.636C244.578 17.964 244.634 18.22 244.746 18.404C244.866 18.588 245.07 18.68 245.358 18.68H246.186C246.266 18.68 246.334 18.708 246.39 18.764C246.446 18.82 246.474 18.888 246.474 18.968V19.712C246.474 19.792 246.446 19.86 246.39 19.916C246.334 19.972 246.266 20 246.186 20H245.214ZM250.448 20.12C249.808 20.12 249.268 20.008 248.828 19.784C248.396 19.56 248.064 19.244 247.832 18.836C247.608 18.428 247.48 17.952 247.448 17.408C247.44 17.264 247.436 17.088 247.436 16.88C247.436 16.672 247.44 16.496 247.448 16.352C247.48 15.8 247.612 15.324 247.844 14.924C248.084 14.516 248.42 14.2 248.852 13.976C249.292 13.752 249.824 13.64 250.448 13.64C251.072 13.64 251.6 13.752 252.032 13.976C252.472 14.2 252.808 14.516 253.04 14.924C253.28 15.324 253.416 15.8 253.448 16.352C253.456 16.496 253.46 16.672 253.46 16.88C253.46 17.088 253.456 17.264 253.448 17.408C253.416 17.952 253.284 18.428 253.052 18.836C252.828 19.244 252.496 19.56 252.056 19.784C251.624 20.008 251.088 20.12 250.448 20.12ZM250.448 18.932C250.872 18.932 251.2 18.8 251.432 18.536C251.664 18.264 251.792 17.868 251.816 17.348C251.824 17.228 251.828 17.072 251.828 16.88C251.828 16.688 251.824 16.532 251.816 16.412C251.792 15.9 251.664 15.508 251.432 15.236C251.2 14.964 250.872 14.828 250.448 14.828C250.024 14.828 249.696 14.964 249.464 15.236C249.232 15.508 249.104 15.9 249.08 16.412C249.072 16.532 249.068 16.688 249.068 16.88C249.068 17.072 249.072 17.228 249.08 17.348C249.104 17.868 249.232 18.264 249.464 18.536C249.696 18.8 250.024 18.932 250.448 18.932ZM255.228 20C255.148 20 255.08 19.972 255.024 19.916C254.968 19.86 254.94 19.792 254.94 19.712V14.06C254.94 13.972 254.968 13.9 255.024 13.844C255.08 13.788 255.148 13.76 255.228 13.76H256.2C256.28 13.76 256.348 13.788 256.404 13.844C256.468 13.9 256.5 13.972 256.5 14.06V14.552C256.684 14.296 256.92 14.1 257.208 13.964C257.504 13.828 257.844 13.76 258.228 13.76H258.72C258.808 13.76 258.876 13.788 258.924 13.844C258.98 13.9 259.008 13.968 259.008 14.048V14.912C259.008 14.992 258.98 15.06 258.924 15.116C258.876 15.172 258.808 15.2 258.72 15.2H257.784C257.4 15.2 257.1 15.308 256.884 15.524C256.676 15.74 256.572 16.036 256.572 16.412V19.712C256.572 19.792 256.544 19.86 256.488 19.916C256.432 19.972 256.36 20 256.272 20H255.228Z" fill="white" fill-opacity="0.72"/>
</svg>