<?xml version="1.0" encoding="UTF-8" standalone="no"?>
<!-- Created with Inkscape (http://www.inkscape.org/) -->

<svg
   width="64.000008mm"
   height="64mm"
   viewBox="0 0 64.000008 64"
   version="1.1"
   id="svg1992"
   inkscape:version="1.1 (c68e22c387, 2021-05-23)"
   sodipodi:docname="logrhythm-ciscoampbeat.svg"
   xmlns:inkscape="http://www.inkscape.org/namespaces/inkscape"
   xmlns:sodipodi="http://sodipodi.sourceforge.net/DTD/sodipodi-0.dtd"
   xmlns:xlink="http://www.w3.org/1999/xlink"
   xmlns="http://www.w3.org/2000/svg"
   xmlns:svg="http://www.w3.org/2000/svg">
  <sodipodi:namedview
     id="namedview1994"
     pagecolor="#505050"
     bordercolor="#eeeeee"
     borderopacity="1"
     inkscape:pageshadow="0"
     inkscape:pageopacity="0"
     inkscape:pagecheckerboard="0"
     inkscape:document-units="mm"
     showgrid="false"
     fit-margin-top="0"
     fit-margin-left="0"
     fit-margin-right="0"
     fit-margin-bottom="0"
     inkscape:zoom="2.1997092"
     inkscape:cx="-64.326685"
     inkscape:cy="226.62086"
     inkscape:window-width="3840"
     inkscape:window-height="2097"
     inkscape:window-x="1912"
     inkscape:window-y="1072"
     inkscape:window-maximized="1"
     inkscape:current-layer="layer1" />
  <defs
     id="defs1989">
    <path
       id="C"
       d="M30.345 28c0 .8-.552 1.333-1.379 1.333H17.931c-.828 0-1.379-.533-1.379-1.333v-8c0-.8.552-1.333 1.379-1.333H28.69c1.103 0 1.655.533 1.655 1.333v8z" />
  </defs>
  <g
     inkscape:label="Layer 1"
     inkscape:groupmode="layer"
     id="layer1">
    <rect
       style="fill:#ffffff;fill-opacity:1;stroke:none;stroke-width:1.93787;stroke-miterlimit:4;stroke-dasharray:none;stroke-opacity:1"
       id="rect2099"
       width="30.06213"
       height="30.062128"
       x="0.9689346"
       y="0.9689346"
       ry="3.3787844" />
    <rect
       style="fill:#ffffff;fill-opacity:1;stroke:none;stroke-width:2;stroke-miterlimit:4;stroke-dasharray:none;stroke-opacity:1"
       id="rect1030"
       width="45.328484"
       height="45.32848"
       x="17.671524"
       y="17.67152"
       ry="5.0946212" />
    <g
       id="g4864"
       transform="matrix(1.5052646,0,0,-1.5051067,13.024714,24.690805)">
      <path
         d="M 0,0 C 0,1.091 0.885,1.975 1.977,1.975 3.068,1.975 3.954,1.091 3.955,0 3.955,-1.095 3.068,-1.978 1.977,-1.978 0.885,-1.978 0,-1.093 0,0"
         style="fill:#007dc3;fill-opacity:1;fill-rule:nonzero;stroke:none"
         id="path4866"
         inkscape:connector-curvature="0" />
    </g>
    <g
       id="g4868"
       transform="matrix(1.5052646,0,0,-1.5051067,21.719104,15.999077)">
      <path
         d="M 0,0 C 0,1.09 0.885,1.977 1.977,1.977 3.069,1.977 3.954,1.09 3.954,0 3.955,-1.094 3.069,-1.98 1.976,-1.977 0.885,-1.98 0,-1.094 0,0"
         style="fill:#007dc3;fill-opacity:1;fill-rule:nonzero;stroke:none"
         id="path4870"
         inkscape:connector-curvature="0" />
    </g>
    <g
       id="g4872"
       transform="matrix(1.5052646,0,0,-1.5051067,4.3290876,24.690805)">
      <path
         d="M 0,0 C 0,1.091 0.886,1.975 1.979,1.975 3.07,1.975 3.956,1.091 3.956,0 3.956,-1.095 3.07,-1.98 1.979,-1.98 0.886,-1.98 0,-1.093 0,0"
         style="fill:#007dc3;fill-opacity:1;fill-rule:nonzero;stroke:none"
         id="path4874"
         inkscape:connector-curvature="0" />
    </g>
    <g
       id="g4876"
       transform="matrix(1.5052646,0,0,-1.5051067,13.023519,15.999077)">
      <path
         d="M 0,0 C 0,1.092 0.886,1.977 1.977,1.977 3.069,1.977 3.954,1.09 3.956,0 3.956,-1.094 3.069,-1.98 1.977,-1.98 0.886,-1.98 0.001,-1.094 0,0"
         style="fill:#002d56;fill-opacity:1;fill-rule:nonzero;stroke:none"
         id="path4878"
         inkscape:connector-curvature="0" />
    </g>
    <g
       id="g4880"
       transform="matrix(1.5052646,0,0,-1.5051067,21.719104,7.3076901)">
      <path
         d="M 0,0 C -0.001,1.092 0.884,1.979 1.976,1.979 3.068,1.978 3.954,1.092 3.954,-0.001 3.954,-1.092 3.068,-1.977 1.976,-1.977 0.884,-1.977 0,-1.092 0,0"
         style="fill:#007dc3;fill-opacity:1;fill-rule:nonzero;stroke:none"
         id="path4882"
         inkscape:connector-curvature="0" />
    </g>
    <g
       id="g4884"
       transform="matrix(1.5052646,0,0,-1.5051067,4.3307517,15.999077)">
      <path
         d="M 0,0 C 0,1.09 0.886,1.977 1.977,1.977 3.069,1.977 3.955,1.09 3.955,-0.001 3.955,-1.094 3.07,-1.98 1.977,-1.98 0.885,-1.98 0,-1.094 0,0"
         style="fill:#007dc3;fill-opacity:1;fill-rule:nonzero;stroke:none"
         id="path4886"
         inkscape:connector-curvature="0" />
    </g>
    <g
       id="g4888"
       transform="matrix(1.5052646,0,0,-1.5051067,13.024714,7.3076901)">
      <path
         d="m 0,0 c 0,1.091 0.885,1.978 1.977,1.978 1.093,0 1.978,-0.886 1.978,-1.979 0,-1.092 -0.887,-1.976 -1.978,-1.976 C 0.885,-1.977 0,-1.092 0,0"
         style="fill:#007dc3;fill-opacity:1;fill-rule:nonzero;stroke:none"
         id="path4890"
         inkscape:connector-curvature="0" />
    </g>
    <path
       id="rect2638"
       style="fill:none;fill-opacity:1;stroke:#cbcbcb;stroke-width:1.99904;stroke-miterlimit:4;stroke-dasharray:none;stroke-opacity:1"
       d="m 4.3764963,0.99951836 c -1.8709451,0 -3.37697794,1.50603274 -3.37697794,3.37697794 V 27.669793 c 0,1.870943 1.50603284,3.377493 3.37697794,3.377493 H 17.693813 v 26.861385 c 0,2.82106 2.271265,5.091811 5.092326,5.091811 h 35.122532 c 2.82106,0 5.091811,-2.270751 5.091811,-5.091811 V 22.786139 c 0,-2.821061 -2.270751,-5.092326 -5.091811,-5.092326 H 31.047286 V 4.3764963 c 0,-1.8709452 -1.50655,-3.37697794 -3.377493,-3.37697794 z" />
    <symbol
       id="A"
       overflow="visible"
       transform="matrix(0.41767611,0,0,0.41767611,23.419883,23.419877)"
       style="fill:#ffffff;fill-rule:evenodd;stroke:#000000;stroke-linecap:round;stroke-linejoin:round">
      <g
         fill="#b8d432"
         stroke="none"
         id="g8655">
        <path
           d="m 49.655,36 c 0,0.8 -0.552,1.333 -1.379,1.333 H 37.517 C 36.689,37.333 36.138,36.8 36.138,36 v -7.733 c 0,-0.8 0.552,-1.333 1.379,-1.333 h 10.759 c 0.828,0 1.379,0.533 1.379,1.333 z m 19.31,8 c 0,0.8 -0.552,1.333 -1.379,1.333 H 56.827 C 55.999,45.333 55.448,44.8 55.448,44 v -7.733 c 0,-0.8 0.552,-1.333 1.379,-1.333 h 10.759 c 0.828,0 1.379,0.533 1.379,1.333 z m -19.31,8 c 0,0.8 -0.552,1.333 -1.379,1.333 H 37.517 C 36.689,53.333 36.138,52.8 36.138,52 v -7.733 c 0,-0.8 0.552,-1.333 1.379,-1.333 h 10.759 c 0.828,0 1.379,0.533 1.379,1.333 z"
           id="path8651" />
        <use
           xlink:href="#C"
           id="use8653"
           x="0"
           y="0"
           width="100%"
           height="100%" />
      </g>
      <path
         d="M 78.621,0 V 0 H 70.345 9.379 4.138 1.379 C 0.552,0 0,0.533 0,1.333 v 16 c 0,0.8 0.552,1.333 1.379,1.333 h 8.276 c 0.828,0 1.379,-0.533 1.379,-1.333 v -6.667 h 57.931 v 6.667 c 0,0.8 0.552,1.333 1.655,1.333 h 8 c 0.828,0 1.379,-0.533 1.379,-1.333 v -8 -8 C 80,0.533 79.448,0 78.621,0 Z m 0,61.6 h -8 c -0.828,0 -1.379,0.533 -1.379,1.333 v 6.4 H 11.035 v -6.667 c 0,-0.8 -0.552,-1.333 -1.655,-1.333 h -8 c -0.828,0 -1.379,0.533 -1.379,1.6 V 78.666 C 0,79.466 0.552,80 1.379,80 h 2.759 5.517 60.966 7.724 0.276 C 79.449,80 80,79.467 80,78.667 V 62.933 C 80,62.133 79.448,61.6 78.621,61.6 Z"
         stroke="none"
         fill="#0072c6"
         id="path8657" />
      <g
         fill="#b8d432"
         id="g8663">
        <use
           xlink:href="#C"
           y="16"
           stroke="none"
           id="use8659"
           x="0"
           width="100%"
           height="100%" />
        <use
           xlink:href="#C"
           y="32"
           stroke="none"
           id="use8661"
           x="0"
           width="100%"
           height="100%" />
      </g>
    </symbol>
    <path
       style="fill:#cbcbcb;stroke:#cbcbcb;stroke-width:2;stroke-linecap:butt;stroke-linejoin:miter;stroke-opacity:1;stroke-miterlimit:4;stroke-dasharray:none;fill-opacity:1"
       d="M 17.693813,31.047285 31.047285,17.693813"
       id="path2730" />
    <path
       id="path53690"
       style="fill:#049fd9;fill-opacity:1;fill-rule:nonzero;stroke:none;stroke-width:0.181191"
       d="m 59.904301,31.740931 c 0,-0.468736 -0.381224,-0.848692 -0.849237,-0.848692 -0.469283,0 -0.850508,0.379956 -0.850508,0.848692 v 1.785271 c 0,0.471273 0.381225,0.851411 0.850508,0.851411 0.468013,0 0.849237,-0.380138 0.849237,-0.851411 z M 55.23195,29.397785 c 0,-0.468558 -0.380135,-0.849242 -0.859927,-0.849242 -0.469283,0 -0.84942,0.380684 -0.84942,0.849242 v 4.128417 c 0,0.471273 0.380137,0.851411 0.84942,0.851411 0.479792,0 0.859927,-0.380138 0.859927,-0.851411 z m -4.681953,-3.205618 c 0,-0.468741 -0.380135,-0.848875 -0.849237,-0.848875 -0.469283,0 -0.84942,0.380134 -0.84942,0.848875 v 9.030515 c 0,0.471456 0.380137,0.851415 0.84942,0.851415 0.469102,0 0.849237,-0.379959 0.849237,-0.851415 z m -4.68304,3.205618 c 0,-0.468558 -0.379956,-0.849242 -0.849238,-0.849242 -0.468195,0 -0.849419,0.380684 -0.849419,0.849242 v 4.128417 c 0,0.471273 0.381224,0.851411 0.849419,0.851411 0.469282,0 0.849238,-0.380138 0.849238,-0.851411 z m -4.681953,2.343146 c 0,-0.468736 -0.379956,-0.848692 -0.84652,-0.848692 -0.469282,0 -0.851956,0.379956 -0.851956,0.848692 v 1.785271 c 0,0.471273 0.382674,0.851411 0.851956,0.851411 0.466564,0 0.84652,-0.380138 0.84652,-0.851411 z m -4.674343,-2.343146 c 0,-0.468558 -0.382855,-0.849242 -0.851956,-0.849242 -0.469283,0 -0.852137,0.380684 -0.852137,0.849242 v 4.128417 c 0,0.471273 0.382854,0.851411 0.852137,0.851411 0.469101,0 0.851956,-0.380138 0.851956,-0.851411 z m -4.679779,-3.205618 c 0,-0.468741 -0.382855,-0.848875 -0.852137,-0.848875 -0.469101,0 -0.851956,0.380134 -0.851956,0.848875 v 9.030515 c 0,0.471456 0.382855,0.851415 0.851956,0.851415 0.469282,0 0.852137,-0.379959 0.852137,-0.851415 z m -4.679961,3.205618 c 0,-0.468558 -0.382673,-0.849242 -0.851955,-0.849242 -0.469283,0 -0.851956,0.380684 -0.851956,0.849242 v 4.128417 c 0,0.471273 0.382673,0.851411 0.851956,0.851411 0.469282,0 0.851955,-0.380138 0.851955,-0.851411 z m -4.679778,2.343146 c 0,-0.468736 -0.382674,-0.848692 -0.851956,-0.848692 -0.468739,0 -0.851956,0.379956 -0.851956,0.848692 v 1.785271 c 0,0.471273 0.383217,0.851411 0.851956,0.851411 0.469282,0 0.851956,-0.380138 0.851956,-0.851411 z m 17.589214,7.402525 c -0.05109,-0.01395 -0.837279,-0.216703 -1.672747,-0.216703 -1.58179,0 -2.534126,0.854132 -2.534126,2.126086 0,1.125912 0.796694,1.687422 1.752833,1.989465 0.105998,0.03495 0.262183,0.08389 0.366185,0.11832 0.425616,0.133898 0.765348,0.332845 0.765348,0.677468 0,0.38539 -0.392639,0.634893 -1.246225,0.634893 -0.750128,0 -1.469272,-0.214534 -1.620747,-0.252764 v 1.56494 c 0.08443,0.01792 0.939109,0.185719 1.852126,0.185719 1.313266,0 2.815514,-0.573829 2.815514,-2.282088 0,-0.828583 -0.507332,-1.591392 -1.621108,-1.945441 l -0.473451,-0.150748 c -0.282474,-0.08914 -0.786727,-0.233555 -0.786727,-0.647576 0,-0.327046 0.373615,-0.557339 1.061594,-0.557339 0.593579,0 1.315984,0.199493 1.341531,0.207464 z m 14.50264,3.305452 c 0,0.989479 -0.757918,1.789976 -1.774938,1.789976 -1.018108,0 -1.774034,-0.800497 -1.774034,-1.789976 0,-0.987487 0.755926,-1.788349 1.774034,-1.788349 1.01702,0 1.774938,0.800862 1.774938,1.788349 m -1.774938,-3.519981 c -2.09166,0 -3.591733,1.577623 -3.591733,3.519981 0,1.945436 1.500073,3.521972 3.591733,3.521972 2.091477,0 3.593724,-1.576536 3.593724,-3.521972 0,-1.942358 -1.502247,-3.519981 -3.593724,-3.519981 m -23.311018,0.2437 c -0.161259,-0.04785 -0.757375,-0.2437 -1.564759,-0.2437 -2.088397,0 -3.621447,1.48902 -3.621447,3.519981 0,2.191131 1.692316,3.521972 3.621447,3.521972 0.766435,0 1.351498,-0.18155 1.564759,-0.242067 v -1.825492 c -0.07374,0.04095 -0.634709,0.360933 -1.441731,0.360933 -1.143309,0 -1.880753,-0.804668 -1.880753,-1.815346 0,-1.041478 0.769333,-1.813891 1.880753,-1.813891 0.820793,0 1.372697,0.327045 1.441731,0.363102 z m 17.912457,0 c -0.162527,-0.04785 -0.759186,-0.2437 -1.563852,-0.2437 -2.091477,0 -3.624527,1.48902 -3.624527,3.519981 0,2.191131 1.694309,3.521972 3.624527,3.521972 0.762267,0 1.348235,-0.18155 1.563852,-0.242067 v -1.825492 c -0.07538,0.04095 -0.637064,0.360933 -1.443903,0.360933 -1.142405,0 -1.879123,-0.804668 -1.879123,-1.815346 0,-1.041478 0.769695,-1.813891 1.879123,-1.813891 0.820609,0 1.373783,0.327045 1.443903,0.363102 z m -13.837309,6.677222 h -1.716233 v -6.800432 h 1.716233 z" />
    <g
       aria-label="AMP"
       id="text30346"
       style="font-weight:900;font-size:14.6922px;line-height:1.25;font-family:Arial;-inkscape-font-specification:'Arial Heavy';stroke-width:0.367307">
      <path
         d="m 30.234878,57.710005 h -3.701746 l -0.509348,1.73609 H 22.702256 L 26.655089,48.92912 h 3.543919 l 3.952833,10.516975 h -3.40044 z M 29.553355,55.43587 28.391179,51.655211 27.236177,55.43587 Z"
         id="path36519" />
      <path
         d="m 35.156191,48.92912 h 4.275659 l 1.650003,6.399141 1.642829,-6.399141 h 4.261312 v 10.516975 h -2.654352 v -8.020449 l -2.058917,8.020449 H 39.86946 l -2.051743,-8.020449 v 8.020449 h -2.661526 z"
         id="path36521" />
      <path
         d="m 49.044911,48.92912 h 5.401966 q 1.764785,0 2.640004,0.839349 0.882393,0.839349 0.882393,2.388917 0,1.592612 -0.961306,2.489352 -0.954132,0.896741 -2.919788,0.896741 h -1.779133 v 3.902616 h -3.264136 z m 3.264136,4.483703 h 0.796305 q 0.939785,0 1.320003,-0.322827 0.380218,-0.33 0.380218,-0.839349 0,-0.495001 -0.330001,-0.839349 -0.33,-0.344349 -1.241089,-0.344349 h -0.925436 z"
         id="path36523" />
    </g>
  </g>
</svg>
