<?xml version="1.0" encoding="UTF-8" standalone="no"?>
<!-- Created with Inkscape (http://www.inkscape.org/) -->

<svg
   width="64.000008mm"
   height="64mm"
   viewBox="0 0 64.000008 64"
   version="1.1"
   id="svg1992"
   inkscape:version="1.1 (c68e22c387, 2021-05-23)"
   sodipodi:docname="logrhythm-eventhubbeat.svg"
   xmlns:inkscape="http://www.inkscape.org/namespaces/inkscape"
   xmlns:sodipodi="http://sodipodi.sourceforge.net/DTD/sodipodi-0.dtd"
   xmlns:xlink="http://www.w3.org/1999/xlink"
   xmlns="http://www.w3.org/2000/svg"
   xmlns:svg="http://www.w3.org/2000/svg">
  <sodipodi:namedview
     id="namedview1994"
     pagecolor="#505050"
     bordercolor="#eeeeee"
     borderopacity="1"
     inkscape:pageshadow="0"
     inkscape:pageopacity="0"
     inkscape:pagecheckerboard="0"
     inkscape:document-units="mm"
     showgrid="false"
     fit-margin-top="0"
     fit-margin-left="0"
     fit-margin-right="0"
     fit-margin-bottom="0"
     inkscape:zoom="4.3994184"
     inkscape:cx="218.55161"
     inkscape:cy="163.54434"
     inkscape:window-width="3840"
     inkscape:window-height="2097"
     inkscape:window-x="1912"
     inkscape:window-y="1072"
     inkscape:window-maximized="1"
     inkscape:current-layer="layer1" />
  <defs
     id="defs1989">
    <path
       id="C"
       d="M30.345 28c0 .8-.552 1.333-1.379 1.333H17.931c-.828 0-1.379-.533-1.379-1.333v-8c0-.8.552-1.333 1.379-1.333H28.69c1.103 0 1.655.533 1.655 1.333v8z" />
  </defs>
  <g
     inkscape:label="Layer 1"
     inkscape:groupmode="layer"
     id="layer1">
    <rect
       style="fill:#ffffff;fill-opacity:1;stroke:none;stroke-width:1.93787;stroke-miterlimit:4;stroke-dasharray:none;stroke-opacity:1"
       id="rect2099"
       width="30.06213"
       height="30.062128"
       x="0.9689346"
       y="0.9689346"
       ry="3.3787844" />
    <rect
       style="fill:#ffffff;fill-opacity:1;stroke:none;stroke-width:2;stroke-miterlimit:4;stroke-dasharray:none;stroke-opacity:1"
       id="rect1030"
       width="45.328484"
       height="45.32848"
       x="17.671524"
       y="17.67152"
       ry="5.0946212" />
    <g
       id="g4864"
       transform="matrix(1.5052646,0,0,-1.5051067,13.024714,24.690805)">
      <path
         d="M 0,0 C 0,1.091 0.885,1.975 1.977,1.975 3.068,1.975 3.954,1.091 3.955,0 3.955,-1.095 3.068,-1.978 1.977,-1.978 0.885,-1.978 0,-1.093 0,0"
         style="fill:#007dc3;fill-opacity:1;fill-rule:nonzero;stroke:none"
         id="path4866"
         inkscape:connector-curvature="0" />
    </g>
    <g
       id="g4868"
       transform="matrix(1.5052646,0,0,-1.5051067,21.719104,15.999077)">
      <path
         d="M 0,0 C 0,1.09 0.885,1.977 1.977,1.977 3.069,1.977 3.954,1.09 3.954,0 3.955,-1.094 3.069,-1.98 1.976,-1.977 0.885,-1.98 0,-1.094 0,0"
         style="fill:#007dc3;fill-opacity:1;fill-rule:nonzero;stroke:none"
         id="path4870"
         inkscape:connector-curvature="0" />
    </g>
    <g
       id="g4872"
       transform="matrix(1.5052646,0,0,-1.5051067,4.3290876,24.690805)">
      <path
         d="M 0,0 C 0,1.091 0.886,1.975 1.979,1.975 3.07,1.975 3.956,1.091 3.956,0 3.956,-1.095 3.07,-1.98 1.979,-1.98 0.886,-1.98 0,-1.093 0,0"
         style="fill:#007dc3;fill-opacity:1;fill-rule:nonzero;stroke:none"
         id="path4874"
         inkscape:connector-curvature="0" />
    </g>
    <g
       id="g4876"
       transform="matrix(1.5052646,0,0,-1.5051067,13.023519,15.999077)">
      <path
         d="M 0,0 C 0,1.092 0.886,1.977 1.977,1.977 3.069,1.977 3.954,1.09 3.956,0 3.956,-1.094 3.069,-1.98 1.977,-1.98 0.886,-1.98 0.001,-1.094 0,0"
         style="fill:#002d56;fill-opacity:1;fill-rule:nonzero;stroke:none"
         id="path4878"
         inkscape:connector-curvature="0" />
    </g>
    <g
       id="g4880"
       transform="matrix(1.5052646,0,0,-1.5051067,21.719104,7.3076901)">
      <path
         d="M 0,0 C -0.001,1.092 0.884,1.979 1.976,1.979 3.068,1.978 3.954,1.092 3.954,-0.001 3.954,-1.092 3.068,-1.977 1.976,-1.977 0.884,-1.977 0,-1.092 0,0"
         style="fill:#007dc3;fill-opacity:1;fill-rule:nonzero;stroke:none"
         id="path4882"
         inkscape:connector-curvature="0" />
    </g>
    <g
       id="g4884"
       transform="matrix(1.5052646,0,0,-1.5051067,4.3307517,15.999077)">
      <path
         d="M 0,0 C 0,1.09 0.886,1.977 1.977,1.977 3.069,1.977 3.955,1.09 3.955,-0.001 3.955,-1.094 3.07,-1.98 1.977,-1.98 0.885,-1.98 0,-1.094 0,0"
         style="fill:#007dc3;fill-opacity:1;fill-rule:nonzero;stroke:none"
         id="path4886"
         inkscape:connector-curvature="0" />
    </g>
    <g
       id="g4888"
       transform="matrix(1.5052646,0,0,-1.5051067,13.024714,7.3076901)">
      <path
         d="m 0,0 c 0,1.091 0.885,1.978 1.977,1.978 1.093,0 1.978,-0.886 1.978,-1.979 0,-1.092 -0.887,-1.976 -1.978,-1.976 C 0.885,-1.977 0,-1.092 0,0"
         style="fill:#007dc3;fill-opacity:1;fill-rule:nonzero;stroke:none"
         id="path4890"
         inkscape:connector-curvature="0" />
    </g>
    <path
       id="rect2638"
       style="fill:none;fill-opacity:1;stroke:#cbcbcb;stroke-width:1.99904;stroke-miterlimit:4;stroke-dasharray:none;stroke-opacity:1"
       d="m 4.3764963,0.99951836 c -1.8709451,0 -3.37697794,1.50603274 -3.37697794,3.37697794 V 27.669793 c 0,1.870943 1.50603284,3.377493 3.37697794,3.377493 H 17.693813 v 26.861385 c 0,2.82106 2.271265,5.091811 5.092326,5.091811 h 35.122532 c 2.82106,0 5.091811,-2.270751 5.091811,-5.091811 V 22.786139 c 0,-2.821061 -2.270751,-5.092326 -5.091811,-5.092326 H 31.047286 V 4.3764963 c 0,-1.8709452 -1.50655,-3.37697794 -3.377493,-3.37697794 z" />
    <path
       id="path9707"
       style="color:#000000;fill:#0072c6;fill-rule:nonzero;stroke:none;stroke-width:1.57862;stroke-linecap:butt;stroke-linejoin:miter;-inkscape-stroke:none;fill-opacity:1"
       d="M 117.61133 118.77344 C 116.30581 118.77344 115.43555 119.61406 115.43555 120.87695 L 115.43555 133.50586 C 115.43555 134.76875 116.30424 135.61133 117.61133 135.61133 L 135.03125 135.61133 C 136.33677 135.61133 137.20898 134.76875 137.20898 133.50586 L 137.20898 120.87695 C 137.20898 119.61406 136.33692 118.77344 134.5957 118.77344 L 117.61133 118.77344 z M 148.53125 131.82422 C 147.22573 131.82422 146.35352 132.66484 146.35352 133.92773 L 146.35352 146.13477 C 146.35352 147.39766 147.22415 148.24023 148.53125 148.24023 L 165.51562 148.24023 C 166.82114 148.24023 167.69141 147.39766 167.69141 146.13477 L 167.69141 133.92773 C 167.69141 132.66484 166.82272 131.82422 165.51562 131.82422 L 148.53125 131.82422 z M 117.61133 144.03125 C 116.30581 144.03125 115.43555 144.87187 115.43555 146.13477 L 115.43555 158.76367 C 115.43555 160.02657 116.30424 160.86914 117.61133 160.86914 L 135.03125 160.86914 C 136.33677 160.86914 137.20898 160.02657 137.20898 158.76367 L 137.20898 146.13477 C 137.20898 144.87187 136.33692 144.03125 134.5957 144.03125 L 117.61133 144.03125 z M 179.01367 144.45312 C 177.70816 144.45312 176.83594 145.29375 176.83594 146.55664 L 176.83594 158.76367 C 176.83594 160.02657 177.70658 160.86914 179.01367 160.86914 L 195.99805 160.86914 C 197.30356 160.86914 198.17578 160.02657 198.17578 158.76367 L 198.17578 146.55664 C 198.17578 145.29375 197.30514 144.45312 195.99805 144.45312 L 179.01367 144.45312 z M 148.53125 157.08203 C 147.22573 157.08203 146.35352 157.92265 146.35352 159.18555 L 146.35352 171.39258 C 146.35352 172.65547 147.22415 173.49805 148.53125 173.49805 L 165.51562 173.49805 C 166.82114 173.49805 167.69141 172.65547 167.69141 171.39258 L 167.69141 159.18555 C 167.69141 157.92265 166.82272 157.08203 165.51562 157.08203 L 148.53125 157.08203 z M 117.61133 169.28906 C 116.30581 169.28906 115.43555 170.12968 115.43555 171.39258 L 115.43555 184.02344 C 115.43555 185.28633 116.30424 186.12695 117.61133 186.12695 L 135.03125 186.12695 C 136.33677 186.12695 137.20898 185.28633 137.20898 184.02344 L 137.20898 171.39258 C 137.20898 170.12968 136.33692 169.28906 134.5957 169.28906 L 117.61133 169.28906 z "
       transform="scale(0.26458333)" />
    <path
       style="color:#000000;fill:#0072c6;fill-rule:nonzero;stroke:none;stroke-width:0.417676;stroke-linecap:butt;stroke-linejoin:miter;-inkscape-stroke:none"
       d="m 56.466834,23.628715 v 0 h -3.456687 -25.464042 -2.18904 -1.152369 c -0.345418,0 -0.575975,0.222621 -0.575975,0.556762 v 6.682818 c 0,0.334141 0.230557,0.556762 0.575975,0.556762 h 3.456688 c 0.345836,0 0.575975,-0.222621 0.575975,-0.556762 v -2.784647 h 24.196395 v 2.784647 c 0,0.334141 0.230557,0.556762 0.691254,0.556762 h 3.341409 c 0.345836,0 0.575975,-0.222621 0.575975,-0.556762 v -3.341409 -3.341409 c 4.18e-4,-0.334141 -0.230139,-0.556762 -0.575558,-0.556762 z m 0,25.728848 h -3.341408 c -0.345836,0 -0.575976,0.222622 -0.575976,0.556763 v 2.673127 H 28.237777 v -2.784647 c 0,-0.334141 -0.230557,-0.556762 -0.691254,-0.556762 h -3.341409 c -0.345836,0 -0.575975,0.222621 -0.575975,0.668282 v 6.571298 c -4.18e-4,0.334141 0.230139,0.55718 0.575557,0.55718 h 1.152369 2.304319 25.464042 3.22613 0.115278 c 0.345836,0 0.575976,-0.222622 0.575976,-0.556762 v -6.571716 c 0,-0.334141 -0.230557,-0.556763 -0.575976,-0.556763 z"
       id="path9713" />
    <symbol
       id="A"
       overflow="visible"
       transform="matrix(0.41767611,0,0,0.41767611,23.419883,23.419877)"
       style="fill:#ffffff;fill-rule:evenodd;stroke:#000000;stroke-linecap:round;stroke-linejoin:round">
      <g
         fill="#b8d432"
         stroke="none"
         id="g8655">
        <path
           d="m 49.655,36 c 0,0.8 -0.552,1.333 -1.379,1.333 H 37.517 C 36.689,37.333 36.138,36.8 36.138,36 v -7.733 c 0,-0.8 0.552,-1.333 1.379,-1.333 h 10.759 c 0.828,0 1.379,0.533 1.379,1.333 z m 19.31,8 c 0,0.8 -0.552,1.333 -1.379,1.333 H 56.827 C 55.999,45.333 55.448,44.8 55.448,44 v -7.733 c 0,-0.8 0.552,-1.333 1.379,-1.333 h 10.759 c 0.828,0 1.379,0.533 1.379,1.333 z m -19.31,8 c 0,0.8 -0.552,1.333 -1.379,1.333 H 37.517 C 36.689,53.333 36.138,52.8 36.138,52 v -7.733 c 0,-0.8 0.552,-1.333 1.379,-1.333 h 10.759 c 0.828,0 1.379,0.533 1.379,1.333 z"
           id="path8651" />
        <use
           xlink:href="#C"
           id="use8653"
           x="0"
           y="0"
           width="100%"
           height="100%" />
      </g>
      <path
         d="M 78.621,0 V 0 H 70.345 9.379 4.138 1.379 C 0.552,0 0,0.533 0,1.333 v 16 c 0,0.8 0.552,1.333 1.379,1.333 h 8.276 c 0.828,0 1.379,-0.533 1.379,-1.333 v -6.667 h 57.931 v 6.667 c 0,0.8 0.552,1.333 1.655,1.333 h 8 c 0.828,0 1.379,-0.533 1.379,-1.333 v -8 -8 C 80,0.533 79.448,0 78.621,0 Z m 0,61.6 h -8 c -0.828,0 -1.379,0.533 -1.379,1.333 v 6.4 H 11.035 v -6.667 c 0,-0.8 -0.552,-1.333 -1.655,-1.333 h -8 c -0.828,0 -1.379,0.533 -1.379,1.6 V 78.666 C 0,79.466 0.552,80 1.379,80 h 2.759 5.517 60.966 7.724 0.276 C 79.449,80 80,79.467 80,78.667 V 62.933 C 80,62.133 79.448,61.6 78.621,61.6 Z"
         stroke="none"
         fill="#0072c6"
         id="path8657" />
      <g
         fill="#b8d432"
         id="g8663">
        <use
           xlink:href="#C"
           y="16"
           stroke="none"
           id="use8659"
           x="0"
           width="100%"
           height="100%" />
        <use
           xlink:href="#C"
           y="32"
           stroke="none"
           id="use8661"
           x="0"
           width="100%"
           height="100%" />
      </g>
    </symbol>
    <path
       style="fill:#cbcbcb;stroke:#cbcbcb;stroke-width:2;stroke-linecap:butt;stroke-linejoin:miter;stroke-opacity:1;stroke-miterlimit:4;stroke-dasharray:none;fill-opacity:1"
       d="M 17.693813,31.047285 31.047285,17.693813"
       id="path2730" />
  </g>
</svg>
