<?xml version="1.0" encoding="UTF-8" standalone="no"?>
<!-- Created with Inkscape (http://www.inkscape.org/) -->

<svg
   width="64.000008mm"
   height="64mm"
   viewBox="0 0 64.000008 64"
   version="1.1"
   id="svg1992"
   inkscape:version="1.1 (c68e22c387, 2021-05-23)"
   sodipodi:docname="logrhythm-duobeat.svg"
   xmlns:inkscape="http://www.inkscape.org/namespaces/inkscape"
   xmlns:sodipodi="http://sodipodi.sourceforge.net/DTD/sodipodi-0.dtd"
   xmlns:xlink="http://www.w3.org/1999/xlink"
   xmlns="http://www.w3.org/2000/svg"
   xmlns:svg="http://www.w3.org/2000/svg">
  <sodipodi:namedview
     id="namedview1994"
     pagecolor="#505050"
     bordercolor="#eeeeee"
     borderopacity="1"
     inkscape:pageshadow="0"
     inkscape:pageopacity="0"
     inkscape:pagecheckerboard="0"
     inkscape:document-units="mm"
     showgrid="false"
     fit-margin-top="0"
     fit-margin-left="0"
     fit-margin-right="0"
     fit-margin-bottom="0"
     inkscape:zoom="3.1108586"
     inkscape:cx="169.24588"
     inkscape:cy="240.28736"
     inkscape:window-width="3840"
     inkscape:window-height="2097"
     inkscape:window-x="1912"
     inkscape:window-y="1072"
     inkscape:window-maximized="1"
     inkscape:current-layer="layer1" />
  <defs
     id="defs1989">
    <path
       id="C"
       d="M30.345 28c0 .8-.552 1.333-1.379 1.333H17.931c-.828 0-1.379-.533-1.379-1.333v-8c0-.8.552-1.333 1.379-1.333H28.69c1.103 0 1.655.533 1.655 1.333v8z" />
    <clipPath
       clipPathUnits="userSpaceOnUse"
       id="clipPath33844">
      <path
         d="M 0,0 H 1224 V 792 H 0 Z"
         id="path33842" />
    </clipPath>
    <clipPath
       clipPathUnits="userSpaceOnUse"
       id="clipPath33864">
      <path
         d="M 0,0 H 1224 V 792 H 0 Z"
         id="path33862" />
    </clipPath>
    <clipPath
       clipPathUnits="userSpaceOnUse"
       id="clipPath33872">
      <path
         d="m 905.447,739.356 h 50.239 v -22.564 h -50.239 z"
         id="path33870" />
    </clipPath>
    <clipPath
       clipPathUnits="userSpaceOnUse"
       id="clipPath33892">
      <path
         d="m 888.711,755.702 h 33.218 v -38.883 h -33.218 z"
         id="path33890" />
    </clipPath>
    <clipPath
       clipPathUnits="userSpaceOnUse"
       id="clipPath33912">
      <path
         d="m 837.85,739.356 h 50.266 V 716.792 H 837.85 Z"
         id="path33910" />
    </clipPath>
    <clipPath
       clipPathUnits="userSpaceOnUse"
       id="clipPath34208">
      <path
         d="M 0,0 H 1224 V 792 H 0 Z"
         id="path34206" />
    </clipPath>
    <clipPath
       clipPathUnits="userSpaceOnUse"
       id="clipPath34316">
      <path
         d="M 0,0 H 1224 V 792 H 0 Z"
         id="path34314" />
    </clipPath>
    <clipPath
       clipPathUnits="userSpaceOnUse"
       id="clipPath34338">
      <path
         d="M 0,0 H 1224 V 792 H 0 Z"
         id="path34336" />
    </clipPath>
    <clipPath
       clipPathUnits="userSpaceOnUse"
       id="clipPath34380">
      <path
         d="M 0,0 H 1224 V 792 H 0 Z"
         id="path34378" />
    </clipPath>
    <clipPath
       clipPathUnits="userSpaceOnUse"
       id="clipPath34442">
      <path
         d="M 0,0 H 1224 V 792 H 0 Z"
         id="path34440" />
    </clipPath>
    <clipPath
       clipPathUnits="userSpaceOnUse"
       id="clipPath34476">
      <path
         d="M 0,0 H 1224 V 792 H 0 Z"
         id="path34474" />
    </clipPath>
    <clipPath
       clipPathUnits="userSpaceOnUse"
       id="clipPath34536">
      <path
         d="M 0,0 H 1224 V 792 H 0 Z"
         id="path34534" />
    </clipPath>
    <clipPath
       clipPathUnits="userSpaceOnUse"
       id="clipPath34584">
      <path
         d="M 0,0 H 1224 V 792 H 0 Z"
         id="path34582" />
    </clipPath>
    <clipPath
       clipPathUnits="userSpaceOnUse"
       id="clipPath34620">
      <path
         d="M 0,0 H 1224 V 792 H 0 Z"
         id="path34618" />
    </clipPath>
    <clipPath
       clipPathUnits="userSpaceOnUse"
       id="clipPath34656">
      <path
         d="M 0,0 H 1224 V 792 H 0 Z"
         id="path34654" />
    </clipPath>
  </defs>
  <g
     inkscape:label="Layer 1"
     inkscape:groupmode="layer"
     id="layer1">
    <rect
       style="fill:#ffffff;fill-opacity:1;stroke:none;stroke-width:1.93787;stroke-miterlimit:4;stroke-dasharray:none;stroke-opacity:1"
       id="rect2099"
       width="30.06213"
       height="30.062128"
       x="0.9689346"
       y="0.9689346"
       ry="3.3787844" />
    <rect
       style="fill:#ffffff;fill-opacity:1;stroke:none;stroke-width:2;stroke-miterlimit:4;stroke-dasharray:none;stroke-opacity:1"
       id="rect1030"
       width="45.328484"
       height="45.32848"
       x="17.671524"
       y="17.67152"
       ry="5.0946212" />
    <g
       id="g4864"
       transform="matrix(1.5052646,0,0,-1.5051067,13.024714,24.690805)">
      <path
         d="M 0,0 C 0,1.091 0.885,1.975 1.977,1.975 3.068,1.975 3.954,1.091 3.955,0 3.955,-1.095 3.068,-1.978 1.977,-1.978 0.885,-1.978 0,-1.093 0,0"
         style="fill:#007dc3;fill-opacity:1;fill-rule:nonzero;stroke:none"
         id="path4866"
         inkscape:connector-curvature="0" />
    </g>
    <g
       id="g4868"
       transform="matrix(1.5052646,0,0,-1.5051067,21.719104,15.999077)">
      <path
         d="M 0,0 C 0,1.09 0.885,1.977 1.977,1.977 3.069,1.977 3.954,1.09 3.954,0 3.955,-1.094 3.069,-1.98 1.976,-1.977 0.885,-1.98 0,-1.094 0,0"
         style="fill:#007dc3;fill-opacity:1;fill-rule:nonzero;stroke:none"
         id="path4870"
         inkscape:connector-curvature="0" />
    </g>
    <g
       id="g4872"
       transform="matrix(1.5052646,0,0,-1.5051067,4.3290876,24.690805)">
      <path
         d="M 0,0 C 0,1.091 0.886,1.975 1.979,1.975 3.07,1.975 3.956,1.091 3.956,0 3.956,-1.095 3.07,-1.98 1.979,-1.98 0.886,-1.98 0,-1.093 0,0"
         style="fill:#007dc3;fill-opacity:1;fill-rule:nonzero;stroke:none"
         id="path4874"
         inkscape:connector-curvature="0" />
    </g>
    <g
       id="g4876"
       transform="matrix(1.5052646,0,0,-1.5051067,13.023519,15.999077)">
      <path
         d="M 0,0 C 0,1.092 0.886,1.977 1.977,1.977 3.069,1.977 3.954,1.09 3.956,0 3.956,-1.094 3.069,-1.98 1.977,-1.98 0.886,-1.98 0.001,-1.094 0,0"
         style="fill:#002d56;fill-opacity:1;fill-rule:nonzero;stroke:none"
         id="path4878"
         inkscape:connector-curvature="0" />
    </g>
    <g
       id="g4880"
       transform="matrix(1.5052646,0,0,-1.5051067,21.719104,7.3076901)">
      <path
         d="M 0,0 C -0.001,1.092 0.884,1.979 1.976,1.979 3.068,1.978 3.954,1.092 3.954,-0.001 3.954,-1.092 3.068,-1.977 1.976,-1.977 0.884,-1.977 0,-1.092 0,0"
         style="fill:#007dc3;fill-opacity:1;fill-rule:nonzero;stroke:none"
         id="path4882"
         inkscape:connector-curvature="0" />
    </g>
    <g
       id="g4884"
       transform="matrix(1.5052646,0,0,-1.5051067,4.3307517,15.999077)">
      <path
         d="M 0,0 C 0,1.09 0.886,1.977 1.977,1.977 3.069,1.977 3.955,1.09 3.955,-0.001 3.955,-1.094 3.07,-1.98 1.977,-1.98 0.885,-1.98 0,-1.094 0,0"
         style="fill:#007dc3;fill-opacity:1;fill-rule:nonzero;stroke:none"
         id="path4886"
         inkscape:connector-curvature="0" />
    </g>
    <g
       id="g4888"
       transform="matrix(1.5052646,0,0,-1.5051067,13.024714,7.3076901)">
      <path
         d="m 0,0 c 0,1.091 0.885,1.978 1.977,1.978 1.093,0 1.978,-0.886 1.978,-1.979 0,-1.092 -0.887,-1.976 -1.978,-1.976 C 0.885,-1.977 0,-1.092 0,0"
         style="fill:#007dc3;fill-opacity:1;fill-rule:nonzero;stroke:none"
         id="path4890"
         inkscape:connector-curvature="0" />
    </g>
    <path
       id="rect2638"
       style="fill:none;fill-opacity:1;stroke:#cbcbcb;stroke-width:1.99904;stroke-miterlimit:4;stroke-dasharray:none;stroke-opacity:1"
       d="m 4.3764963,0.99951836 c -1.8709451,0 -3.37697794,1.50603274 -3.37697794,3.37697794 V 27.669793 c 0,1.870943 1.50603284,3.377493 3.37697794,3.377493 H 17.693813 v 26.861385 c 0,2.82106 2.271265,5.091811 5.092326,5.091811 h 35.122532 c 2.82106,0 5.091811,-2.270751 5.091811,-5.091811 V 22.786139 c 0,-2.821061 -2.270751,-5.092326 -5.091811,-5.092326 H 31.047286 V 4.3764963 c 0,-1.8709452 -1.50655,-3.37697794 -3.377493,-3.37697794 z" />
    <symbol
       id="A"
       overflow="visible"
       transform="matrix(0.41767611,0,0,0.41767611,23.419883,23.419877)"
       style="fill:#ffffff;fill-rule:evenodd;stroke:#000000;stroke-linecap:round;stroke-linejoin:round">
      <g
         fill="#b8d432"
         stroke="none"
         id="g8655">
        <path
           d="m 49.655,36 c 0,0.8 -0.552,1.333 -1.379,1.333 H 37.517 C 36.689,37.333 36.138,36.8 36.138,36 v -7.733 c 0,-0.8 0.552,-1.333 1.379,-1.333 h 10.759 c 0.828,0 1.379,0.533 1.379,1.333 z m 19.31,8 c 0,0.8 -0.552,1.333 -1.379,1.333 H 56.827 C 55.999,45.333 55.448,44.8 55.448,44 v -7.733 c 0,-0.8 0.552,-1.333 1.379,-1.333 h 10.759 c 0.828,0 1.379,0.533 1.379,1.333 z m -19.31,8 c 0,0.8 -0.552,1.333 -1.379,1.333 H 37.517 C 36.689,53.333 36.138,52.8 36.138,52 v -7.733 c 0,-0.8 0.552,-1.333 1.379,-1.333 h 10.759 c 0.828,0 1.379,0.533 1.379,1.333 z"
           id="path8651" />
        <use
           xlink:href="#C"
           id="use8653"
           x="0"
           y="0"
           width="100%"
           height="100%" />
      </g>
      <path
         d="M 78.621,0 V 0 H 70.345 9.379 4.138 1.379 C 0.552,0 0,0.533 0,1.333 v 16 c 0,0.8 0.552,1.333 1.379,1.333 h 8.276 c 0.828,0 1.379,-0.533 1.379,-1.333 v -6.667 h 57.931 v 6.667 c 0,0.8 0.552,1.333 1.655,1.333 h 8 c 0.828,0 1.379,-0.533 1.379,-1.333 v -8 -8 C 80,0.533 79.448,0 78.621,0 Z m 0,61.6 h -8 c -0.828,0 -1.379,0.533 -1.379,1.333 v 6.4 H 11.035 v -6.667 c 0,-0.8 -0.552,-1.333 -1.655,-1.333 h -8 c -0.828,0 -1.379,0.533 -1.379,1.6 V 78.666 C 0,79.466 0.552,80 1.379,80 h 2.759 5.517 60.966 7.724 0.276 C 79.449,80 80,79.467 80,78.667 V 62.933 C 80,62.133 79.448,61.6 78.621,61.6 Z"
         stroke="none"
         fill="#0072c6"
         id="path8657" />
      <g
         fill="#b8d432"
         id="g8663">
        <use
           xlink:href="#C"
           y="16"
           stroke="none"
           id="use8659"
           x="0"
           width="100%"
           height="100%" />
        <use
           xlink:href="#C"
           y="32"
           stroke="none"
           id="use8661"
           x="0"
           width="100%"
           height="100%" />
      </g>
    </symbol>
    <path
       style="fill:#cbcbcb;stroke:#cbcbcb;stroke-width:2;stroke-linecap:butt;stroke-linejoin:miter;stroke-opacity:1;stroke-miterlimit:4;stroke-dasharray:none;fill-opacity:1"
       d="M 17.693813,31.047285 31.047285,17.693813"
       id="path2730" />
    <g
       id="g36317"
       transform="matrix(1.198017,0,0,1.198017,-86.752411,-28.182197)">
      <g
         id="g33866"
         transform="matrix(0.35277777,0,0,-0.35277777,-210.27763,315.86607)">
        <g
           id="g33868" />
        <g
           id="g33880">
          <g
             clip-path="url(#clipPath33872)"
             opacity="0.850006"
             id="g33878">
            <g
               transform="translate(946.6863,732.356)"
               id="g33876">
              <path
                 d="m 0,0 h -32.239 c 0.484,-8.122 7.515,-14.564 16.118,-14.564 8.604,0 15.637,6.442 16.121,14.564"
                 style="fill:#6dbe4f;fill-opacity:1;fill-rule:nonzero;stroke:none"
                 id="path33874" />
            </g>
          </g>
        </g>
      </g>
      <g
         id="g33882"
         transform="matrix(0.35277777,0,0,-0.35277777,118.00516,51.740612)">
        <path
           d="M 0,0 C -8.603,0 -15.634,-6.444 -16.118,-14.564 H 16.121 C 15.637,-6.444 8.604,0 0,0"
           style="fill:#6dbe4f;fill-opacity:1;fill-rule:nonzero;stroke:none"
           id="path33884" />
      </g>
      <g
         id="g33886"
         transform="matrix(0.35277777,0,0,-0.35277777,-210.27763,315.86607)">
        <g
           id="g33888" />
        <g
           id="g33900">
          <g
             clip-path="url(#clipPath33892)"
             opacity="0.850006"
             id="g33898">
            <g
               transform="translate(912.9287,748.7021)"
               id="g33896">
              <path
                 d="m 0,0 h -15.217 v -16.346 -14.537 h 15.188 v 14.537 C -0.011,-16.051 0,-15.754 0,-15.455 Z"
                 style="fill:#6dbe4f;fill-opacity:1;fill-rule:nonzero;stroke:none"
                 id="path33894" />
            </g>
          </g>
        </g>
      </g>
      <g
         id="g33902"
         transform="matrix(0.35277777,0,0,-0.35277777,100.39029,51.740612)">
        <path
           d="M 0,0 V -15.455 C 0,-23.69 6.733,-30.422 15.218,-30.883 V 0 Z"
           style="fill:#6dbe4f;fill-opacity:1;fill-rule:nonzero;stroke:none"
           id="path33904" />
      </g>
      <g
         id="g33906"
         transform="matrix(0.35277777,0,0,-0.35277777,-210.27763,315.86607)">
        <g
           id="g33908" />
        <g
           id="g33920">
          <g
             clip-path="url(#clipPath33912)"
             opacity="0.850006"
             id="g33918">
            <g
               transform="translate(879.1162,732.356)"
               id="g33916">
              <path
                 d="m 0,0 h -32.267 v -14.564 h 16.148 C -7.514,-14.564 -0.483,-8.122 0,0"
                 style="fill:#6dbe4f;fill-opacity:1;fill-rule:nonzero;stroke:none"
                 id="path33914" />
            </g>
          </g>
        </g>
      </g>
      <g
         id="g33922"
         transform="matrix(0.35277777,0,0,-0.35277777,94.168562,51.740612)">
        <path
           d="M 0,0 H -16.147 V -14.564 H 16.119 C 15.636,-6.444 8.605,0 0,0"
           style="fill:#6dbe4f;fill-opacity:1;fill-rule:nonzero;stroke:none"
           id="path33924" />
      </g>
    </g>
  </g>
</svg>
