<?xml version="1.0" encoding="UTF-8" standalone="no"?>
<!-- Created with Inkscape (http://www.inkscape.org/) -->

<svg
   width="79.999847mm"
   height="79.999901mm"
   viewBox="0 0 79.999847 79.999901"
   version="1.1"
   id="svg28173"
   inkscape:version="1.1 (c68e22c387, 2021-05-23)"
   sodipodi:docname="EZ_logo_White.svg"
   xmlns:inkscape="http://www.inkscape.org/namespaces/inkscape"
   xmlns:sodipodi="http://sodipodi.sourceforge.net/DTD/sodipodi-0.dtd"
   xmlns="http://www.w3.org/2000/svg"
   xmlns:svg="http://www.w3.org/2000/svg">
  <sodipodi:namedview
     id="namedview28175"
     pagecolor="#505050"
     bordercolor="#eeeeee"
     borderopacity="1"
     inkscape:pageshadow="0"
     inkscape:pageopacity="0"
     inkscape:pagecheckerboard="0"
     inkscape:document-units="mm"
     showgrid="false"
     inkscape:zoom="2.6832492"
     inkscape:cx="266.0953"
     inkscape:cy="10.248769"
     inkscape:window-width="3840"
     inkscape:window-height="2097"
     inkscape:window-x="1912"
     inkscape:window-y="-8"
     inkscape:window-maximized="1"
     inkscape:current-layer="layer1" />
  <defs
     id="defs28170" />
  <g
     inkscape:label="Layer 1"
     inkscape:groupmode="layer"
     id="layer1"
     transform="translate(-14.82478,-341.012)">
    <path
       id="path27654"
       style="fill:#ffffff;stroke:none"
       d="m 20.79144,341.012 c -3.2836,0 -5.96666,2.68305 -5.96666,5.96665 v 68.06615 c 0,3.2836 2.68306,5.96665 5.96666,5.96665 h 5.4394 c -1.19086,-0.68084 -2.29758,-1.5272 -3.29022,-2.51631 h -2.14918 c -1.93351,0 -3.45035,-1.51694 -3.45035,-3.45034 v -68.06615 c 0,-1.93343 1.51684,-3.45034 3.45035,-3.45034 H 88.8576 c 1.9335,0 3.45034,1.51691 3.45034,3.45034 v 51.39883 c 0.9783,0.91211 1.82693,1.98336 2.51632,3.17385 v -54.57268 c 0,-3.2836 -2.68303,-5.96665 -5.96666,-5.96665 z m 2.11726,8.38205 0.0263,2.60591 c 0,1.85568 -0.1046,5.63593 -0.31459,11.34117 -0.1925,5.68552 -0.39399,10.2459 -0.60397,13.6809 -0.1925,3.43497 -0.50738,7.69888 -0.94484,12.79216 l 3.72734,-0.0293 11.54921,-0.0299 c 5.09222,0 9.77311,0.0197 14.04287,0.0592 0.13999,-3.11912 0.31522,-6.13949 0.5252,-9.06121 -1.8899,0.1382 -3.23752,0.21713 -4.04248,0.23685 l -5.43324,0.14829 c -2.79984,0.0593 -4.64579,0.0886 -5.53826,0.0886 H 32.8834 l 0.31512,-7.19571 c 2.99232,-0.1382 5.69583,-0.207 8.1107,-0.207 1.6274,0 3.95472,0.0197 6.98205,0.0592 0.15749,-3.49421 0.32394,-6.50495 0.49892,-9.03186 -4.23475,0.13819 -6.84241,0.20753 -7.82235,0.20753 -2.74735,0 -5.15349,-0.0299 -7.21839,-0.0891 l 0.31512,-6.78124 c 1.87239,-0.0789 3.24632,-0.11842 4.12125,-0.11842 0.89247,-0.0197 2.59825,-0.0293 5.11812,-0.0293 2.29238,0 5.12729,0.0789 8.50461,0.23684 0,-0.71068 0.0175,-1.41138 0.0525,-2.10232 l 0.15755,-3.2279 c 0.07,-1.48062 0.11381,-2.33968 0.13131,-2.57657 l 0.0525,-0.97677 c -4.12977,0.0394 -8.89826,0.0592 -14.30548,0.0592 -5.86215,0 -10.85844,-0.0197 -14.98821,-0.0592 z m 34.6744,0 c 0.035,0.80938 0.0525,1.4509 0.0525,1.9247 0,2.48741 -0.0788,4.79692 -0.23634,6.92899 3.07981,-0.21714 6.00235,-0.32542 8.76721,-0.32542 h 3.64857 l 2.07349,0.0294 2.07402,0.0299 c -1.34741,1.7767 -2.52859,3.30661 -3.54354,4.58981 l -8.71467,10.63061 c -3.02733,3.69164 -4.64604,5.65562 -4.85602,5.89252 l -1.54881,1.7177 c 0,1.93466 -0.10514,4.93529 -0.31515,9.00199 l 3.43904,-0.0293 6.77197,-0.0299 h 5.98466 c 4.54976,0 9.61559,0.0197 15.1978,0.0592 0.07,-2.54663 0.20141,-5.57659 0.39389,-9.09055 -1.36491,0.079 -2.31883,0.12803 -2.86129,0.14776 l -7.24466,0.17767 c -1.6274,0.0197 -2.86988,0.0298 -3.72734,0.0298 l -3.59608,-0.0298 16.43201,-20.28398 c 0.24499,-0.29611 0.48977,-0.58246 0.73476,-0.85885 l 1.4963,-1.62863 0.10503,-3.96831 c 0.035,-1.20423 0.11334,-2.8424 0.23585,-4.91525 -4.18229,0.0394 -9.16052,0.0592 -14.93521,0.0592 -5.58218,0 -10.85829,-0.0197 -15.82801,-0.0592 z m -6.35284,23.91916 c -0.42526,0.004 -0.85192,0.028 -1.27902,0.0695 -0.009,0.2017 -0.019,0.38862 -0.0283,0.59366 a 1.6347416,1.8442179 0 0 1 -1.65076,1.75068 c -1.94904,-0.0254 -3.49844,-0.0396 -4.86324,-0.0489 -1.51255,0.97256 -2.8638,2.21169 -4.00745,3.65477 0.64557,-0.0122 1.19545,-0.0211 1.99781,-0.0381 l 5.43425,-0.14882 a 1.6347416,1.8442179 0 0 1 0.006,0 c 0.74889,-0.0183 2.09,-0.0957 3.97041,-0.23325 a 1.6347416,1.8442179 0 0 1 1.73521,1.98805 c -0.20851,2.90147 -0.38134,5.90396 -0.52057,9.0061 a 1.6347416,1.8442179 0 0 1 -1.64512,1.75065 c -4.26459,-0.0394 -8.94321,-0.0598 -14.03153,-0.0598 l -6.51193,0.0175 c -2.8285,0.85885 -5.38591,2.7552 -7.24001,5.43992 -2.93179,4.47309 -3.46503,10.33817 -1.42164,15.30849 2.1322,4.97019 6.57432,8.25012 11.46063,8.54834 v 0.0999 h 51.52862 c 5.86357,0 10.66104,-5.36803 10.66101,-11.92867 0,-6.56074 -4.70886,-12.02805 -10.57243,-12.02805 h -0.88822 c 0,-1.89254 -0.32529,-3.72318 -0.92218,-5.41984 -4.01541,-0.0226 -7.83396,-0.0376 -11.26137,-0.0376 h -5.98211 l -6.7663,0.0309 -3.43387,0.0288 a 1.6347416,1.8442179 0 0 1 -1.64512,-1.95095 c 0.20908,-4.04921 0.31153,-7.0338 0.31153,-8.89438 a 1.6347416,1.8442179 0 0 1 0.48914,-1.31453 l 1.53904,-1.70742 c -0.008,0.009 0.52248,-0.62167 1.33,-1.60184 0.23461,-0.28477 0.7171,-0.87376 1.01126,-1.23165 -1.98848,-1.02137 -4.16004,-1.59007 -6.37858,-1.64097 h -5.3e-4 c -0.14138,-0.003 -0.28303,-0.004 -0.42478,-0.003 z m -16.12462,26.87364 h 5.3e-4 c 0.99686,5e-5 2.22922,0.1443 3.6975,0.43303 l 0.0206,0.95771 c 0.0134,0.41799 0.0338,0.87786 0.0608,1.37941 l 0.0706,1.29961 c -0.78815,-0.21277 -1.42781,-0.35756 -1.91956,-0.43353 -0.48503,-0.076 -0.93654,-0.11381 -1.35418,-0.11381 -0.90942,0 -1.72804,0.20494 -2.45557,0.6153 -0.72754,0.4104 -1.30006,1.00704 -1.7177,1.78981 -0.41767,0.78274 -0.62612,1.64926 -0.62612,2.59922 0,0.86631 0.17489,1.61098 0.5252,2.23415 0.35028,0.61554 0.82162,1.09458 1.41442,1.43655 0.59957,0.33439 1.33731,0.50151 2.21306,0.50151 0.47825,0 0.99688,-0.0421 1.55601,-0.12562 0.56586,-0.0912 1.27312,-0.2621 2.1219,-0.51284 -0.0808,0.44836 -0.17845,1.07538 -0.29297,1.88092 -0.11452,0.79795 -0.19182,1.417 -0.2322,1.85776 -1.44161,0.23558 -2.72851,0.35374 -3.86022,0.35374 -1.09126,0 -2.10823,-0.15222 -3.05129,-0.45621 -0.93638,-0.31159 -1.79874,-0.8167 -2.58686,-1.51587 -0.78144,-0.70676 -1.34023,-1.53548 -1.67704,-2.48541 -0.33682,-0.94993 -0.50562,-2.01344 -0.50562,-3.19135 0,-1.37551 0.22575,-2.61088 0.67708,-3.70522 0.45806,-1.10189 1.11143,-2.01743 1.96024,-2.74699 0.8555,-0.73716 1.79209,-1.26144 2.80928,-1.57302 1.01703,-0.31912 2.06783,-0.4788 3.15221,-0.47885 z m 6.08252,0.29658 c 0.93636,0.0153 1.64059,0.0226 2.11212,0.0226 0.61301,0 1.28977,-0.007 2.03078,-0.0226 l -0.23223,3.49925 -0.37382,8.61788 -0.0808,3.44262 c -0.72079,-0.0152 -1.37114,-0.0226 -1.95046,-0.0226 l -2.19244,0.0113 0.18177,-2.45093 0.39389,-8.51539 z m 40.78163,0 c 0.82856,0.0153 1.50585,0.0226 2.03126,0.0226 0.68035,0 1.36732,-0.007 2.06116,-0.0226 -0.19535,2.25706 -0.36721,5.01152 -0.51542,8.26414 -0.14819,3.25261 -0.22192,5.68453 -0.22192,7.29561 -0.72076,-0.0152 -1.32026,-0.0226 -1.79853,-0.0226 -0.53891,0 -1.19282,0.007 -1.96074,0.0226 l 0.0607,-1.44789 c -0.26273,0.28877 -0.49154,0.52456 -0.68686,0.70694 -0.19535,0.17481 -0.44806,0.34567 -0.75793,0.51286 -0.30315,0.16714 -0.63313,0.29651 -0.99017,0.38773 -0.35028,0.0912 -0.71435,0.13695 -1.09158,0.13695 -0.64668,0 -1.25279,-0.13306 -1.81864,-0.39905 -0.55913,-0.26598 -1.03756,-0.64229 -1.43501,-1.12866 -0.39745,-0.49398 -0.69387,-1.07517 -0.88925,-1.74398 -0.19537,-0.67633 -0.29297,-1.37574 -0.29297,-2.0977 0,-1.02593 0.17848,-2.02869 0.53551,-3.00908 0.35701,-0.98033 0.82226,-1.75209 1.39486,-2.31447 0.57933,-0.56232 1.22912,-0.95731 1.94993,-1.1853 0.72749,-0.2356 1.5126,-0.35321 2.35463,-0.35321 0.55913,0 1.21251,0.0569 1.96021,0.17094 0.0539,-0.90433 0.0905,-2.16954 0.11072,-3.79583 z m -29.03006,3.62489 c 0.83531,0 1.63716,0.14426 2.40509,0.43304 0.7747,0.28878 1.42807,0.70663 1.96023,1.25377 0.53214,0.53959 0.92268,1.174 1.17191,1.90357 0.25599,0.72195 0.38411,1.50122 0.38411,2.33715 0,0.81313 -0.11439,1.58813 -0.34343,2.32529 -0.22229,0.72957 -0.60315,1.41724 -1.14204,2.06321 -0.53891,0.63834 -1.22585,1.11739 -2.06115,1.43656 -0.82856,0.31918 -1.70771,0.47886 -2.63732,0.47886 -0.8555,0 -1.67718,-0.14052 -2.46535,-0.4217 -0.78814,-0.28119 -1.44864,-0.69158 -1.9808,-1.23112 -0.52544,-0.5396 -0.92254,-1.18575 -1.192,-1.9381 -0.26273,-0.75234 -0.39441,-1.54275 -0.39441,-2.3711 0,-0.82837 0.12812,-1.61876 0.3841,-2.37112 0.26274,-0.75235 0.67357,-1.42885 1.23268,-2.02923 0.56585,-0.60034 1.26296,-1.05972 2.09152,-1.37889 0.82856,-0.3268 1.69092,-0.49019 2.58686,-0.49019 z m 7.89186,0.29608 c 0.83531,0.0151 1.54563,0.0231 2.1317,0.0231 0.5928,0 1.24618,-0.008 1.96021,-0.0231 l -0.31305,4.34317 c -0.0471,0.66116 -0.0742,1.11355 -0.0808,1.35675 v 0.47888 c 0,0.79793 0.14135,1.33712 0.42425,1.61831 0.28968,0.28119 0.6334,0.4217 1.03085,0.4217 0.16168,0 0.32334,-0.0266 0.48502,-0.0798 0.16166,-0.0532 0.31678,-0.12879 0.46496,-0.22759 0.12799,-0.0912 0.24597,-0.20508 0.35374,-0.3419 0.11452,-0.14437 0.2152,-0.31949 0.30278,-0.52468 0.10774,-0.25078 0.18862,-0.52063 0.24251,-0.80942 0.0741,-0.40277 0.13155,-0.91163 0.17196,-1.5272 0.0269,-0.44834 0.0641,-1.22387 0.11123,-2.32578 l 0.0808,-2.38244 c 0.869,0.0151 1.58288,0.0231 2.14198,0.0231 0.62652,0 1.25648,-0.008 1.88969,-0.0231 -0.15493,1.93024 -0.27649,3.76552 -0.36404,5.5058 -0.0876,1.7403 -0.15467,3.78474 -0.20184,6.13298 -0.76792,-0.0152 -1.40809,-0.0226 -1.92006,-0.0226 -0.63321,0 -1.26979,0.007 -1.90975,0.0226 l -0.01,-1.56168 c -0.24251,0.34198 -0.44793,0.60065 -0.61634,0.77544 -0.16841,0.1672 -0.354,0.31517 -0.5561,0.44434 -0.19535,0.1292 -0.41753,0.24309 -0.66679,0.3419 -0.24252,0.0912 -0.52523,0.16358 -0.84855,0.21679 -0.31661,0.0532 -0.64001,0.0798 -0.97007,0.0798 -0.53219,0 -1.03759,-0.0723 -1.51587,-0.21679 -0.47155,-0.13679 -0.88898,-0.37256 -1.25276,-0.70694 -0.35701,-0.33438 -0.60313,-0.71391 -0.73784,-1.13949 -0.128,-0.42557 -0.19206,-0.91951 -0.19206,-1.48187 0,-0.13681 0.0102,-0.34969 0.0304,-0.63846 l 0.16169,-2.58792 c 0.0471,-0.9499 0.0909,-2.00223 0.13128,-3.15734 0.027,-0.70676 0.0407,-1.37582 0.0407,-2.00656 z m 19.87516,2.70167 c -0.65343,0 -1.20919,0.14475 -1.66727,0.43354 -0.45805,0.28121 -0.81145,0.72563 -1.06068,1.33359 -0.24251,0.60036 -0.36405,1.19276 -0.36405,1.77796 0,0.44073 0.0677,0.83995 0.20236,1.19714 0.14147,0.34957 0.3535,0.62689 0.63643,0.83206 0.28962,0.20521 0.61001,0.30793 0.96029,0.30793 0.37048,0 0.70708,-0.11767 1.01023,-0.35321 0.30987,-0.23564 0.55902,-0.58157 0.74762,-1.03755 0.19541,-0.45597 0.32656,-0.99567 0.39392,-1.61883 0.0741,-0.63076 0.12491,-1.54255 0.15188,-2.73568 -0.35704,-0.0912 -0.69414,-0.13695 -1.01073,-0.13695 z m -27.83757,0.35374 c -0.43111,0 -0.815,0.12508 -1.15182,0.37588 -0.33681,0.25076 -0.59308,0.61963 -0.76824,1.106 -0.1684,0.47878 -0.25229,1.00305 -0.25229,1.57301 0,0.83595 0.18507,1.47791 0.55557,1.92624 0.37051,0.44081 0.8352,0.66112 1.39436,0.66112 0.42436,0 0.80523,-0.12509 1.14204,-0.37585 0.33681,-0.25839 0.589,-0.63472 0.75741,-1.12868 0.17515,-0.50155 0.26312,-1.03756 0.26312,-1.6075 0,-0.47118 -0.0676,-0.89649 -0.20236,-1.27643 -0.13471,-0.38 -0.35692,-0.68391 -0.66679,-0.91189 -0.30312,-0.22799 -0.66008,-0.3419 -1.071,-0.3419 z" />
  </g>
</svg>
