<?xml version="1.0" encoding="UTF-8" standalone="no"?>
<!-- Created with Inkscape (http://www.inkscape.org/) -->

<svg
   width="64mm"
   height="64mm"
   viewBox="0 0 64 64"
   version="1.1"
   id="svg10181"
   inkscape:version="1.1 (c68e22c387, 2021-05-23)"
   sodipodi:docname="filebeat.svg"
   xmlns:inkscape="http://www.inkscape.org/namespaces/inkscape"
   xmlns:sodipodi="http://sodipodi.sourceforge.net/DTD/sodipodi-0.dtd"
   xmlns="http://www.w3.org/2000/svg"
   xmlns:svg="http://www.w3.org/2000/svg">
  <sodipodi:namedview
     id="namedview10183"
     pagecolor="#505050"
     bordercolor="#eeeeee"
     borderopacity="1"
     inkscape:pageshadow="0"
     inkscape:pageopacity="0"
     inkscape:pagecheckerboard="0"
     inkscape:document-units="mm"
     showgrid="false"
     width="64mm"
     inkscape:zoom="3.1108586"
     inkscape:cx="364.04741"
     inkscape:cy="235.14409"
     inkscape:window-width="3840"
     inkscape:window-height="2097"
     inkscape:window-x="1912"
     inkscape:window-y="1072"
     inkscape:window-maximized="1"
     inkscape:current-layer="layer1" />
  <defs
     id="defs10178" />
  <g
     inkscape:label="Layer 1"
     inkscape:groupmode="layer"
     id="layer1">
    <g
       id="g15159"
       transform="matrix(1.5807147,0,0,1.5807147,100.33213,-34.525239)">
      <path
         id="path15035"
         style="fill:none;fill-opacity:1;stroke:#000000;stroke-width:10.8283"
         d="m -216.45508,87.964844 c -4.30276,0 -7.76758,3.464814 -7.76758,7.767578 V 222.39453 c 0,4.30276 3.46482,7.76758 7.76758,7.76758 h 106.14453 c 4.30277,0 7.76563,-3.46482 7.76563,-7.76758 v -85.88086 l -47.69141,-48.548826 z"
         transform="scale(0.26458333)" />
      <path
         id="rect10504"
         style="fill:#40beb0;fill-opacity:1;stroke:none;stroke-width:10.8283"
         d="m -216.45508,87.964844 c -4.30276,0 -7.76758,3.464814 -7.76758,7.767578 V 222.39453 c 0,4.30276 3.46482,7.76758 7.76758,7.76758 h 106.14453 c 4.30277,0 7.76563,-3.46482 7.76563,-7.76758 v -85.88086 h -39.92383 c -4.30276,0 -7.76758,-3.46481 -7.76758,-7.76758 V 87.964844 Z"
         transform="scale(0.26458333)" />
      <path
         id="rect10506"
         style="fill:#027b99;fill-opacity:1;stroke:none;stroke-width:10.8283"
         d="m -150.23633,87.964844 v 40.781246 c 0,4.30277 3.46482,7.76758 7.76758,7.76758 h 39.92383 z"
         transform="scale(0.26458333)"
         sodipodi:nodetypes="csscc" />
    </g>
  </g>
</svg>
