<?xml version="1.0" encoding="UTF-8" standalone="no"?>
<!-- Created with Inkscape (http://www.inkscape.org/) -->

<svg
   width="64.000008mm"
   height="64mm"
   viewBox="0 0 64.000008 64"
   version="1.1"
   id="svg1992"
   inkscape:version="1.1 (c68e22c387, 2021-05-23)"
   sodipodi:docname="logrhythm-carbonblackcloudbeat.svg"
   xmlns:inkscape="http://www.inkscape.org/namespaces/inkscape"
   xmlns:sodipodi="http://sodipodi.sourceforge.net/DTD/sodipodi-0.dtd"
   xmlns:xlink="http://www.w3.org/1999/xlink"
   xmlns="http://www.w3.org/2000/svg"
   xmlns:svg="http://www.w3.org/2000/svg">
  <sodipodi:namedview
     id="namedview1994"
     pagecolor="#505050"
     bordercolor="#eeeeee"
     borderopacity="1"
     inkscape:pageshadow="0"
     inkscape:pageopacity="0"
     inkscape:pagecheckerboard="0"
     inkscape:document-units="mm"
     showgrid="false"
     fit-margin-top="0"
     fit-margin-left="0"
     fit-margin-right="0"
     fit-margin-bottom="0"
     inkscape:zoom="0.5499273"
     inkscape:cx="-982.85718"
     inkscape:cy="897.39134"
     inkscape:window-width="3840"
     inkscape:window-height="2097"
     inkscape:window-x="1912"
     inkscape:window-y="1072"
     inkscape:window-maximized="1"
     inkscape:current-layer="layer1" />
  <defs
     id="defs1989">
    <path
       id="C"
       d="M30.345 28c0 .8-.552 1.333-1.379 1.333H17.931c-.828 0-1.379-.533-1.379-1.333v-8c0-.8.552-1.333 1.379-1.333H28.69c1.103 0 1.655.533 1.655 1.333v8z" />
  </defs>
  <g
     inkscape:label="Layer 1"
     inkscape:groupmode="layer"
     id="layer1">
    <rect
       style="fill:#ffffff;fill-opacity:1;stroke:none;stroke-width:1.93787;stroke-miterlimit:4;stroke-dasharray:none;stroke-opacity:1"
       id="rect2099"
       width="30.06213"
       height="30.062128"
       x="0.9689346"
       y="0.9689346"
       ry="3.3787844" />
    <rect
       style="fill:#ffffff;fill-opacity:1;stroke:none;stroke-width:2;stroke-miterlimit:4;stroke-dasharray:none;stroke-opacity:1"
       id="rect1030"
       width="45.328484"
       height="45.32848"
       x="17.671524"
       y="17.67152"
       ry="5.0946212" />
    <g
       id="g4864"
       transform="matrix(1.5052646,0,0,-1.5051067,13.024714,24.690805)">
      <path
         d="M 0,0 C 0,1.091 0.885,1.975 1.977,1.975 3.068,1.975 3.954,1.091 3.955,0 3.955,-1.095 3.068,-1.978 1.977,-1.978 0.885,-1.978 0,-1.093 0,0"
         style="fill:#007dc3;fill-opacity:1;fill-rule:nonzero;stroke:none"
         id="path4866"
         inkscape:connector-curvature="0" />
    </g>
    <g
       id="g4868"
       transform="matrix(1.5052646,0,0,-1.5051067,21.719104,15.999077)">
      <path
         d="M 0,0 C 0,1.09 0.885,1.977 1.977,1.977 3.069,1.977 3.954,1.09 3.954,0 3.955,-1.094 3.069,-1.98 1.976,-1.977 0.885,-1.98 0,-1.094 0,0"
         style="fill:#007dc3;fill-opacity:1;fill-rule:nonzero;stroke:none"
         id="path4870"
         inkscape:connector-curvature="0" />
    </g>
    <g
       id="g4872"
       transform="matrix(1.5052646,0,0,-1.5051067,4.3290876,24.690805)">
      <path
         d="M 0,0 C 0,1.091 0.886,1.975 1.979,1.975 3.07,1.975 3.956,1.091 3.956,0 3.956,-1.095 3.07,-1.98 1.979,-1.98 0.886,-1.98 0,-1.093 0,0"
         style="fill:#007dc3;fill-opacity:1;fill-rule:nonzero;stroke:none"
         id="path4874"
         inkscape:connector-curvature="0" />
    </g>
    <g
       id="g4876"
       transform="matrix(1.5052646,0,0,-1.5051067,13.023519,15.999077)">
      <path
         d="M 0,0 C 0,1.092 0.886,1.977 1.977,1.977 3.069,1.977 3.954,1.09 3.956,0 3.956,-1.094 3.069,-1.98 1.977,-1.98 0.886,-1.98 0.001,-1.094 0,0"
         style="fill:#002d56;fill-opacity:1;fill-rule:nonzero;stroke:none"
         id="path4878"
         inkscape:connector-curvature="0" />
    </g>
    <g
       id="g4880"
       transform="matrix(1.5052646,0,0,-1.5051067,21.719104,7.3076901)">
      <path
         d="M 0,0 C -0.001,1.092 0.884,1.979 1.976,1.979 3.068,1.978 3.954,1.092 3.954,-0.001 3.954,-1.092 3.068,-1.977 1.976,-1.977 0.884,-1.977 0,-1.092 0,0"
         style="fill:#007dc3;fill-opacity:1;fill-rule:nonzero;stroke:none"
         id="path4882"
         inkscape:connector-curvature="0" />
    </g>
    <g
       id="g4884"
       transform="matrix(1.5052646,0,0,-1.5051067,4.3307517,15.999077)">
      <path
         d="M 0,0 C 0,1.09 0.886,1.977 1.977,1.977 3.069,1.977 3.955,1.09 3.955,-0.001 3.955,-1.094 3.07,-1.98 1.977,-1.98 0.885,-1.98 0,-1.094 0,0"
         style="fill:#007dc3;fill-opacity:1;fill-rule:nonzero;stroke:none"
         id="path4886"
         inkscape:connector-curvature="0" />
    </g>
    <g
       id="g4888"
       transform="matrix(1.5052646,0,0,-1.5051067,13.024714,7.3076901)">
      <path
         d="m 0,0 c 0,1.091 0.885,1.978 1.977,1.978 1.093,0 1.978,-0.886 1.978,-1.979 0,-1.092 -0.887,-1.976 -1.978,-1.976 C 0.885,-1.977 0,-1.092 0,0"
         style="fill:#007dc3;fill-opacity:1;fill-rule:nonzero;stroke:none"
         id="path4890"
         inkscape:connector-curvature="0" />
    </g>
    <path
       id="rect2638"
       style="fill:none;fill-opacity:1;stroke:#cbcbcb;stroke-width:1.99904;stroke-miterlimit:4;stroke-dasharray:none;stroke-opacity:1"
       d="m 4.3764963,0.99951836 c -1.8709451,0 -3.37697794,1.50603274 -3.37697794,3.37697794 V 27.669793 c 0,1.870943 1.50603284,3.377493 3.37697794,3.377493 H 17.693813 v 26.861385 c 0,2.82106 2.271265,5.091811 5.092326,5.091811 h 35.122532 c 2.82106,0 5.091811,-2.270751 5.091811,-5.091811 V 22.786139 c 0,-2.821061 -2.270751,-5.092326 -5.091811,-5.092326 H 31.047286 V 4.3764963 c 0,-1.8709452 -1.50655,-3.37697794 -3.377493,-3.37697794 z" />
    <symbol
       id="A"
       overflow="visible"
       transform="matrix(0.41767611,0,0,0.41767611,23.419883,23.419877)"
       style="fill:#ffffff;fill-rule:evenodd;stroke:#000000;stroke-linecap:round;stroke-linejoin:round">
      <g
         fill="#b8d432"
         stroke="none"
         id="g8655">
        <path
           d="m 49.655,36 c 0,0.8 -0.552,1.333 -1.379,1.333 H 37.517 C 36.689,37.333 36.138,36.8 36.138,36 v -7.733 c 0,-0.8 0.552,-1.333 1.379,-1.333 h 10.759 c 0.828,0 1.379,0.533 1.379,1.333 z m 19.31,8 c 0,0.8 -0.552,1.333 -1.379,1.333 H 56.827 C 55.999,45.333 55.448,44.8 55.448,44 v -7.733 c 0,-0.8 0.552,-1.333 1.379,-1.333 h 10.759 c 0.828,0 1.379,0.533 1.379,1.333 z m -19.31,8 c 0,0.8 -0.552,1.333 -1.379,1.333 H 37.517 C 36.689,53.333 36.138,52.8 36.138,52 v -7.733 c 0,-0.8 0.552,-1.333 1.379,-1.333 h 10.759 c 0.828,0 1.379,0.533 1.379,1.333 z"
           id="path8651" />
        <use
           xlink:href="#C"
           id="use8653"
           x="0"
           y="0"
           width="100%"
           height="100%" />
      </g>
      <path
         d="M 78.621,0 V 0 H 70.345 9.379 4.138 1.379 C 0.552,0 0,0.533 0,1.333 v 16 c 0,0.8 0.552,1.333 1.379,1.333 h 8.276 c 0.828,0 1.379,-0.533 1.379,-1.333 v -6.667 h 57.931 v 6.667 c 0,0.8 0.552,1.333 1.655,1.333 h 8 c 0.828,0 1.379,-0.533 1.379,-1.333 v -8 -8 C 80,0.533 79.448,0 78.621,0 Z m 0,61.6 h -8 c -0.828,0 -1.379,0.533 -1.379,1.333 v 6.4 H 11.035 v -6.667 c 0,-0.8 -0.552,-1.333 -1.655,-1.333 h -8 c -0.828,0 -1.379,0.533 -1.379,1.6 V 78.666 C 0,79.466 0.552,80 1.379,80 h 2.759 5.517 60.966 7.724 0.276 C 79.449,80 80,79.467 80,78.667 V 62.933 C 80,62.133 79.448,61.6 78.621,61.6 Z"
         stroke="none"
         fill="#0072c6"
         id="path8657" />
      <g
         fill="#b8d432"
         id="g8663">
        <use
           xlink:href="#C"
           y="16"
           stroke="none"
           id="use8659"
           x="0"
           width="100%"
           height="100%" />
        <use
           xlink:href="#C"
           y="32"
           stroke="none"
           id="use8661"
           x="0"
           width="100%"
           height="100%" />
      </g>
    </symbol>
    <path
       style="fill:#cbcbcb;stroke:#cbcbcb;stroke-width:2;stroke-linecap:butt;stroke-linejoin:miter;stroke-opacity:1;stroke-miterlimit:4;stroke-dasharray:none;fill-opacity:1"
       d="M 17.693813,31.047285 31.047285,17.693813"
       id="path2730" />
    <path
       sodipodi:type="star"
       style="fill:#000000;fill-opacity:1;stroke:none;stroke-width:7.55906;stroke-miterlimit:4;stroke-dasharray:none;stroke-opacity:1"
       id="path14633"
       inkscape:flatsided="true"
       sodipodi:sides="6"
       sodipodi:cx="336.88452"
       sodipodi:cy="-55.504742"
       sodipodi:r1="81.352135"
       sodipodi:r2="70.453011"
       sodipodi:arg1="0.52359878"
       sodipodi:arg2="1.0471976"
       inkscape:rounded="0"
       inkscape:randomized="0"
       transform="matrix(0.26458333,0,0,0.26458333,-48.836536,55.068533)"
       inkscape:transform-center-x="1.1229483e-06"
       d="m 407.33754,-14.828674 -70.45302,40.676067 -70.45301,-40.676068 0,-81.352134 70.45301,-40.676071 70.45302,40.676071 z" />
    <path
       id="path22563"
       style="fill:#ffffff;fill-opacity:1;stroke:none;stroke-width:2;stroke-miterlimit:4;stroke-dasharray:none;stroke-opacity:1"
       d="m 34.907825,33.339459 a 6.6434535,7.6546386 0 0 0 -6.643523,7.65483 6.6434535,7.6546386 0 0 0 6.643523,7.654314 6.6434535,7.6546386 0 0 0 6.480742,-5.985682 h -2.802414 a 3.9553644,4.5574016 0 0 1 -3.678328,2.888713 3.9553644,4.5574016 0 0 1 -3.955314,-4.557345 3.9553644,4.5574016 0 0 1 3.955314,-4.557344 3.9553644,4.5574016 0 0 1 3.677812,2.888196 h 2.805512 a 6.6434535,7.6546386 0 0 0 -6.483324,-5.985682 z" />
    <g
       aria-label="b"
       transform="matrix(1.0445375,0,0,0.95736151,-66.651319,13.05517)"
       id="text24260"
       style="font-weight:bold;font-size:22.9653px;line-height:1.25;font-family:Calibri;-inkscape-font-specification:'Calibri Bold';fill:#ffffff;fill-opacity:1;stroke-width:0.574135">
      <path
         d="m 115.3091,31.223951 c 0,0.889606 -0.0972,1.689504 -0.29156,2.399694 -0.19437,0.71019 -0.4747,1.31572 -0.84101,1.816591 -0.36631,0.500871 -0.81859,0.885868 -1.35684,1.154993 -0.53077,0.269125 -1.1363,0.403687 -1.81659,0.403687 -0.33641,0 -0.65038,-0.03364 -0.94193,-0.100922 -0.29155,-0.05981 -0.57189,-0.160728 -0.84102,-0.302765 -0.26165,-0.142038 -0.52329,-0.321454 -0.78494,-0.538249 -0.25417,-0.216795 -0.51582,-0.478444 -0.78495,-0.784947 v 1.739083 c 0,0.08223 -0.0224,-0.05981 -0.0673,0 -0.0374,0.05233 -0.10468,-0.03738 -0.20185,0 -0.0897,0.03738 -0.21305,-0.01495 -0.37004,0 -0.15699,0.01495 -0.34762,0 -0.57189,0 -0.23175,0 -0.42612,0.01495 -0.58311,0 -0.14951,-0.01495 -0.27286,0.03738 -0.37004,0 -0.0897,-0.03738 -0.15325,0.05233 -0.19063,0 -0.0374,-0.05981 -0.0561,0.08223 -0.0561,0 V 21.655554 c 0,-0.07476 0.0224,0.05981 0.0673,0 0.0449,-0.05981 0.11962,0.03738 0.22427,0 0.11214,-0.04485 0.25792,0.02243 0.43733,0 0.17941,-0.02243 0.40742,0 0.68402,0 0.27661,0 0.50462,-0.02243 0.68403,0 0.17941,0.02243 0.32145,-0.04485 0.42611,0 0.11214,0.03738 0.19064,-0.0598 0.23549,0 0.0449,0.05981 0.0673,-0.07475 0.0673,0 v 5.486673 c 0.25417,-0.254173 0.50835,-0.470967 0.76252,-0.650384 0.25417,-0.179417 0.50835,-0.325193 0.76252,-0.437328 0.25417,-0.119611 0.51582,-0.205581 0.78495,-0.257911 0.26912,-0.05233 0.55319,-0.07849 0.85222,-0.07849 0.74009,0 1.36805,0.149514 1.88388,0.448541 0.51582,0.291551 0.93446,0.687762 1.25591,1.188633 0.32893,0.500871 0.56816,1.087713 0.71767,1.760524 0.14951,0.665336 0.22427,1.36805 0.22427,2.108143 z m -2.92673,0.201843 c 0,-0.426114 -0.0336,-0.837277 -0.10093,-1.233488 -0.0598,-0.396211 -0.1682,-0.747568 -0.32519,-1.054071 -0.15699,-0.306503 -0.36257,-0.549463 -0.61674,-0.728879 -0.2467,-0.186892 -0.56068,-0.280338 -0.94194,-0.280338 -0.18689,0 -0.37005,0.02616 -0.54946,0.07849 -0.17942,0.05233 -0.36631,0.142042 -0.56068,0.269125 -0.18689,0.127087 -0.38125,0.291552 -0.5831,0.493395 -0.20185,0.201843 -0.4149,0.452279 -0.63917,0.751306 v 3.319204 c 0.39621,0.508346 0.77374,0.897081 1.13257,1.166206 0.36631,0.261649 0.74756,0.392474 1.14377,0.392474 0.36631,0 0.67656,-0.09345 0.93073,-0.280338 0.25417,-0.186893 0.46349,-0.429853 0.62795,-0.72888 0.17195,-0.299027 0.2953,-0.639171 0.37005,-1.02043 0.0748,-0.38126 0.11214,-0.76252 0.11214,-1.14378 z"
         id="path28686"
         sodipodi:nodetypes="ssscsccccsccsscccssscssscsscscsscccssscscsscscccsscsss"
         style="fill:#ffffff;fill-opacity:1" />
    </g>
  </g>
</svg>
