<?xml version="1.0" encoding="UTF-8" standalone="no"?>
<!-- Created with Inkscape (http://www.inkscape.org/) -->

<svg
   width="64mm"
   height="64mm"
   viewBox="0 0 64 64"
   version="1.1"
   id="svg5"
   inkscape:version="1.1 (c68e22c387, 2021-05-23)"
   sodipodi:docname="unknown.svg"
   xmlns:inkscape="http://www.inkscape.org/namespaces/inkscape"
   xmlns:sodipodi="http://sodipodi.sourceforge.net/DTD/sodipodi-0.dtd"
   xmlns="http://www.w3.org/2000/svg"
   xmlns:svg="http://www.w3.org/2000/svg">
  <sodipodi:namedview
     id="namedview7"
     pagecolor="#505050"
     bordercolor="#eeeeee"
     borderopacity="1"
     inkscape:pageshadow="0"
     inkscape:pageopacity="0"
     inkscape:pagecheckerboard="0"
     inkscape:document-units="mm"
     showgrid="false"
     fit-margin-top="0"
     fit-margin-left="0"
     fit-margin-right="0"
     fit-margin-bottom="0"
     inkscape:zoom="1.5554293"
     inkscape:cx="412.42633"
     inkscape:cy="310.84666"
     inkscape:window-width="3840"
     inkscape:window-height="2097"
     inkscape:window-x="1912"
     inkscape:window-y="1072"
     inkscape:window-maximized="1"
     inkscape:current-layer="layer1" />
  <defs
     id="defs2">
    <clipPath
       clipPathUnits="userSpaceOnUse"
       id="clipEmfPath1">
      <path
         d="M 0,0 H 626.66021 V 626.5003 H 0 Z"
         id="path106" />
    </clipPath>
    <clipPath
       clipPathUnits="userSpaceOnUse"
       id="clipEmfPath2">
      <path
         d="m 491.22229,229.14113 -0.31981,0.1599 -0.3198,0.1599 -0.47971,0.15991 -0.31981,0.1599 -0.47971,0.1599 -0.3198,0.15991 -0.47971,0.1599 -0.31981,0.1599 -0.47971,0.1599 -0.63961,0.31981 -0.47971,0.1599 -0.31981,0.15991 -0.47971,0.1599 -0.3198,0.1599 -0.47971,0.15991 -0.31981,0.1599 -0.47971,0.1599 -0.3198,0.15991 -0.47971,0.1599 -0.63961,0.3198 -0.47971,0.15991 -0.31981,0.1599 -0.47971,0.1599 -0.31981,0.15991 -0.4797,0.1599 -0.31981,0.1599 -0.47971,0.15991 -0.31981,0.1599 -0.47971,0.1599 -0.63961,0.31981 -0.47971,0.1599 -0.3198,0.1599 -0.47971,0.15991 -0.31981,0.1599 -0.47971,0.1599 -0.3198,0.15991 -0.47971,0.1599 -0.63962,0.31981 -0.4797,0.1599 -0.31981,0.1599 -0.47971,0.15991 -0.31981,0.1599 -0.47971,0.1599 -0.3198,0.1599 -0.47971,0.15991 -0.31981,0.1599 -0.47971,0.1599 -0.63961,0.31981 -0.47971,0.1599 -0.3198,0.15991 -0.47971,0.1599 -0.31981,0.1599 -0.47971,0.15991 -0.31981,0.1599 -0.4797,0.1599 -0.31981,0.15991 -0.47971,0.1599 -0.63961,0.3198 -0.47971,0.15991 -0.31981,0.1599 -0.47971,0.1599 -0.3198,0.15991 -0.47971,0.1599 -0.31981,0.1599 -0.47971,0.15991 -0.63961,0.3198 -0.47971,0.15991 -0.31981,0.1599 -0.47971,0.1599 -0.3198,0.1599 -0.47971,0.15991 -0.31981,0.1599 -0.47971,0.1599 -0.3198,0.15991 -0.47971,0.1599 -0.63961,0.31981 -0.47971,0.1599 -0.31981,0.1599 -0.47971,0.15991 -0.3198,0.1599 -0.47971,0.1599 -0.31981,0.1599 -0.47971,0.15991 -0.31981,0.1599 -0.4797,0.1599 -0.63962,0.31981 -0.47971,0.1599 -0.3198,0.15991 -0.47971,0.1599 -0.31981,0.1599 -0.47971,0.15991 -0.3198,0.1599 -0.47971,0.1599 -0.63962,0.31981 -0.4797,0.1599 -0.31981,0.1599 -0.47971,0.15991 -0.31981,0.1599 -0.47971,0.1599 -0.3198,0.15991 -0.47971,0.1599 -0.31981,0.1599 -0.47971,0.15991 -0.63961,0.3198 -0.47971,0.1599 -0.3198,0.15991 -0.47971,0.1599 -0.31981,0.1599 -0.47971,0.15991 -0.3198,0.1599 -0.47971,0.1599 -0.31981,0.15991 -0.47971,0.1599 -0.63961,0.31981 -0.47971,0.1599 -0.31981,0.1599 -0.47971,0.15991 -0.3198,0.1599 -0.47971,0.1599 -0.31981,0.1599 -0.47971,0.15991 -0.63961,0.3198 -0.47971,0.15991 -0.31981,0.1599 -0.4797,0.1599 -0.31981,0.15991 -0.47971,0.1599 -0.31981,0.1599 -0.47971,0.15991 -0.3198,0.1599 -0.47971,0.1599 -0.63961,0.31981 -0.47971,0.1599 -0.31981,0.1599 -0.47971,0.15991 -0.3198,0.1599 -0.47971,0.1599 -0.31981,0.15991 -0.47971,0.1599 -0.31981,0.1599 -0.4797,0.15991 -0.63962,0.3198 -0.47971,0.1599 -0.3198,0.15991 -0.47971,0.1599 -0.31981,0.1599 -0.47971,0.15991 -0.3198,0.1599 -0.47971,0.1599 -0.63961,0.31981 -0.47971,0.1599 -0.31981,0.15991 -0.47971,0.1599 -0.31981,0.1599 -0.4797,0.1599 -0.31981,0.15991 -0.47971,0.1599 -0.31981,0.1599 -0.47971,0.15991 -0.63961,0.3198 -0.47971,0.15991 -0.3198,0.1599 -0.47971,0.1599 -0.31981,0.15991 -0.47971,0.1599 -0.3198,0.1599 -0.47971,0.1599 -0.31981,0.15991 -0.47971,0.1599 -0.63961,0.31981 -0.47971,0.1599 -0.31981,0.1599 -0.47971,0.15991 -0.3198,0.1599 -0.47971,0.1599 -0.31981,0.15991 -0.47971,0.1599 -0.63961,0.31981 -0.47971,0.1599 -0.3198,0.1599 -0.47971,0.1599 -0.31981,0.15991 -0.47971,0.1599 -0.31981,0.1599 -0.4797,0.15991 -0.31981,0.1599 -0.47971,0.1599 -0.63961,0.31981 -0.47971,0.1599 -0.31981,0.15991 -0.47971,0.1599 -0.3198,0.1599 -0.47971,0.1599 -0.31981,0.15991 -0.47971,0.1599 -0.3198,0.1599 -0.47971,0.15991 -0.63962,0.3198 -0.47971,0.15991 -0.3198,0.1599 -0.47971,0.1599 -0.31981,0.15991 -0.47971,0.1599 -0.3198,0.1599 -0.47971,0.1599 -0.63961,0.31981 -0.47971,0.1599 -0.31981,0.15991 -0.47971,0.1599 -0.31981,0.1599 -0.4797,0.15991 -0.31981,0.1599 -0.47971,0.1599 -0.31981,0.15991 -0.47971,0.1599 -0.63961,0.3198 -0.47971,0.15991 -0.3198,0.1599 -0.47971,0.1599 -0.31981,0.15991 -0.47971,0.1599 -0.3198,0.1599 -0.47971,0.15991 -0.31981,0.1599 -0.47971,0.1599 -0.63961,0.31981 -0.47971,0.1599 -0.31981,0.15991 -0.47971,0.1599 -0.3198,0.1599 -0.47971,0.1599 -0.31981,0.15991 -0.47971,0.1599 -0.63961,0.31981 -0.47971,0.1599 -0.3198,0.1599 -0.47971,0.15991 -0.31981,0.1599 -0.47971,0.1599 -0.31981,0.15991 -0.4797,0.1599 -0.31981,0.1599 -0.47971,0.1599 -0.63961,0.31981 -0.47971,0.1599 -0.31981,0.15991 -0.47971,0.1599 -0.3198,0.1599 -0.47971,0.15991 -0.31981,0.1599 -0.47971,0.1599 -0.3198,0.15991 -0.47971,0.1599 -0.63962,0.3198 -0.47971,0.15991 -0.3198,0.1599 -0.47971,0.1599 -0.31981,0.15991 -0.47971,0.1599 -0.3198,0.1599 -0.47971,0.15991 -0.63961,0.3198 -0.47971,0.15991 -0.31981,0.1599 -0.47971,0.1599 -0.3198,0.1599 -0.47971,0.15991 -0.31981,0.1599 -0.47971,0.1599 -0.31981,0.15991 -0.4797,0.1599 -0.63962,0.31981 -0.47971,0.1599 -0.3198,0.1599 -0.47971,0.15991 -0.31981,0.1599 -0.47971,0.1599 -0.3198,0.1599 -0.47971,0.15991 -0.31981,0.1599 -0.47971,0.1599 -0.63961,0.31981 -0.47971,0.1599 -0.31981,0.15991 -0.47971,0.1599 -0.3198,0.1599 -0.47971,0.15991 -0.31981,0.1599 -0.47971,0.1599 -0.63961,0.31981 -0.47971,0.1599 -0.3198,0.1599 -0.47971,0.15991 -0.31981,0.1599 -0.47971,0.1599 -0.3198,0.15991 -0.47971,0.1599 -0.31981,0.1599 -0.47971,0.15991 -0.63961,0.3198 -0.47971,0.15991 -0.31981,0.1599 -0.47971,0.1599 -0.3198,0.1599 -0.47971,0.15991 -0.31981,0.1599 -0.47971,0.1599 -0.3198,0.15991 -0.47971,0.1599 -0.63962,0.31981 -0.4797,0.1599 -0.31981,0.1599 -0.47971,0.15991 -0.31981,0.1599 -0.47971,0.1599 -0.3198,0.1599 -0.47971,0.15991 -0.63961,0.3198 -0.47971,0.15991 -0.31981,0.1599 -0.47971,0.1599 -0.3198,0.15991 -0.47971,0.1599 -0.31981,0.1599 -0.47971,0.15991 -0.31981,0.1599 -0.4797,0.1599 -0.63962,0.31981 -0.47971,0.1599 -0.3198,0.1599 -0.47971,0.15991 -0.31981,0.1599 -0.47971,0.1599 -0.3198,0.15991 -0.47971,0.1599 -0.31981,0.1599 -0.47971,0.15991 -0.63961,0.3198 -0.47971,0.1599 -0.31981,0.15991 -0.4797,0.1599 -0.31981,0.1599 -0.47971,0.15991 -0.31981,0.1599 -0.47971,0.1599 -0.63961,0.31981 -0.47971,0.1599 -0.3198,0.15991 -0.47971,0.1599 -0.31981,0.1599 -0.47971,0.15991 -0.3198,0.1599 -0.47971,0.1599 -0.31981,0.1599 -0.47971,0.15991 -0.63961,0.3198 -0.47971,0.15991 -0.31981,0.1599 -0.47971,0.1599 -0.3198,0.15991 -0.47971,0.1599 -0.31981,0.1599 -0.47971,0.15991 -0.3198,0.1599 -0.47971,0.1599 -0.63961,0.31981 -0.47971,0.1599 -0.31981,0.1599 -0.47971,0.15991 -0.31981,0.1599 -0.4797,0.1599 -0.31981,0.15991 -0.47971,0.1599 -0.63961,0.31981 -0.47971,0.1599 v 0.3198 h 0.1599 v 0.47971 h 0.1599 v 0.31981 h 0.15991 v 0.47971 h 0.1599 v 0.31981 h 0.1599 v 0.4797 h 0.15991 v 0.31981 h 0.1599 v 0.47971 h 0.1599 v 0.31981 h 0.15991 v 0.47971 h 0.1599 v 0.3198 h 0.1599 v 0.31981 h 0.15991 v 0.47971 h 0.1599 v 0.3198 h 0.1599 v 0.47971 h 0.1599 v 0.31981 h 0.15991 v 0.47971 h 0.1599 v 0.3198 h 0.1599 v 0.47971 h 0.15991 v 0.31981 h 0.1599 v 0.31981 h 0.1599 v 0.47971 h 0.15991 v 0.3198 h 0.1599 v 0.47971 h 0.1599 v 0.31981 h 0.15991 v 0.47971 h 0.1599 v 0.3198 h 0.1599 v 0.47971 h 0.1599 v 0.31981 h 0.15991 v 0.47971 h 0.1599 v 0.3198 h 0.1599 v 0.31981 h 0.15991 v 0.47971 h 0.1599 v 0.3198 h 0.1599 v 0.47971 h 0.15991 v 0.31981 h 0.1599 v 0.47971 h 0.1599 v 0.31981 h 0.15991 v 0.47971 h 0.1599 v 0.3198 h 0.1599 v 0.47971 h 0.1599 v 0.31981 h 0.15991 v 0.3198 h 0.1599 v 0.47971 h 0.1599 v 0.31981 h 0.15991 v 0.47971 h 0.1599 v 0.3198 h 0.1599 v 0.47971 h 0.15991 v 0.31981 h 0.1599 v 0.47971 h 0.1599 v 0.3198 h 0.15991 v 0.31981 h 0.1599 v 0.47971 h 0.1599 v 0.31981 h 0.1599 v 0.47971 h 0.15991 v 0.3198 h 0.1599 v 0.47971 h 0.1599 v 0.31981 h 0.15991 v 0.47971 h 0.1599 v 0.3198 h 0.1599 v 0.47971 h 0.15991 v 0.31981 h 0.1599 v 0.3198 h 0.1599 v 0.47971 h 0.15991 v 0.31981 h 0.1599 v 0.47971 h 0.1599 v 0.31981 h 0.1599 v 0.4797 h 0.15991 v 0.31981 h 0.1599 v 0.47971 h 0.1599 v 0.31981 h 0.15991 v 0.47971 h 0.1599 v 0.3198 h 0.1599 v 0.31981 h 0.15991 v 0.47971 h 0.1599 v 0.3198 h 0.1599 v 0.47971 h 0.15991 v 0.31981 h 0.1599 v 0.47971 h 0.1599 v 0.3198 h 0.15991 v 0.47971 h 0.1599 v 0.31981 h 0.1599 v 0.31981 h 0.1599 v 0.4797 h 0.15991 v 0.31981 h 0.1599 v 0.47971 h 0.1599 v 0.31981 h 0.15991 v 0.47971 h 0.1599 v 0.3198 h 0.1599 v 0.47971 h 0.15991 v 0.31981 h 0.1599 v 0.47971 h 0.1599 v 0.3198 h 0.15991 v 0.31981 h 0.1599 v 0.47971 h 0.1599 v 0.3198 h 0.1599 v 0.47971 h 0.15991 v 0.31981 h 0.1599 v 0.47971 h 0.1599 v 0.31981 h 0.15991 v 0.4797 h 0.1599 v 0.31981 h 0.1599 v 0.47971 h 0.15991 v 0.31981 h 0.1599 v 0.3198 h 0.1599 v 0.47971 h 0.15991 v 0.31981 h 0.1599 v 0.47971 h 0.1599 v 0.3198 h 0.1599 v 0.47971 h 0.15991 v 0.31981 h 0.1599 v 0.47971 h 0.1599 v 0.3198 h 0.15991 v 0.31981 h 0.1599 v 0.47971 h 0.1599 v 0.31981 h 0.15991 v 0.47971 h 0.1599 v 0.3198 h 0.1599 v 0.47971 h 0.15991 v 0.31981 h 0.1599 v 0.47971 h 0.1599 v 0.3198 h 0.1599 v 0.47971 h 0.15991 v 0.31981 h 0.1599 v 0.3198 h 0.1599 v 0.47971 h 0.15991 v 0.31981 h 0.1599 v 0.47971 h 0.1599 v 0.3198 h 0.15991 v 0.47971 h 0.1599 v 0.31981 h 0.1599 v 0.47971 h 0.15991 v 0.31981 h 0.1599 v 0.4797 h 0.1599 v 0.31981 h 0.1599 v 0.31981 h 0.15991 v 0.47971 h 0.1599 v 0.3198 h 0.1599 v 0.47971 h 0.15991 v 0.31981 h 0.1599 v 0.47971 h 0.1599 v 0.3198 h 0.15991 v 0.47971 h 0.1599 v 0.31981 h 0.1599 v 0.31981 h 0.15991 v 0.4797 h 0.1599 v 0.31981 h 0.1599 v 0.47971 h 0.15991 v 0.31981 h 0.1599 v 0.47971 h 0.1599 v 0.3198 h 0.1599 v 0.47971 h 0.15991 v 0.31981 h 0.1599 v 0.47971 h 0.1599 v 0.3198 h 0.15991 v 0.31981 h 0.1599 v 0.47971 h 0.1599 v 0.3198 h 0.15991 v 0.47971 h 0.1599 v 0.31981 h 0.1599 v 0.47971 h 0.15991 v 0.3198 h 0.1599 v 0.47971 h 0.1599 v 0.31981 h 0.1599 v 0.47971 h 0.15991 v 0.31981 h 0.1599 v 0.3198 h 0.1599 v 0.47971 h 0.15991 v 0.31981 h 0.1599 v 0.47971 h 0.1599 v 0.3198 h 0.15991 v 0.47971 h 0.1599 v 0.31981 h 0.1599 v 0.47971 h 0.15991 v 0.3198 h 0.1599 v 0.31981 h 0.1599 v 0.47971 h 0.1599 v 0.31981 h 0.15991 v 0.4797 h 0.1599 v 0.31981 h 0.1599 v 0.47971 h 0.15991 v 0.31981 h 0.1599 v 0.47971 h 0.1599 v 0.3198 h 0.15991 v 0.47971 h 0.1599 v 0.31981 h 0.1599 v 0.3198 h 0.15991 v 0.47971 h 0.1599 v 0.31981 h 0.1599 v 0.47971 h 0.1599 v 0.3198 h 0.15991 v 0.47971 h 0.1599 v 0.31981 h 0.1599 v 0.47971 h 0.15991 v 0.31981 h 0.1599 v 0.4797 h 0.1599 v 0.31981 h 0.15991 v 0.31981 h 0.1599 v 0.47971 h 0.1599 v 0.3198 h 0.15991 v 0.47971 h 0.1599 v 0.31981 h 0.1599 v 0.47971 h 0.15991 v 0.3198 h 0.1599 v 0.47971 h 0.1599 v 0.31981 h 0.1599 v 0.3198 h 0.15991 v 0.47971 h 0.1599 v 0.31981 h 0.1599 v 0.47971 h 0.15991 v 0.31981 h 0.1599 v 0.4797 h 0.1599 v 0.31981 h 0.15991 v 0.47971 h 0.1599 v 0.31981 h 0.1599 v 0.47971 h 0.15991 v 0.3198 h 0.1599 v 0.31981 h 0.1599 v 0.47971 h 0.1599 v 0.3198 h 0.15991 v 0.47971 h 0.1599 v 0.31981 h 0.1599 v 0.47971 h 0.15991 v 0.3198 h 0.1599 v 0.47971 h 0.1599 v 0.31981 h 0.15991 v 0.47971 h 0.1599 v 0.31981 h 0.1599 v 0.3198 h 0.15991 v 0.47971 h 0.1599 v 0.31981 h 0.1599 v 0.47971 h 0.1599 v 0.3198 h 0.15991 v 0.47971 h 0.1599 v 0.31981 h 0.1599 v 0.47971 h 0.15991 v 0.3198 h 0.1599 v 0.31981 h 0.1599 v 0.47971 h 0.15991 v 0.3198 h 0.1599 v 0.47971 h 0.1599 v 0.31981 h 0.15991 v 0.47971 h 0.1599 v 0.31981 h 0.1599 v 0.47971 h 0.1599 v 0.3198 h 0.15991 v 0.47971 h 0.1599 v 0.31981 h 0.1599 v 0.3198 h 0.15991 v 0.47971 h 0.1599 v 0.31981 h 0.1599 v 0.47971 h 0.15991 v 0.3198 h 0.1599 v 0.47971 h 0.1599 v 0.31981 h 0.15991 v 0.47971 h 0.1599 v 0.3198 h 0.1599 v 0.47971 h 0.1599 v 0.31981 h 0.15991 v 0.31981 h 0.1599 v 0.47971 h 0.1599 v 0.3198 h 0.15991 v 0.47971 h 0.1599 v 0.31981 h 0.1599 v 0.47971 h 0.15991 v 0.3198 h 0.1599 v 0.47971 h 0.1599 v 0.31981 h 0.15991 v 0.3198 h 0.1599 v 0.47971 h 0.1599 v 0.31981 h 0.15991 v 0.47971 h 0.1599 v 0.31981 h 0.1599 v 0.4797 h 0.1599 v 0.31981 h 0.15991 v 0.47971 h 0.1599 v 0.31981 h 0.1599 v 0.47971 h 0.15991 v 0.3198 h 0.1599 v 0.31981 h 0.1599 v 0.47971 h 0.15991 v 0.3198 h 0.1599 v 0.47971 h 0.1599 v 0.31981 h 0.15991 v 0.47971 h 0.1599 v 0.3198 h 0.1599 v 0.47971 h 0.1599 v 0.31981 h 0.15991 v 0.47971 h 0.1599 v 0.3198 h 0.1599 v 0.31981 h 0.15991 v 0.47971 h 0.1599 v 0.31981 h 0.1599 v 0.47971 h 0.15991 v 0.3198 h 0.1599 v 0.47971 h 0.1599 v 0.31981 h 0.15991 v 0.47971 h 0.1599 v 0.3198 h 0.1599 v 0.31981 h 0.1599 v 0.47971 h 0.15991 v 0.3198 h 0.1599 v 0.47971 h 0.1599 v 0.31981 h 0.15991 v 0.47971 h 0.1599 v 0.31981 h 0.1599 v 0.4797 h 0.15991 v 0.31981 h 0.1599 v 0.47971 h 0.1599 v 0.31981 h 0.15991 v 0.3198 h 0.1599 v 0.47971 h 0.1599 v 0.31981 h 0.1599 v 0.47971 h 0.15991 v 0.3198 h 0.1599 v 0.47971 h 0.1599 v 0.31981 h 0.15991 v 0.47971 h 0.1599 v 0.3198 h 0.1599 v 0.47971 h 0.15991 v 0.31981 h 0.1599 v 0.31981 h 0.1599 v 0.47971 h 0.15991 v 0.3198 h 0.1599 v 0.47971 h 0.1599 v 0.31981 h 0.1599 v 0.47971 h 0.15991 v 0.3198 h 0.1599 v 0.47971 h 0.1599 v 0.31981 h 0.15991 v 0.3198 h 0.1599 v 0.47971 h 0.1599 v 0.31981 h 0.15991 v 0.47971 h 0.1599 v 0.3198 h 0.1599 v 0.47971 h 0.15991 v 0.31981 h 0.1599 v 0.47971 h 0.1599 v 0.31981 h 0.15991 v 0.4797 h 0.1599 v 0.31981 h 0.1599 v 0.31981 h 0.1599 v 0.47971 h 0.15991 v 0.3198 h 0.1599 v 0.47971 h 0.1599 v 0.31981 h 0.15991 v 0.47971 h 0.1599 v 0.3198 h 0.1599 v 0.47971 h 0.15991 v 0.31981 h 0.1599 v 0.47971 h 0.1599 v 0.3198 h 0.15991 v 0.31981 h 0.1599 v 0.47971 h 0.1599 v 0.31981 h 0.1599 v 0.47971 h 0.15991 v 0.3198 h 0.1599 v 0.47971 h 0.1599 v 0.31981 h 0.15991 v 0.47971 h 0.1599 v 0.3198 h 0.1599 v 0.31981 h 0.15991 v 0.47971 h 0.1599 v 0.3198 h 0.1599 v 0.47971 h 0.15991 v 0.31981 h 0.1599 v 0.47971 h 0.1599 v 0.3198 h 0.1599 v 0.47971 h 0.15991 v 0.31981 h 0.1599 v 0.47971 h 0.1599 v 0.31981 h 0.15991 v 0.3198 h 0.1599 v 0.47971 h 0.1599 v 0.31981 h 0.15991 v 0.47971 h 0.1599 v 0.3198 h 0.1599 v 0.47971 h 0.15991 v 0.31981 h 0.1599 v 0.47971 h 0.1599 v 0.3198 h 0.1599 v 0.47971 h 0.15991 v 0.31981 h 0.1599 v 0.31981 h 0.1599 v 0.4797 h 0.15991 v 0.31981 h 0.1599 v 0.47971 h 0.1599 v 0.31981 h 0.15991 v 0.47971 h 0.1599 v 0.3198 h 0.1599 v 0.47971 h 0.15991 v 0.31981 h 0.1599 v 0.3198 h 0.1599 v 0.47971 h 0.15991 v 0.31981 h 0.1599 v 0.47971 h 0.1599 v 0.3198 h 0.1599 v 0.47971 h 0.15991 v 0.31981 h 0.1599 v 0.47971 h 0.1599 v 0.31981 h 0.15991 v 0.4797 h 0.1599 v 0.31981 h 0.1599 v 0.31981 h 0.15991 v 0.47971 h 0.1599 v 0.3198 h 0.1599 v 0.47971 h 0.15991 v 0.31981 h 0.1599 v 0.47971 h 0.1599 v 0.3198 h 0.1599 v 0.47971 h 0.15991 v 0.31981 h 0.1599 v 0.47971 h 0.1599 v 0.3198 h 0.15991 v 0.31981 h 0.1599 v 0.47971 l 0.1599,-0.1599 0.47971,-0.15991 0.31981,-0.1599 0.47971,-0.1599 0.3198,-0.15991 0.47971,-0.1599 0.31981,-0.1599 0.47971,-0.15991 0.63961,-0.3198 0.47971,-0.1599 0.31981,-0.15991 0.47971,-0.1599 0.3198,-0.1599 0.47971,-0.15991 0.31981,-0.1599 0.47971,-0.1599 0.3198,-0.15991 0.47971,-0.1599 0.63961,-0.31981 0.47971,-0.1599 0.31981,-0.1599 0.47971,-0.1599 0.31981,-0.15991 0.4797,-0.1599 0.31981,-0.1599 0.47971,-0.15991 0.31981,-0.1599 0.47971,-0.1599 0.63961,-0.31981 0.47971,-0.1599 0.3198,-0.15991 0.47971,-0.1599 0.31981,-0.1599 0.47971,-0.1599 0.3198,-0.15991 0.47971,-0.1599 0.63962,-0.31981 0.47971,-0.1599 0.3198,-0.1599 0.47971,-0.15991 0.31981,-0.1599 0.47971,-0.1599 0.3198,-0.15991 0.47971,-0.1599 0.31981,-0.1599 0.47971,-0.15991 0.63961,-0.3198 0.47971,-0.1599 0.3198,-0.15991 0.47971,-0.1599 0.31981,-0.1599 0.47971,-0.15991 0.31981,-0.1599 0.4797,-0.1599 0.31981,-0.15991 0.47971,-0.1599 0.63961,-0.31981 0.47971,-0.1599 0.31981,-0.1599 0.47971,-0.1599 0.3198,-0.15991 0.47971,-0.1599 0.31981,-0.1599 0.47971,-0.15991 0.63961,-0.3198 0.47971,-0.15991 0.31981,-0.1599 0.47971,-0.1599 0.3198,-0.15991 0.47971,-0.1599 0.31981,-0.1599 0.47971,-0.1599 0.3198,-0.15991 0.47971,-0.1599 0.63961,-0.31981 0.47971,-0.1599 0.31981,-0.1599 0.47971,-0.15991 0.3198,-0.1599 0.47971,-0.1599 0.31981,-0.15991 0.47971,-0.1599 0.31981,-0.1599 0.4797,-0.1599 0.63962,-0.31981 0.47971,-0.1599 0.3198,-0.15991 0.47971,-0.1599 0.31981,-0.1599 0.47971,-0.15991 0.3198,-0.1599 0.47971,-0.1599 0.63962,-0.31981 0.4797,-0.1599 0.31981,-0.1599 0.47971,-0.15991 0.31981,-0.1599 0.47971,-0.1599 0.3198,-0.15991 0.47971,-0.1599 0.31981,-0.1599 0.47971,-0.15991 0.63961,-0.3198 0.47971,-0.15991 0.3198,-0.1599 0.47971,-0.1599 0.31981,-0.15991 0.47971,-0.1599 0.31981,-0.1599 0.4797,-0.1599 0.31981,-0.15991 0.47971,-0.1599 0.63961,-0.31981 0.47971,-0.1599 0.31981,-0.1599 0.47971,-0.15991 0.3198,-0.1599 0.47971,-0.1599 0.31981,-0.15991 0.47971,-0.1599 0.63961,-0.3198 0.47971,-0.15991 0.31981,-0.1599 0.4797,-0.1599 0.31981,-0.15991 0.47971,-0.1599 0.31981,-0.1599 0.47971,-0.15991 0.3198,-0.1599 0.47971,-0.1599 0.63961,-0.31981 0.47971,-0.1599 0.31981,-0.1599 0.47971,-0.15991 0.3198,-0.1599 0.47971,-0.1599 0.31981,-0.15991 0.47971,-0.1599 0.31981,-0.1599 0.4797,-0.15991 0.63962,-0.3198 0.47971,-0.15991 0.3198,-0.1599 0.47971,-0.1599 0.31981,-0.1599 0.47971,-0.15991 0.3198,-0.1599 0.47971,-0.1599 0.63961,-0.31981 0.47971,-0.1599 0.31981,-0.15991 0.47971,-0.1599 0.31981,-0.1599 0.4797,-0.15991 0.31981,-0.1599 0.47971,-0.1599 0.31981,-0.15991 0.47971,-0.1599 0.63961,-0.3198 0.47971,-0.15991 0.3198,-0.1599 0.47971,-0.1599 0.31981,-0.15991 0.47971,-0.1599 0.3198,-0.1599 0.47971,-0.15991 0.31981,-0.1599 0.47971,-0.1599 0.63961,-0.31981 0.47971,-0.1599 0.31981,-0.1599 0.47971,-0.15991 0.3198,-0.1599 0.47971,-0.1599 0.31981,-0.15991 0.47971,-0.1599 0.63961,-0.31981 0.47971,-0.1599 0.31981,-0.1599 0.4797,-0.15991 0.31981,-0.1599 0.47971,-0.1599 0.31981,-0.1599 0.47971,-0.15991 0.3198,-0.1599 0.47971,-0.1599 0.63961,-0.31981 0.47971,-0.1599 0.31981,-0.15991 0.47971,-0.1599 0.3198,-0.1599 0.47971,-0.15991 0.31981,-0.1599 0.47971,-0.1599 0.3198,-0.1599 0.47971,-0.15991 0.63962,-0.3198 0.47971,-0.15991 0.3198,-0.1599 0.47971,-0.1599 0.31981,-0.15991 0.47971,-0.1599 0.3198,-0.1599 0.47971,-0.15991 0.63961,-0.3198 0.47971,-0.1599 0.31981,-0.15991 0.47971,-0.1599 0.31981,-0.1599 0.4797,-0.15991 0.31981,-0.1599 0.47971,-0.1599 0.31981,-0.15991 0.47971,-0.1599 0.63961,-0.31981 0.47971,-0.1599 0.3198,-0.1599 0.47971,-0.15991 0.31981,-0.1599 0.47971,-0.1599 0.3198,-0.1599 0.47971,-0.15991 0.31981,-0.1599 0.47971,-0.1599 0.63961,-0.31981 0.47971,-0.1599 0.31981,-0.15991 0.47971,-0.1599 0.3198,-0.1599 0.47971,-0.15991 0.31981,-0.1599 0.47971,-0.1599 0.63961,-0.31981 0.47971,-0.1599 0.3198,-0.1599 0.47971,-0.15991 0.31981,-0.1599 0.47971,-0.1599 0.31981,-0.15991 0.4797,-0.1599 0.31981,-0.1599 0.47971,-0.15991 0.63961,-0.3198 0.47971,-0.1599 0.31981,-0.15991 0.47971,-0.1599 0.3198,-0.1599 0.47971,-0.15991 0.31981,-0.1599 0.47971,-0.1599 0.3198,-0.15991 0.47971,-0.1599 0.63962,-0.31981 0.47971,-0.1599 0.3198,-0.1599 0.47971,-0.1599 0.31981,-0.15991 0.47971,-0.1599 0.3198,-0.1599 0.47971,-0.15991 0.63961,-0.3198 0.47971,-0.15991 0.31981,-0.1599 0.47971,-0.1599 0.3198,-0.15991 0.47971,-0.1599 0.31981,-0.1599 0.47971,-0.1599 0.31981,-0.15991 0.4797,-0.1599 0.63962,-0.31981 0.47971,-0.1599 0.3198,-0.1599 0.47971,-0.15991 0.31981,-0.1599 0.47971,-0.1599 0.3198,-0.15991 0.47971,-0.1599 0.31981,-0.1599 0.47971,-0.15991 0.63961,-0.3198 0.47971,-0.1599 0.31981,-0.15991 0.47971,-0.1599 0.3198,-0.1599 0.47971,-0.15991 0.31981,-0.1599 0.47971,-0.1599 0.63961,-0.31981 0.47971,-0.1599 0.3198,-0.15991 0.47971,-0.1599 0.31981,-0.1599 0.47971,-0.1599 0.3198,-0.15991 0.47971,-0.1599 0.31981,-0.1599 0.47971,-0.15991 0.63961,-0.3198 0.47971,-0.15991 0.31981,-0.1599 0.47971,-0.1599 0.3198,-0.15991 0.47971,-0.1599 0.31981,-0.1599 0.47971,-0.1599 0.3198,-0.15991 0.47971,-0.1599 0.63962,-0.31981 0.4797,-0.1599 0.31981,-0.1599 0.47971,-0.15991 0.31981,-0.1599 0.47971,-0.1599 0.3198,-0.15991 0.47971,-0.1599 0.63961,-0.3198 0.47971,-0.15991 0.31981,-0.1599 0.47971,-0.1599 0.3198,-0.15991 0.47971,-0.1599 0.31981,-0.1599 0.47971,-0.15991 0.31981,-0.1599 0.4797,-0.1599 0.63962,-0.31981 0.47971,-0.1599 0.3198,-0.15991 0.47971,-0.1599 0.31981,-0.1599 0.47971,-0.1599 0.3198,-0.15991 0.47971,-0.1599 0.31981,-0.1599 0.47971,-0.15991 0.63961,-0.3198 0.47971,-0.15991 0.31981,-0.1599 0.4797,-0.1599 0.31981,-0.15991 0.47971,-0.1599 0.31981,-0.1599 0.47971,-0.1599 0.63961,-0.31981 0.47971,-0.1599 0.3198,-0.15991 0.47971,-0.1599 0.31981,-0.1599 0.47971,-0.15991 0.3198,-0.1599 0.47971,-0.1599 0.31981,-0.15991 0.47971,-0.1599 0.63961,-0.3198 0.47971,-0.15991 0.31981,-0.1599 0.47971,-0.1599 0.3198,-0.15991 0.47971,-0.1599 0.31981,-0.1599 0.47971,-0.15991 0.3198,-0.1599 0.47971,-0.1599 0.63961,-0.31981 0.47971,-0.1599 0.31981,-0.1599 0.47971,-0.15991 0.31981,-0.1599 0.47971,-0.1599 0.3198,-0.15991 0.47971,-0.1599 0.63961,-0.31981 0.47971,-0.1599 0.31981,-0.1599 h 0.47971 v -0.63961 h -0.15991 v -0.31981 h -0.1599 v -0.47971 h -0.1599 v -0.31981 h -0.1599 v -0.47971 h -0.15991 v -0.3198 h -0.1599 v -0.47971 h -0.1599 v -0.31981 h -0.15991 v -0.47971 h -0.1599 v -0.3198 h -0.1599 v -0.31981 h -0.15991 v -0.47971 h -0.1599 v -0.3198 h -0.1599 v -0.47971 h -0.15991 v -0.31981 h -0.1599 v -0.47971 h -0.1599 v -0.31981 h -0.1599 v -0.4797 h -0.15991 v -0.31981 h -0.1599 v -0.47971 h -0.1599 v -0.31981 h -0.15991 v -0.3198 h -0.1599 v -0.47971 h -0.1599 v -0.31981 h -0.15991 v -0.47971 h -0.1599 v -0.3198 h -0.1599 v -0.47971 h -0.15991 v -0.31981 h -0.1599 v -0.47971 h -0.1599 v -0.3198 h -0.15991 v -0.31981 h -0.1599 v -0.47971 h -0.1599 v -0.31981 h -0.1599 v -0.47971 h -0.15991 v -0.3198 h -0.1599 V 377.851 h -0.1599 v -0.31981 h -0.15991 v -0.47971 h -0.1599 v -0.3198 h -0.1599 v -0.47971 h -0.15991 v -0.31981 h -0.1599 v -0.3198 h -0.1599 v -0.47971 h -0.15991 v -0.31981 h -0.1599 v -0.47971 h -0.1599 v -0.3198 h -0.1599 v -0.47971 h -0.15991 v -0.31981 h -0.1599 v -0.47971 h -0.1599 v -0.31981 h -0.15991 v -0.4797 h -0.1599 v -0.31981 h -0.1599 v -0.31981 h -0.15991 v -0.47971 h -0.1599 v -0.3198 h -0.1599 v -0.47971 h -0.15991 v -0.31981 h -0.1599 v -0.47971 h -0.1599 v -0.3198 h -0.1599 v -0.47971 h -0.15991 v -0.31981 h -0.1599 v -0.31981 h -0.1599 v -0.4797 h -0.15991 v -0.31981 h -0.1599 v -0.47971 h -0.1599 v -0.31981 h -0.15991 v -0.47971 h -0.1599 v -0.3198 h -0.1599 v -0.47971 h -0.15991 v -0.31981 h -0.1599 v -0.47971 h -0.1599 v -0.3198 h -0.1599 v -0.31981 h -0.15991 v -0.47971 h -0.1599 v -0.3198 h -0.1599 v -0.47971 h -0.15991 v -0.31981 h -0.1599 v -0.47971 h -0.1599 v -0.3198 h -0.15991 v -0.47971 h -0.1599 v -0.31981 h -0.1599 v -0.47971 h -0.15991 v -0.31981 h -0.1599 v -0.3198 h -0.1599 v -0.47971 h -0.1599 v -0.31981 h -0.15991 v -0.47971 h -0.1599 v -0.3198 h -0.1599 v -0.47971 h -0.15991 v -0.31981 h -0.1599 v -0.47971 h -0.1599 v -0.3198 h -0.15991 v -0.31981 h -0.1599 v -0.47971 h -0.1599 v -0.31981 h -0.15991 v -0.4797 h -0.1599 v -0.31981 h -0.1599 v -0.47971 h -0.15991 v -0.31981 h -0.1599 v -0.47971 h -0.1599 v -0.3198 h -0.1599 v -0.47971 h -0.15991 v -0.31981 h -0.1599 v -0.3198 h -0.1599 v -0.47971 h -0.15991 v -0.31981 h -0.1599 v -0.47971 h -0.1599 v -0.3198 h -0.15991 v -0.47971 h -0.1599 v -0.31981 h -0.1599 v -0.47971 h -0.15991 v -0.31981 h -0.1599 v -0.4797 h -0.1599 v -0.31981 h -0.1599 v -0.31981 h -0.15991 v -0.47971 h -0.1599 v -0.3198 h -0.1599 v -0.47971 h -0.15991 v -0.31981 h -0.1599 v -0.47971 h -0.1599 v -0.3198 h -0.15991 v -0.47971 h -0.1599 v -0.31981 h -0.1599 v -0.3198 h -0.15991 v -0.47971 h -0.1599 v -0.31981 h -0.1599 v -0.47971 h -0.1599 v -0.31981 h -0.15991 v -0.4797 h -0.1599 v -0.31981 h -0.1599 v -0.47971 h -0.15991 v -0.31981 h -0.1599 v -0.47971 h -0.1599 v -0.3198 h -0.15991 v -0.31981 h -0.1599 v -0.47971 h -0.1599 v -0.3198 h -0.15991 v -0.47971 h -0.1599 v -0.31981 h -0.1599 v -0.47971 h -0.1599 v -0.3198 h -0.15991 v -0.47971 h -0.1599 v -0.31981 h -0.1599 v -0.47971 h -0.15991 v -0.31981 h -0.1599 v -0.3198 h -0.1599 v -0.47971 h -0.15991 v -0.31981 h -0.1599 v -0.47971 h -0.1599 v -0.3198 h -0.15991 v -0.47971 h -0.1599 v -0.31981 h -0.1599 v -0.47971 h -0.1599 v -0.3198 h -0.15991 v -0.31981 h -0.1599 v -0.47971 h -0.1599 v -0.3198 h -0.15991 v -0.47971 h -0.1599 v -0.31981 h -0.1599 v -0.47971 h -0.15991 v -0.31981 h -0.1599 v -0.47971 h -0.1599 v -0.3198 h -0.15991 v -0.47971 h -0.1599 v -0.31981 h -0.1599 v -0.3198 h -0.15991 v -0.47971 h -0.1599 v -0.31981 h -0.1599 v -0.47971 h -0.1599 v -0.3198 h -0.15991 v -0.47971 h -0.1599 v -0.31981 h -0.1599 v -0.47971 h -0.15991 v -0.3198 h -0.1599 v -0.47971 h -0.1599 v -0.31981 h -0.15991 v -0.31981 h -0.1599 v -0.47971 h -0.1599 v -0.3198 h -0.15991 v -0.47971 h -0.1599 v -0.31981 h -0.1599 v -0.47971 h -0.1599 v -0.3198 h -0.15991 v -0.47971 h -0.1599 v -0.31981 h -0.1599 v -0.3198 h -0.15991 v -0.47971 H 528 v -0.31981 h -0.1599 v -0.47971 h -0.15991 v -0.31981 h -0.1599 v -0.4797 h -0.1599 v -0.31981 h -0.15991 v -0.47971 h -0.1599 v -0.31981 h -0.1599 v -0.47971 h -0.1599 v -0.3198 h -0.15991 v -0.31981 h -0.1599 v -0.47971 h -0.1599 v -0.3198 h -0.15991 v -0.47971 h -0.1599 v -0.31981 h -0.1599 v -0.47971 h -0.15991 v -0.3198 h -0.1599 v -0.47971 h -0.1599 v -0.31981 h -0.15991 v -0.47971 h -0.1599 v -0.3198 h -0.1599 v -0.31981 h -0.1599 v -0.47971 h -0.15991 v -0.31981 h -0.1599 v -0.47971 h -0.1599 v -0.3198 h -0.15991 v -0.47971 h -0.1599 v -0.31981 h -0.1599 v -0.47971 h -0.15991 v -0.3198 h -0.1599 v -0.31981 h -0.1599 v -0.47971 H 523.043 v -0.3198 h -0.1599 v -0.47971 h -0.1599 v -0.31981 h -0.15991 v -0.47971 h -0.1599 v -0.31981 h -0.1599 v -0.4797 h -0.1599 v -0.31981 h -0.15991 v -0.47971 h -0.1599 v -0.31981 h -0.1599 v -0.3198 h -0.15991 v -0.47971 h -0.1599 v -0.31981 h -0.1599 v -0.47971 h -0.15991 v -0.3198 h -0.1599 v -0.47971 h -0.1599 V 300.298 h -0.15991 v -0.47971 h -0.1599 v -0.3198 h -0.1599 v -0.47971 h -0.1599 v -0.31981 h -0.15991 v -0.31981 h -0.1599 v -0.47971 h -0.1599 v -0.3198 h -0.15991 v -0.47971 h -0.1599 v -0.31981 h -0.1599 v -0.47971 h -0.15991 v -0.3198 h -0.1599 v -0.47971 h -0.1599 v -0.31981 h -0.15991 v -0.3198 h -0.1599 v -0.47971 h -0.1599 v -0.31981 h -0.1599 v -0.47971 h -0.15991 v -0.3198 h -0.1599 v -0.47971 h -0.1599 v -0.31981 h -0.15991 v -0.47971 h -0.1599 v -0.31981 h -0.1599 v -0.4797 h -0.15991 v -0.31981 h -0.1599 v -0.31981 h -0.1599 v -0.47971 h -0.15991 v -0.3198 h -0.1599 v -0.47971 h -0.1599 v -0.31981 h -0.1599 v -0.47971 h -0.15991 v -0.3198 h -0.1599 v -0.47971 h -0.1599 v -0.31981 h -0.15991 v -0.47971 h -0.1599 v -0.3198 h -0.1599 v -0.31981 h -0.15991 v -0.47971 h -0.1599 v -0.31981 h -0.1599 v -0.47971 h -0.15991 v -0.3198 h -0.1599 v -0.47971 h -0.1599 v -0.31981 h -0.1599 v -0.47971 h -0.15991 v -0.3198 h -0.1599 v -0.31981 h -0.1599 v -0.47971 h -0.15991 v -0.3198 h -0.1599 v -0.47971 h -0.1599 v -0.31981 h -0.15991 v -0.47971 h -0.1599 v -0.3198 h -0.1599 v -0.47971 h -0.15991 v -0.31981 h -0.1599 v -0.47971 h -0.1599 v -0.31981 h -0.15991 v -0.3198 h -0.1599 v -0.47971 h -0.1599 v -0.31981 h -0.1599 v -0.47971 h -0.15991 v -0.3198 h -0.1599 v -0.47971 h -0.1599 v -0.31981 h -0.15991 v -0.47971 h -0.1599 v -0.3198 h -0.1599 v -0.47971 h -0.15991 v -0.31981 h -0.1599 v -0.31981 h -0.1599 v -0.4797 h -0.15991 v -0.31981 h -0.1599 v -0.47971 h -0.1599 v -0.31981 h -0.1599 v -0.47971 h -0.15991 v -0.3198 h -0.1599 v -0.47971 h -0.1599 v -0.31981 h -0.15991 v -0.3198 h -0.1599 v -0.47971 h -0.1599 v -0.31981 h -0.15991 v -0.47971 h -0.1599 v -0.3198 h -0.1599 v -0.47971 h -0.15991 v -0.31981 h -0.1599 v -0.47971 h -0.1599 v -0.31981 h -0.1599 v -0.4797 h -0.15991 v -0.31981 h -0.1599 v -0.31981 h -0.1599 v -0.47971 h -0.15991 v -0.3198 h -0.1599 v -0.47971 h -0.1599 v -0.31981 h -0.15991 v -0.47971 h -0.1599 v -0.3198 h -0.1599 v -0.47971 h -0.15991 v -0.31981 h -0.1599 v -0.47971 h -0.1599 v -0.3198 h -0.1599 v -0.31981 h -0.15991 v -0.47971 h -0.1599 v -0.31981 h -0.1599 v -0.4797 h -0.15991 v -0.31981 h -0.1599 v -0.47971 h -0.1599 v -0.31981 h -0.15991 V 259.043 h -0.1599 v -0.3198 h -0.1599 v -0.31981 h -0.15991 v -0.47971 h -0.1599 v -0.3198 h -0.1599 v -0.47971 h -0.1599 v -0.31981 h -0.15991 v -0.47971 h -0.1599 v -0.3198 h -0.1599 v -0.47971 h -0.15991 v -0.31981 h -0.1599 v -0.47971 h -0.1599 v -0.31981 h -0.15991 v -0.3198 h -0.1599 v -0.47971 h -0.1599 v -0.31981 h -0.15991 v -0.47971 h -0.1599 v -0.3198 h -0.1599 v -0.47971 h -0.15991 v -0.31981 h -0.1599 v -0.47971 h -0.1599 v -0.3198 h -0.1599 v -0.47971 h -0.15991 v -0.31981 h -0.1599 v -0.3198 h -0.1599 v -0.47971 h -0.15991 v -0.31981 h -0.1599 v -0.47971 h -0.1599 v -0.31981 h -0.15991 v -0.47971 h -0.1599 v -0.3198 h -0.1599 v -0.47971 h -0.15991 v -0.31981 h -0.1599 v -0.3198 h -0.1599 v -0.47971 h -0.1599 v -0.31981 h -0.15991 v -0.47971 h -0.1599 v -0.3198 h -0.1599 v -0.47971 h -0.15991 v -0.31981 h -0.1599 v -0.47971 h -0.1599 v -0.3198 h -0.15991 v -0.47971 h -0.1599 v -0.31981 h -0.1599 v -0.31981 h -0.15991 v -0.47971 h -0.1599 v -0.3198 h -0.1599 v -0.47971 h -0.1599 v -0.31981 h -0.15991 v -0.47971 h -0.1599 v -0.3198 h -0.1599 v -0.47971 h -0.15991 v -0.31981 h -0.1599 v -0.47971 h -0.1599 v -0.3198 h -0.15991 v -0.31981 h -0.1599 v -0.47971 h -0.1599 v -0.31981 h -0.15991 v -0.4797 h -0.1599 v -0.31981 h -0.1599 v -0.47971 h -0.1599 v -0.31981 h -0.15991 v -0.47971 h -0.1599 v -0.3198 h -0.1599 v -0.31981 h -0.15991 v -0.47971 h -0.1599 v -0.3198 h -0.1599 v -0.47971 h -0.15991 v -0.31981 h -0.1599 v -0.47971 h -0.1599 v -0.3198 h -0.15991 v -0.47971 h -0.1599 v -0.31981 h -0.1599 v -0.47971 h -0.15991 v -0.3198 h -0.1599 v -0.31981 h -0.1599 v -0.47971 l -0.1599,-0.1599 z"
         id="path109" />
    </clipPath>
    <clipPath
       clipPathUnits="userSpaceOnUse"
       id="clipEmfPath3">
      <path
         d="m 491.54297,229.46094 -0.48047,0.16015 -0.64062,0.32032 -0.47852,0.1582 -0.32031,0.16016 -0.48047,0.16015 -0.31836,0.16016 -0.48047,0.16015 -0.32031,0.16016 -0.47852,0.16016 -0.32031,0.16015 -0.48047,0.15821 -0.63867,0.32031 -0.48047,0.16016 -0.31836,0.16015 -0.48047,0.16016 -0.32031,0.16015 -0.47852,0.16016 -0.32031,0.1582 -0.48047,0.16016 -0.63867,0.32031 -0.48047,0.16016 -0.32031,0.16015 -0.47852,0.16016 -0.32031,0.1582 -0.48047,0.16016 -0.31836,0.16016 -0.48047,0.16015 -0.32031,0.16016 -0.47851,0.16015 -0.64063,0.32032 -0.47851,0.1582 -0.32032,0.16016 -0.48047,0.16015 -0.31835,0.16016 -0.48047,0.16016 -0.32032,0.16015 -0.47851,0.16016 -0.32031,0.16015 -0.48047,0.15821 -0.63868,0.32031 -0.48046,0.16016 -0.32032,0.16015 -0.47851,0.16016 -0.32031,0.16016 -0.48047,0.16015 -0.31836,0.1582 -0.48047,0.16016 -0.63867,0.32031 -0.48047,0.16016 -0.32031,0.16016 -0.47852,0.16015 -0.32031,0.15821 -0.48047,0.16015 -0.31836,0.16016 -0.48047,0.16015 -0.32031,0.16016 -0.47852,0.16016 -0.64062,0.32031 -0.47852,0.1582 -0.32031,0.16016 -0.48047,0.16015 -0.32031,0.16016 -0.47852,0.16016 -0.32031,0.16015 -0.48047,0.16016 -0.31836,0.16016 -0.48047,0.1582 -0.63867,0.32031 -0.48047,0.16016 -0.32031,0.16015 -0.47852,0.16016 -0.32031,0.16016 -0.48047,0.1582 -0.31836,0.16016 -0.48046,0.16015 -0.63868,0.32031 -0.48047,0.16016 -0.32031,0.16016 -0.47851,0.16015 -0.32032,0.15821 -0.48047,0.16015 -0.32031,0.16016 -0.47851,0.16016 -0.32032,0.16015 -0.48046,0.16016 -0.63868,0.32031 -0.48046,0.1582 -0.31836,0.16016 -0.48047,0.16016 -0.32032,0.16015 -0.47851,0.16016 -0.32031,0.16015 -0.48047,0.16016 -0.31836,0.16016 -0.48047,0.1582 -0.63867,0.32031 -0.48047,0.16016 -0.32031,0.16015 -0.47852,0.16016 -0.32031,0.16016 -0.48047,0.1582 -0.32031,0.16016 -0.47852,0.16015 -0.64062,0.32032 -0.47852,0.16015 -0.32031,0.16016 -0.48047,0.16015 -0.31836,0.15821 -0.48047,0.16015 -0.32031,0.16016 -0.47852,0.16016 -0.32031,0.16015 -0.48047,0.16016 -0.63867,0.32031 -0.48047,0.1582 -0.31836,0.16016 -0.48047,0.16016 -0.32031,0.16015 -0.47851,0.16016 -0.32032,0.16016 -0.48047,0.16015 -0.32031,0.15821 -0.47851,0.16015 -0.64063,0.32031 -0.47852,0.16016 -0.32031,0.16016 -0.48047,0.16015 -0.31836,0.16016 -0.48046,0.1582 -0.32032,0.16016 -0.47851,0.16015 -0.64063,0.32032 -0.47851,0.16015 -0.32032,0.16016 -0.48046,0.16016 -0.31836,0.1582 -0.48047,0.16015 -0.32032,0.16016 -0.47851,0.16016 -0.32031,0.16015 -0.48047,0.16016 -0.63867,0.32031 -0.48047,0.15821 -0.32031,0.16015 -0.47852,0.16016 -0.32031,0.16015 -0.48047,0.16016 -0.31836,0.16016 -0.48047,0.16015 -0.32031,0.15821 -0.47852,0.16015 -0.64062,0.32032 -0.47852,0.16015 -0.32031,0.16016 -0.48047,0.16015 -0.31836,0.16016 -0.48047,0.1582 -0.32031,0.16016 -0.47852,0.16016 -0.64062,0.32031 -0.48047,0.16015 -0.31836,0.16016 -0.48047,0.16016 -0.32031,0.1582 -0.47852,0.16016 -0.32031,0.16015 -0.48047,0.16016 -0.31836,0.16015 -0.48047,0.16016 -0.63867,0.32031 -0.48047,0.15821 -0.32031,0.16015 -0.47851,0.16016 -0.32032,0.16016 -0.48047,0.16015 -0.31835,0.16016 -0.48047,0.16015 -0.32032,0.15821 -0.47851,0.16015 -0.64063,0.32032 -0.48047,0.16015 -0.31836,0.16016 -0.48046,0.16016 -0.32032,0.16015 -0.47851,0.1582 -0.32031,0.16016 -0.48047,0.16016 -0.63867,0.32031 -0.48047,0.16016 -0.31836,0.16015 -0.48047,0.16016 -0.32031,0.1582 -0.47852,0.16016 -0.32031,0.16015 -0.48047,0.16016 -0.31836,0.16016 -0.48047,0.16015 -0.64062,0.31836 -0.47852,0.16016 -0.32031,0.16015 -0.48047,0.16016 -0.31836,0.16016 -0.48047,0.16015 -0.32031,0.16016 -0.47852,0.16016 -0.32031,0.1582 -0.48047,0.16015 -0.63867,0.32032 -0.48047,0.16015 -0.31836,0.16016 -0.48047,0.16016 -0.32031,0.16015 -0.47852,0.15821 -0.32031,0.16015 -0.48047,0.16016 -0.63867,0.32031 -0.48047,0.16016 -0.32031,0.16015 -0.47852,0.15821 -0.32031,0.16015 -0.48047,0.16016 -0.31836,0.16016 -0.48047,0.16015 -0.32031,0.16016 -0.47851,0.16015 -0.64063,0.31836 -0.47851,0.16016 -0.32032,0.16016 -0.48046,0.16015 -0.31836,0.16016 -0.48047,0.16015 -0.32032,0.16016 -0.47851,0.16016 -0.32031,0.1582 -0.48047,0.16016 -0.63867,0.32031 -0.48047,0.16015 -0.32032,0.16016 -0.47851,0.16016 -0.32031,0.16015 -0.48047,0.15821 -0.31836,0.16015 -0.48047,0.16016 -0.63867,0.32031 -0.48047,0.16016 -0.32031,0.16015 -0.47852,0.15821 -0.32031,0.16015 -0.48047,0.16016 -0.31836,0.16016 -0.48047,0.16015 -0.32031,0.16016 -0.47852,0.16016 -0.64062,0.31835 -0.47852,0.16016 -0.32031,0.16016 -0.48047,0.16015 -0.32031,0.16016 -0.47852,0.16016 -0.32031,0.16015 -0.48047,0.16016 -0.31836,0.1582 -0.48047,0.16016 -0.63867,0.32031 -0.48047,0.16016 -0.32031,0.16015 -0.47852,0.16016 -0.32031,0.16015 -0.48047,0.15821 -0.31836,0.16015 -0.48046,0.16016 -0.64063,0.32031 -0.47851,0.16016 -0.32032,0.16016 -0.47851,0.1582 -0.32032,0.16015 -0.48046,0.16016 -0.32032,0.16016 -0.47851,0.16015 -0.32032,0.16016 -0.48046,0.16016 -0.63868,0.31836 -0.48046,0.16015 -0.31836,0.16016 -0.48047,0.16015 -0.32031,0.16016 -0.47852,0.16016 -0.32031,0.16015 -0.48047,0.16016 -0.31836,0.1582 -0.48047,0.16016 -0.64063,0.32031 -0.47851,0.16016 -0.32031,0.16015 -0.47852,0.16016 -0.32031,0.1582 -0.48047,0.16016 -0.32031,0.16016 -0.47852,0.16015 -0.64062,0.32031 -0.47852,0.16016 -0.32031,0.16016 -0.48047,0.1582 -0.31836,0.16016 -0.48047,0.16015 -0.32031,0.16016 -0.47852,0.16015 -0.32031,0.16016 -0.48047,0.16016 -0.63867,0.31836 -0.48047,0.16015 -0.32031,0.16016 -0.47852,0.16016 -0.32031,0.16015 -0.47851,0.16016 -0.32032,0.16015 -0.48047,0.16016 -0.32031,0.1582 -0.47851,0.16016 -0.64063,0.32031 -0.47851,0.16016 -0.32032,0.16016 -0.48047,0.16015 -0.31836,0.1582 -0.48046,0.16016 -0.32032,0.16016 -0.47851,0.16015 -0.64063,0.32032 -0.47851,0.16015 -0.32031,0.16016 -0.48047,0.1582 -0.32032,0.16016 -0.47851,0.16015 -0.32031,0.16016 -0.47852,0.16016 -0.32031,0.16015 -0.48047,0.16016 -0.63867,0.31836 -0.48047,0.16015 -0.32031,0.16016 -0.47852,0.16016 -0.32031,0.16015 -0.48047,0.16016 -0.31836,0.16016 -0.48047,0.1582 -0.32031,0.16015 -0.47852,0.16016 -0.64062,0.32031 -0.47852,0.16016 -0.32031,0.16016 -0.48047,0.16015 -0.32031,0.15821 -0.47852,0.16015 -0.32031,0.16016 -0.47852,0.16015 -0.64062,0.32032 -0.48047,0.16015 -0.31836,0.16016 -0.48047,0.1582 -0.32031,0.16016 -0.47852,0.16016 -0.32031,0.16015 -0.48047,0.16016 -0.31836,0.16015 -0.48047,0.16016 -0.63867,0.31836 -0.48047,0.16016 -0.32031,0.16015 -0.47851,0.16016 -0.32032,0.16015 -0.48046,0.16016 -0.32032,0.16016 -0.47851,0.1582 -0.32032,0.16016 -0.16015,0.16015 0.16015,0.16016 v 0.48047 h 0.16016 v 0.31836 h 0.16016 v 0.48047 h 0.16015 v 0.32031 h 0.16016 v 0.47851 h 0.1582 v 0.32032 h 0.16016 v 0.48047 h 0.16016 v 0.31835 h 0.16015 v 0.48047 h 0.16016 v 0.32032 h 0.16015 v 0.32031 H 331 v 0.47851 h 0.16016 v 0.32032 h 0.1582 v 0.48046 h 0.16016 v 0.31836 h 0.16015 v 0.48047 h 0.16016 v 0.32032 h 0.16015 v 0.47851 h 0.16016 v 0.32031 h 0.16016 v 0.48047 h 0.16015 v 0.31836 h 0.15821 v 0.32031 h 0.16015 v 0.48047 h 0.16016 v 0.31836 h 0.16015 v 0.48047 h 0.16016 v 0.32031 h 0.16016 v 0.47852 h 0.16015 v 0.32031 h 0.15821 v 0.48047 h 0.16015 v 0.31836 h 0.16016 v 0.32031 h 0.16016 v 0.48047 h 0.16015 v 0.32031 h 0.16016 v 0.47852 h 0.16015 v 0.32031 h 0.16016 v 0.48047 h 0.1582 v 0.31836 h 0.16016 v 0.48047 h 0.16016 v 0.32031 h 0.16015 v 0.47852 h 0.16016 v 0.32031 h 0.16016 v 0.32031 h 0.16015 v 0.47852 h 0.16016 V 313.25 h 0.1582 v 0.48047 h 0.16016 v 0.31836 h 0.16015 v 0.48047 h 0.16016 v 0.32031 h 0.16016 v 0.47851 h 0.16015 v 0.32032 h 0.16016 v 0.48047 h 0.16015 v 0.31836 h 0.15821 v 0.32031 h 0.16015 v 0.48047 h 0.16016 v 0.32031 h 0.16016 v 0.47852 h 0.16015 v 0.32031 h 0.16016 v 0.48047 h 0.16015 v 0.31836 h 0.15821 v 0.48046 h 0.16015 v 0.32032 h 0.16016 v 0.31836 h 0.16016 v 0.48046 h 0.16015 v 0.32032 h 0.16016 v 0.47851 h 0.16016 v 0.32032 h 0.16015 v 0.48046 h 0.1582 v 0.31836 h 0.16016 v 0.48047 h 0.16016 v 0.32032 h 0.16015 v 0.47851 h 0.16016 v 0.32031 h 0.16016 v 0.32032 h 0.16015 v 0.47851 h 0.16016 v 0.32031 h 0.1582 v 0.48047 h 0.16016 v 0.32031 h 0.16015 v 0.47852 h 0.16016 v 0.32031 h 0.16016 v 0.48047 h 0.16015 v 0.31836 h 0.16016 v 0.48047 h 0.1582 v 0.32031 h 0.16016 v 0.31836 h 0.16016 v 0.48047 h 0.16015 v 0.32031 h 0.16016 v 0.47852 h 0.16015 v 0.32031 h 0.16016 V 331 h 0.16016 v 0.31836 h 0.1582 v 0.48047 h 0.16016 v 0.32031 h 0.16015 v 0.32031 h 0.16016 v 0.47852 h 0.16015 v 0.32031 h 0.16016 v 0.47852 h 0.16016 v 0.32031 h 0.16015 v 0.48047 h 0.15821 v 0.32031 h 0.16015 v 0.47852 h 0.16016 v 0.32031 h 0.16015 v 0.48047 h 0.16016 v 0.31836 h 0.16016 v 0.32031 h 0.16015 v 0.48047 h 0.16016 v 0.31836 h 0.1582 v 0.48047 h 0.16016 v 0.32031 h 0.16016 v 0.47851 h 0.16015 v 0.32032 h 0.16016 v 0.48047 h 0.16015 v 0.31835 h 0.16016 v 0.48047 h 0.1582 v 0.32032 h 0.16016 v 0.32031 h 0.16016 v 0.47851 h 0.16015 v 0.32032 h 0.16016 v 0.47851 h 0.16016 v 0.32032 h 0.16015 v 0.48046 h 0.16016 v 0.32032 h 0.1582 v 0.47851 h 0.16016 v 0.32031 h 0.16015 v 0.32032 h 0.16016 v 0.47851 h 0.16016 v 0.32031 h 0.16015 v 0.48047 h 0.16016 v 0.31836 h 0.16015 v 0.48047 h 0.15821 v 0.32031 h 0.16015 v 0.47852 h 0.16016 v 0.32031 h 0.16016 v 0.48047 h 0.16015 v 0.31836 h 0.16016 v 0.32031 h 0.16015 v 0.48047 h 0.15821 v 0.32031 h 0.16015 v 0.47852 h 0.16016 v 0.32031 h 0.16016 v 0.47852 h 0.16015 v 0.32031 h 0.16016 v 0.48047 h 0.16016 v 0.32031 h 0.16015 v 0.47852 h 0.1582 v 0.32031 h 0.16016 v 0.32031 h 0.16016 v 0.47852 h 0.16015 v 0.32031 h 0.16016 v 0.48047 h 0.16016 v 0.31836 h 0.16015 v 0.48047 h 0.16016 v 0.32031 h 0.1582 v 0.47852 h 0.16016 v 0.32031 h 0.16015 v 0.32031 h 0.16016 v 0.47852 h 0.16016 v 0.32031 h 0.16015 v 0.48047 h 0.16016 v 0.32031 h 0.16016 v 0.47852 h 0.1582 v 0.32031 h 0.16016 v 0.47851 h 0.16015 v 0.32032 h 0.16016 v 0.48047 h 0.16015 v 0.32031 h 0.16016 v 0.31836 h 0.16016 v 0.48047 h 0.1582 v 0.32031 h 0.16016 v 0.47851 h 0.16015 v 0.32032 h 0.16016 v 0.48046 h 0.16015 v 0.31836 h 0.16016 v 0.48047 h 0.16016 v 0.32032 h 0.16015 v 0.47851 h 0.15821 v 0.32031 h 0.16015 v 0.32032 h 0.16016 v 0.47851 h 0.16015 v 0.32031 h 0.16016 v 0.48047 h 0.16016 v 0.32032 h 0.16015 v 0.47851 h 0.16016 v 0.32031 h 0.1582 v 0.47852 h 0.16016 v 0.32031 h 0.16016 v 0.32031 h 0.16015 v 0.48047 h 0.16016 v 0.31836 h 0.16015 v 0.48047 h 0.16016 v 0.32031 h 0.1582 v 0.47852 h 0.16016 v 0.32031 h 0.16016 v 0.48047 h 0.16015 v 0.31836 h 0.16016 v 0.48047 h 0.16016 v 0.32031 h 0.16015 v 0.31836 h 0.16016 v 0.48047 h 0.1582 v 0.32031 h 0.16016 v 0.47852 h 0.16015 v 0.32031 h 0.16016 v 0.48047 h 0.16016 v 0.32031 h 0.16015 v 0.47852 h 0.16016 v 0.32031 h 0.16015 v 0.47851 h 0.15821 v 0.32032 h 0.16015 v 0.32031 H 362.5 v 0.48047 h 0.16016 v 0.31836 h 0.16015 v 0.48047 h 0.16016 v 0.32031 h 0.16015 v 0.47852 h 0.16016 v 0.32031 h 0.1582 v 0.48047 h 0.16016 v 0.31836 h 0.16016 v 0.32031 h 0.16015 v 0.48047 h 0.16016 v 0.31836 h 0.16016 v 0.48046 h 0.16015 v 0.32032 h 0.1582 v 0.47851 h 0.16016 v 0.32032 h 0.16016 v 0.48046 h 0.16015 v 0.32032 h 0.16016 v 0.47851 h 0.16016 v 0.32032 h 0.16015 v 0.32031 h 0.16016 v 0.47851 h 0.1582 v 0.32032 h 0.16016 v 0.48046 h 0.16015 v 0.31836 h 0.16016 v 0.48047 h 0.16016 v 0.32031 h 0.16015 v 0.47852 h 0.16016 v 0.32031 h 0.16016 v 0.32032 h 0.1582 v 0.47851 h 0.16016 v 0.32031 h 0.16015 v 0.48047 h 0.16016 v 0.31836 h 0.16015 v 0.48047 h 0.16016 v 0.32031 h 0.16016 v 0.47852 h 0.1582 v 0.32031 h 0.16016 v 0.48047 h 0.16015 v 0.32031 h 0.16016 v 0.31836 h 0.16015 v 0.48047 h 0.16016 v 0.32031 h 0.16016 v 0.47852 h 0.16015 v 0.32031 h 0.15821 v 0.48047 h 0.16015 v 0.31836 h 0.16016 v 0.48047 h 0.16015 v 0.32031 h 0.16016 v 0.47852 h 0.16016 v 0.32031 h 0.16015 v 0.32031 h 0.16016 v 0.47852 h 0.1582 v 0.32031 h 0.16016 v 0.48047 h 0.16016 v 0.31836 h 0.16015 v 0.48047 h 0.16016 v 0.32031 h 0.16015 v 0.47851 h 0.16016 v 0.32032 h 0.16016 v 0.32031 h 0.1582 v 0.48047 h 0.16016 v 0.31836 h 0.16015 v 0.48047 h 0.16016 v 0.32031 h 0.16016 v 0.47851 h 0.16015 v 0.32032 h 0.16016 v 0.48047 h 0.1582 v 0.31836 h 0.16016 v 0.48046 h 0.16015 v 0.32032 h 0.16016 v 0.31836 h 0.16016 v 0.48046 h 0.16015 v 0.32032 h 0.16016 v 0.47851 h 0.16015 v 0.32031 h 0.15821 v 0.48047 h 0.16015 v 0.31836 h 0.16016 v 0.48047 h 0.16016 v 0.32031 h 0.16015 v 0.47852 h 0.16016 v 0.32031 h 0.16015 v 0.32032 h 0.16016 v 0.48046 h 0.1582 v 0.31836 h 0.16016 v 0.48047 h 0.16016 v 0.32031 h 0.16015 V 411.75 h 0.16016 v 0.32031 h 0.16016 v 0.48047 h 0.16015 v 0.31836 h 0.1582 v 0.32031 h 0.16016 v 0.48047 h 0.16016 v 0.31836 h 0.16015 v 0.48047 h 0.16016 v 0.32031 h 0.16016 v 0.47852 h 0.16015 v 0.32031 h 0.16016 v 0.48047 h 0.1582 v 0.31836 h 0.16016 v 0.48047 h 0.16015 v 0.32031 h 0.16016 v 0.32031 h 0.16016 v 0.47852 h 0.16015 v 0.32031 h 0.16016 v 0.48047 h 0.16016 v 0.31836 h 0.1582 v 0.48047 h 0.16016 v 0.32031 h 0.16015 v 0.47852 h 0.16016 v 0.32031 h 0.16015 v 0.48047 H 380.25 v 0.31836 h 0.16016 v 0.32031 h 0.16015 v 0.48047 h 0.15821 v 0.31836 h 0.16015 v 0.48047 h 0.16016 v 0.32031 h 0.16015 v 0.47851 h 0.16016 v 0.32032 h 0.16016 v 0.48046 h 0.16015 v 0.31836 h 0.15821 v 0.32032 h 0.16015 v 0.48047 h 0.16016 v 0.32031 h 0.16015 v 0.47851 h 0.16016 v 0.32032 h 0.16016 v 0.48047 h 0.16015 v 0.31835 h 0.16016 v 0.48047 h 0.1582 v 0.32032 h 0.16016 v 0.47851 h 0.16016 v 0.32031 h 0.16015 v 0.32032 h 0.16016 v 0.47851 h 0.16015 v 0.32031 h 0.16016 v 0.48047 h 0.16016 v 0.31836 h 0.1582 v 0.48047 h 0.16016 v 0.32031 h 0.16015 v 0.47852 h 0.16016 v 0.32031 h 0.16016 v 0.48047 h 0.16015 v 0.31836 h 0.16016 v 0.32031 h 0.1582 v 0.48047 h 0.16016 v 0.32031 h 0.16015 v 0.47852 h 0.16016 v 0.32031 h 0.16016 v 0.48047 h 0.16015 v 0.31836 h 0.16016 v 0.48047 h 0.16015 v 0.32031 h 0.15821 v 0.31836 h 0.16015 v 0.48047 h 0.16016 v 0.32031 h 0.16016 v 0.47852 h 0.16015 v 0.32031 h 0.16016 v 0.48047 h 0.16015 v 0.31836 h 0.16016 v 0.48047 h 0.1582 v 0.32031 h 0.16016 v 0.47852 h 0.16016 v 0.32031 h 0.16015 v 0.32031 h 0.16016 v 0.47852 h 0.16016 v 0.32031 h 0.16015 v 0.48047 h 0.16016 v 0.32031 h 0.1582 v 0.47851 h 0.16016 v 0.32032 h 0.16015 v 0.48047 h 0.16016 v 0.31836 h 0.16016 v 0.48046 h 0.16015 v 0.32032 h 0.16016 v 0.31836 h 0.1582 v 0.48047 h 0.16016 v 0.32031 h 0.16015 v 0.47851 h 0.16016 v 0.32032 h 0.16016 v 0.48046 h 0.16015 v 0.31836 h 0.16016 v 0.48047 h 0.16016 v 0.32031 h 0.1582 v 0.32032 h 0.16016 v 0.47851 h 0.16015 v 0.32032 h 0.16016 v 0.47851 h 0.16015 v 0.32031 h 0.16016 v 0.48047 h 0.16016 v 0.32032 h 0.16015 v 0.47851 h 0.15821 v 0.32031 h 0.16015 v 0.48047 h 0.16016 v 0.31836 h 0.16015 v 0.32031 h 0.16016 v 0.48047 h 0.16016 v 0.31836 h 0.16015 v 0.48047 h 0.15821 v 0.32031 h 0.16015 v 0.47852 h 0.16016 v 0.32031 h 0.16015 v 0.48047 h 0.16016 v 0.31836 h 0.16016 v 0.48047 h 0.16015 v 0.32031 h 0.16016 v 0.32031 h 0.1582 l 0.041,0.0391 0.11914,-0.0391 0.32031,-0.16015 0.48047,-0.16016 0.31836,-0.16016 0.48047,-0.16015 0.32031,-0.16016 0.47852,-0.16015 0.64062,-0.31836 0.47852,-0.16016 0.32031,-0.16016 0.48047,-0.16015 0.32031,-0.16016 0.47852,-0.16016 0.32031,-0.16015 0.48047,-0.16016 0.31836,-0.1582 0.48047,-0.16016 0.63867,-0.32031 0.48047,-0.16016 0.32031,-0.16015 0.47852,-0.16016 0.32031,-0.16015 0.48047,-0.15821 0.31836,-0.16015 0.48046,-0.16016 0.32032,-0.16016 0.47851,-0.16015 0.64063,-0.32031 0.47851,-0.15821 0.32032,-0.16015 0.48046,-0.16016 0.32032,-0.16016 0.47851,-0.16015 0.32032,-0.16016 0.48046,-0.16016 0.63868,-0.31835 0.48046,-0.16016 0.31836,-0.16016 0.48047,-0.16015 0.32031,-0.16016 0.47852,-0.16016 0.32031,-0.16015 0.48047,-0.16016 0.31836,-0.1582 0.48047,-0.16016 0.64063,-0.32031 0.47851,-0.16016 0.32031,-0.16015 0.47852,-0.16016 0.32031,-0.1582 0.48047,-0.16016 0.32031,-0.16016 0.47852,-0.16015 0.32031,-0.16016 0.48047,-0.16015 0.63867,-0.32032 0.48047,-0.1582 0.31836,-0.16016 0.48047,-0.16015 0.32031,-0.16016 0.47852,-0.16015 0.32031,-0.16016 0.48047,-0.16016 0.63867,-0.31836 0.48047,-0.16015 0.32031,-0.16016 0.47852,-0.16015 0.32031,-0.16016 0.47851,-0.16016 0.32032,-0.16015 0.48047,-0.16016 0.32031,-0.1582 0.47851,-0.16016 0.64063,-0.32031 0.47851,-0.16016 0.32032,-0.16015 0.48047,-0.16016 0.31836,-0.1582 0.48046,-0.16016 0.32032,-0.16016 0.47851,-0.16015 0.32031,-0.16016 0.48047,-0.16016 0.63867,-0.32031 0.48047,-0.1582 0.32032,-0.16016 0.47851,-0.16015 0.32031,-0.16016 0.47852,-0.16016 0.32031,-0.16015 0.48047,-0.16016 0.63867,-0.31836 0.48047,-0.16015 0.32031,-0.16016 0.47852,-0.16016 0.32031,-0.16015 0.48047,-0.16016 0.31836,-0.16015 0.48047,-0.15821 0.32031,-0.16015 0.47852,-0.16016 0.64062,-0.32031 0.47852,-0.16016 0.32031,-0.16016 0.48047,-0.16015 0.32031,-0.1582 0.47852,-0.16016 0.32031,-0.16016 0.47852,-0.16015 0.32031,-0.16016 0.48047,-0.16016 0.63867,-0.32031 0.48047,-0.1582 0.32031,-0.16016 0.47852,-0.16015 0.32031,-0.16016 0.48047,-0.16016 0.31836,-0.16015 0.48047,-0.16016 0.63867,-0.31836 0.48047,-0.16016 0.32031,-0.16015 0.47851,-0.16016 0.32032,-0.16015 0.48046,-0.16016 0.32032,-0.16016 0.47851,-0.1582 0.32032,-0.16016 0.47851,-0.16015 0.64063,-0.32031 0.48047,-0.16016 0.31835,-0.16016 0.48047,-0.16015 0.32032,-0.15821 0.47851,-0.16015 0.32031,-0.16016 0.48047,-0.16015 0.31836,-0.16016 0.48047,-0.16016 0.63867,-0.32031 0.48047,-0.1582 0.32031,-0.16016 0.47852,-0.16016 0.32031,-0.16015 0.48047,-0.16016 0.32031,-0.16015 0.47852,-0.16016 0.64062,-0.31836 0.47852,-0.16016 0.32031,-0.16015 0.48047,-0.16016 0.31836,-0.16016 0.48047,-0.16015 0.32031,-0.16016 0.47852,-0.1582 0.32031,-0.16016 0.48047,-0.16015 0.63867,-0.32032 0.48047,-0.16015 0.31836,-0.16016 0.48047,-0.16015 0.32031,-0.15821 0.47852,-0.16015 0.32031,-0.16016 0.48047,-0.16016 0.32031,-0.16015 0.47851,-0.16016 0.64063,-0.32031 0.47851,-0.1582 0.32032,-0.16016 0.48047,-0.16016 0.31836,-0.16015 0.48046,-0.16016 0.32032,-0.16016 0.47851,-0.16015 0.64063,-0.31836 0.47851,-0.16016 0.32032,-0.16015 0.48046,-0.16016 0.31836,-0.16016 0.48047,-0.16015 0.32031,-0.16016 0.47852,-0.1582 0.32031,-0.16016 0.48047,-0.16015 0.63867,-0.32032 0.48047,-0.16015 0.32032,-0.16016 0.47851,-0.16016 0.32031,-0.1582 0.48047,-0.16016 0.31836,-0.16015 0.48047,-0.16016 0.32031,-0.16015 0.47852,-0.16016 0.64062,-0.31836 0.47852,-0.16016 0.32031,-0.16015 0.48047,-0.16016 0.31836,-0.16015 0.48047,-0.16016 0.32031,-0.16016 0.47852,-0.16015 0.64062,-0.31836 0.48047,-0.16016 0.31836,-0.16015 0.48047,-0.16016 0.32031,-0.16016 0.47852,-0.16015 0.32031,-0.16016 0.48047,-0.1582 0.31836,-0.16016 0.48047,-0.16016 0.63867,-0.32031 0.48047,-0.16015 0.32031,-0.16016 0.47851,-0.16016 0.32032,-0.1582 0.48047,-0.16016 0.31836,-0.16015 0.48046,-0.16016 0.32032,-0.16016 0.47851,-0.16015 0.64063,-0.31836 0.48047,-0.16016 0.31835,-0.16015 0.48047,-0.16016 0.32032,-0.16016 0.47851,-0.16015 0.32031,-0.16016 0.48047,-0.16015 0.63868,-0.31836 0.48046,-0.16016 0.31836,-0.16016 0.48047,-0.16015 0.32031,-0.16016 0.47852,-0.16015 0.32031,-0.16016 0.48047,-0.1582 0.31836,-0.16016 0.48047,-0.16016 0.64062,-0.32031 0.47852,-0.16016 0.32031,-0.16015 0.48047,-0.1582 0.31836,-0.16016 0.48047,-0.16016 0.32031,-0.16015 0.47852,-0.16016 0.32031,-0.16016 0.48047,-0.16015 0.63867,-0.31836 0.48047,-0.16016 0.31836,-0.16015 0.48047,-0.16016 0.32031,-0.16016 0.47852,-0.16015 0.32031,-0.16016 0.48047,-0.16016 0.63867,-0.31836 0.48047,-0.16015 0.32031,-0.16016 0.47852,-0.16015 0.32031,-0.16016 0.48047,-0.16016 0.31836,-0.16015 0.48046,-0.15821 0.32032,-0.16015 0.47851,-0.16016 0.64063,-0.32031 0.47851,-0.16016 0.32032,-0.16015 0.48047,-0.15821 0.31835,-0.16015 0.48047,-0.16016 0.32032,-0.16015 0.47851,-0.16016 0.32031,-0.16016 0.48047,-0.16015 0.63867,-0.31836 0.48047,-0.16016 0.32032,-0.16016 0.47851,-0.16015 0.32031,-0.16016 0.48047,-0.16015 0.31836,-0.16016 0.48047,-0.16016 0.63867,-0.31836 0.48047,-0.16015 0.32031,-0.16016 0.47852,-0.16016 0.32031,-0.16015 0.48047,-0.16016 0.31836,-0.1582 0.48047,-0.16016 0.32031,-0.16015 0.47852,-0.16016 0.64062,-0.32031 0.47852,-0.16016 0.32031,-0.16015 0.48047,-0.15821 0.32031,-0.16015 0.47852,-0.16016 0.32031,-0.16016 0.48047,-0.16015 0.31836,-0.16016 0.48047,-0.16015 0.63867,-0.31836 0.48047,-0.16016 0.32031,-0.16016 0.47851,-0.16015 0.32032,-0.16016 0.48047,-0.16016 0.31836,-0.16015 0.48046,-0.16016 0.63868,-0.31836 0.48047,-0.16015 0.32031,-0.16016 0.47851,-0.16016 0.32032,-0.16015 0.48046,-0.16016 0.32032,-0.1582 0.47851,-0.16016 0.32031,-0.16015 0.48047,-0.16016 0.63868,-0.32031 0.48046,-0.16016 0.31836,-0.16016 0.48047,-0.1582 0.32032,-0.16016 0.47851,-0.16015 0.32031,-0.16016 0.48047,-0.16015 0.31836,-0.16016 0.48047,-0.16016 0.64062,-0.31836 0.47852,-0.16015 0.32031,-0.16016 0.47852,-0.16015 0.32031,-0.16016 0.48047,-0.16016 0.32031,-0.16015 0.47852,-0.15821 0.64062,-0.32031 0.47852,-0.16015 0.32031,-0.16016 0.48047,-0.16016 0.31836,-0.16015 0.48047,-0.16016 0.32031,-0.1582 0.47852,-0.16016 0.32031,-0.16016 0.48047,-0.16015 0.63867,-0.32031 0.48047,-0.16016 0.32031,-0.16016 0.47852,-0.1582 0.32031,-0.16016 0.47851,-0.16015 0.32032,-0.16016 0.48047,-0.16016 0.32031,-0.16015 0.47851,-0.16016 0.64063,-0.31836 0.47851,-0.16015 0.32032,-0.16016 0.48047,-0.16016 0.31835,-0.16015 0.48047,-0.16016 0.32032,-0.16015 0.47851,-0.15821 0.64063,-0.32031 0.47851,-0.16016 0.32032,-0.16015 h 0.48046 v -0.63867 h -0.16015 v -0.32032 h -0.16016 v -0.48047 h -0.16015 v -0.32031 h -0.16016 v -0.47851 h -0.16016 v -0.32032 h -0.1582 v -0.47851 h -0.16016 v -0.32031 h -0.16015 v -0.48047 h -0.16016 v -0.32032 h -0.16016 v -0.31836 h -0.16015 v -0.48046 h -0.16016 v -0.32032 h -0.16015 v -0.47851 h -0.15821 v -0.32031 h -0.16015 v -0.48047 h -0.16016 v -0.31836 h -0.16016 v -0.48047 h -0.16015 v -0.32031 h -0.16016 v -0.47852 h -0.16016 v -0.32031 h -0.16015 v -0.32031 h -0.1582 v -0.47852 h -0.16016 v -0.32031 h -0.16016 v -0.48047 h -0.16015 v -0.32031 h -0.16016 v -0.47852 h -0.16016 v -0.32031 h -0.16015 v -0.47852 H 553.2656 V 380.25 h -0.16015 v -0.32031 h -0.16016 v -0.48047 h -0.16015 v -0.31836 H 552.625 v -0.48047 h -0.16016 v -0.32031 h -0.16015 v -0.47852 h -0.16016 v -0.32031 h -0.1582 v -0.48047 h -0.16016 v -0.31836 h -0.16015 v -0.48047 h -0.16016 v -0.32031 h -0.16016 v -0.31836 h -0.16015 v -0.48047 h -0.16016 v -0.32031 h -0.16016 v -0.47852 h -0.1582 v -0.32031 h -0.16015 v -0.48047 h -0.16016 v -0.32031 h -0.16016 v -0.47851 h -0.16015 v -0.32032 h -0.16016 v -0.47851 h -0.16016 v -0.32032 h -0.1582 v -0.32031 h -0.16016 v -0.48047 h -0.16015 v -0.31836 h -0.16016 v -0.48047 h -0.16015 v -0.32031 h -0.16016 v -0.47851 h -0.16016 v -0.32032 h -0.16015 v -0.48046 h -0.15821 v -0.31836 h -0.16015 v -0.32032 h -0.16016 v -0.48046 h -0.16016 v -0.31836 h -0.16015 v -0.48047 h -0.16016 v -0.32032 h -0.16015 v -0.47851 h -0.16016 v -0.32031 h -0.1582 v -0.48047 h -0.16016 v -0.32032 h -0.16016 v -0.47851 h -0.16015 v -0.32031 h -0.16016 v -0.32032 h -0.16015 v -0.47851 h -0.16016 v -0.32031 h -0.16016 v -0.48047 H 545.75 v -0.31836 h -0.16016 v -0.48047 h -0.16015 v -0.32031 h -0.16016 v -0.47852 h -0.16015 v -0.32031 h -0.16016 v -0.48047 h -0.16016 v -0.31836 h -0.1582 v -0.32031 h -0.16016 v -0.48047 h -0.16015 v -0.31836 h -0.16016 v -0.48047 h -0.16016 v -0.32031 h -0.16015 v -0.47852 h -0.16016 v -0.32031 h -0.16015 v -0.48047 h -0.15821 v -0.32031 h -0.16015 V 355.625 h -0.16016 v -0.48047 h -0.16016 v -0.32031 h -0.16015 v -0.47852 h -0.16016 v -0.32031 h -0.16016 v -0.48047 h -0.16015 v -0.31836 h -0.1582 v -0.48047 h -0.16016 v -0.32031 h -0.16016 v -0.47851 h -0.16015 v -0.32032 h -0.16016 v -0.32031 h -0.16016 v -0.47852 h -0.16015 v -0.32031 h -0.15821 v -0.48047 h -0.16015 v -0.31836 h -0.16016 v -0.48046 h -0.16015 v -0.32032 h -0.16016 v -0.47851 h -0.16016 v -0.32031 h -0.16015 v -0.48047 h -0.16016 v -0.32032 h -0.1582 v -0.31836 h -0.16016 v -0.48046 h -0.16015 v -0.32032 h -0.16016 v -0.47851 h -0.16016 v -0.32032 h -0.16015 v -0.48046 h -0.16016 v -0.31836 h -0.16016 v -0.48047 h -0.1582 v -0.32031 h -0.16015 v -0.31836 h -0.16016 v -0.48047 h -0.16016 v -0.32031 h -0.16015 v -0.47852 h -0.16016 v -0.32031 h -0.16016 v -0.48047 h -0.16015 v -0.31836 h -0.15821 v -0.48047 h -0.16015 v -0.32031 h -0.16016 v -0.47852 h -0.16015 v -0.32031 h -0.16016 v -0.32031 h -0.16016 v -0.48047 h -0.16015 v -0.31836 h -0.15821 V 337.875 h -0.16015 v -0.32031 h -0.16016 v -0.47852 h -0.16016 v -0.32031 h -0.16015 v -0.48047 h -0.16016 v -0.31836 h -0.16015 v -0.48047 H 534.875 v -0.32031 h -0.1582 v -0.31836 h -0.16016 v -0.48047 h -0.16016 v -0.32031 h -0.16015 v -0.47852 h -0.16016 v -0.32031 h -0.16015 v -0.48047 h -0.16016 v -0.31836 h -0.16016 v -0.48047 h -0.1582 v -0.32031 h -0.16016 v -0.32031 h -0.16015 v -0.47852 h -0.16016 v -0.32031 h -0.16015 v -0.48047 h -0.16016 v -0.31836 h -0.16016 v -0.48047 h -0.16015 v -0.32031 h -0.15821 v -0.47851 h -0.16015 v -0.32032 h -0.16016 v -0.48047 h -0.16016 v -0.31835 h -0.16015 v -0.32032 h -0.16016 v -0.48047 h -0.16015 v -0.31836 h -0.15821 v -0.48046 h -0.16015 v -0.32032 h -0.16016 v -0.47851 h -0.16016 v -0.32031 h -0.16015 v -0.48047 h -0.16016 v -0.31836 h -0.16016 v -0.48047 h -0.16015 v -0.32031 h -0.1582 v -0.32032 h -0.16016 v -0.47851 h -0.16016 v -0.32031 h -0.16015 v -0.48047 h -0.16016 v -0.31836 h -0.16016 v -0.48047 h -0.16015 v -0.32031 h -0.16016 v -0.47852 h -0.1582 v -0.32031 h -0.16016 v -0.32031 h -0.16015 V 318.6875 H 528 v -0.32031 h -0.16016 v -0.48047 h -0.16015 v -0.31836 h -0.16016 v -0.48047 h -0.1582 v -0.32031 h -0.16016 v -0.47852 h -0.16015 v -0.32031 h -0.16016 v -0.48047 h -0.16016 v -0.31836 h -0.16015 v -0.32031 h -0.16016 v -0.48047 h -0.16016 v -0.32031 h -0.1582 v -0.47852 h -0.16015 V 313.25 h -0.16016 v -0.48047 h -0.16016 v -0.31836 h -0.16015 v -0.48047 h -0.16016 v -0.32031 h -0.16016 v -0.47851 h -0.16015 v -0.32032 h -0.15821 v -0.32031 h -0.16015 v -0.47852 h -0.16016 v -0.32031 h -0.16015 v -0.48047 h -0.16016 v -0.31836 h -0.16016 v -0.48047 h -0.16015 v -0.32031 h -0.15821 v -0.47851 h -0.16015 v -0.32032 h -0.16016 v -0.32031 h -0.16016 v -0.47851 h -0.16015 v -0.32032 h -0.16016 v -0.48046 h -0.16015 v -0.32032 h -0.16016 v -0.47851 h -0.1582 v -0.32032 h -0.16016 v -0.48046 h -0.16016 v -0.31836 h -0.16015 v -0.48047 h -0.16016 v -0.32032 h -0.16015 v -0.31835 h -0.16016 v -0.48047 h -0.16016 v -0.32032 h -0.1582 v -0.47851 h -0.16016 v -0.32031 h -0.16015 v -0.48047 h -0.16016 v -0.31836 h -0.16015 v -0.48047 h -0.16016 v -0.32031 h -0.16016 v -0.47852 h -0.16015 v -0.32031 h -0.15821 v -0.32031 h -0.16015 v -0.47852 h -0.16016 v -0.32031 h -0.16016 v -0.48047 h -0.16015 v -0.32031 h -0.16016 v -0.47852 h -0.16015 v -0.32031 h -0.15821 V 295.5 h -0.16015 v -0.31836 h -0.16016 v -0.32031 h -0.16016 v -0.48047 h -0.16015 v -0.31836 h -0.16016 v -0.48047 h -0.16016 v -0.32031 h -0.16015 v -0.47852 h -0.1582 v -0.32031 h -0.16016 v -0.48047 h -0.16016 v -0.31836 h -0.16015 v -0.48047 h -0.16016 v -0.32031 h -0.16016 v -0.32031 h -0.16015 v -0.47852 h -0.16016 v -0.32031 h -0.1582 v -0.47852 h -0.16016 v -0.32031 h -0.16015 v -0.48047 h -0.16016 v -0.32031 h -0.16016 v -0.47851 h -0.16015 v -0.32032 h -0.16016 v -0.48047 h -0.16015 v -0.31835 h -0.15821 v -0.32032 h -0.16015 v -0.48047 h -0.16016 v -0.31836 h -0.16016 v -0.48046 h -0.16015 v -0.32032 h -0.16016 v -0.47851 h -0.16016 v -0.32032 h -0.1582 v -0.48046 h -0.16015 v -0.31836 h -0.16016 v -0.32032 h -0.16016 v -0.48046 h -0.16015 v -0.32032 h -0.16016 v -0.47851 h -0.16016 v -0.32031 h -0.16015 v -0.47852 h -0.15821 v -0.32031 h -0.16015 v -0.48047 h -0.16016 v -0.32031 h -0.16015 v -0.47852 h -0.16016 v -0.32031 h -0.16016 v -0.32032 h -0.16015 v -0.47851 h -0.16016 v -0.32031 h -0.1582 v -0.48047 h -0.16016 v -0.31836 h -0.16016 v -0.48047 h -0.16015 v -0.32031 h -0.16016 v -0.47852 h -0.16015 v -0.32031 H 510.25 v -0.48047 h -0.1582 v -0.31836 h -0.16016 v -0.32031 h -0.16016 v -0.48047 h -0.16015 v -0.32031 h -0.16016 v -0.47852 h -0.16015 v -0.32031 h -0.16016 v -0.47852 h -0.16016 v -0.32031 h -0.1582 v -0.48047 h -0.16016 V 270.875 h -0.16015 v -0.31836 h -0.16016 v -0.48047 h -0.16015 v -0.32031 h -0.16016 v -0.47852 h -0.16016 v -0.32031 h -0.16015 v -0.48047 h -0.15821 v -0.31836 h -0.16015 v -0.48047 h -0.16016 v -0.32031 h -0.16016 v -0.47851 h -0.16015 v -0.32032 h -0.16016 v -0.32031 h -0.16015 v -0.47851 h -0.16016 v -0.32032 h -0.1582 v -0.48047 h -0.16016 v -0.32031 h -0.16016 v -0.47851 h -0.16015 v -0.32032 h -0.16016 v -0.47851 h -0.16016 v -0.32031 h -0.16015 v -0.48047 h -0.1582 v -0.32032 h -0.16016 v -0.31835 h -0.16016 v -0.48047 h -0.16015 v -0.32032 h -0.16016 v -0.47851 h -0.16016 v -0.32031 h -0.16015 v -0.48047 h -0.16016 v -0.31836 h -0.1582 v -0.48047 h -0.16016 v -0.32031 h -0.16015 V 258.4043 H 503.375 v -0.48047 h -0.16016 v -0.32031 h -0.16015 V 257.125 h -0.16016 v -0.32031 h -0.16015 v -0.48047 h -0.15821 v -0.32031 h -0.16015 v -0.47852 h -0.16016 v -0.32031 h -0.16016 v -0.47852 h -0.16015 v -0.32031 h -0.16016 v -0.32031 h -0.16016 v -0.48047 h -0.1582 v -0.31836 h -0.16015 v -0.48047 h -0.16016 v -0.32031 h -0.16016 v -0.47852 h -0.16015 v -0.32031 h -0.16016 v -0.48047 h -0.16016 v -0.31836 h -0.16015 v -0.48047 h -0.15821 v -0.32031 h -0.16015 v -0.31836 h -0.16016 v -0.48047 h -0.16015 v -0.32031 h -0.16016 v -0.47852 h -0.16016 v -0.32031 h -0.16015 v -0.48047 h -0.16016 v -0.32031 h -0.1582 v -0.47852 h -0.16016 v -0.32031 h -0.16016 V 246.25 h -0.16015 v -0.47852 h -0.16016 v -0.32031 h -0.16015 v -0.48047 h -0.16016 v -0.31836 h -0.16016 v -0.48046 h -0.1582 v -0.32032 h -0.16016 v -0.47851 h -0.16015 v -0.32032 h -0.16016 v -0.48046 h -0.16015 v -0.31836 h -0.16016 v -0.32032 h -0.16016 v -0.48047 H 496.5 v -0.31835 h -0.16016 v -0.48047 h -0.16015 v -0.32032 h -0.16016 v -0.47851 h -0.16015 v -0.32031 h -0.16016 v -0.48047 h -0.16016 v -0.32031 h -0.16015 v -0.47852 h -0.15821 v -0.32031 h -0.16015 v -0.32032 h -0.16016 v -0.47851 h -0.16016 v -0.32031 h -0.16015 v -0.48047 h -0.16016 v -0.31836 h -0.16015 v -0.48047 h -0.16016 v -0.32031 h -0.1582 v -0.47852 h -0.16016 v -0.32031 h -0.16016 v -0.32031 h -0.16015 v -0.47852 h -0.16016 v -0.32031 h -0.16016 v -0.48047 h -0.16015 V 232.5 h -0.1582 v -0.48047 h -0.16016 v -0.32031 h -0.16016 v -0.47852 h -0.16015 v -0.32031 h -0.16016 v -0.48047 h -0.16016 v -0.32031 h -0.16015 v -0.31836 h -0.16016 v -0.32031 z"
         id="path112" />
    </clipPath>
    <pattern
       id="EMFhbasepattern"
       patternUnits="userSpaceOnUse"
       width="6"
       height="6"
       x="0"
       y="0" />
  </defs>
  <g
     inkscape:label="Layer 1"
     inkscape:groupmode="layer"
     id="layer1"
     transform="translate(-49.823223,-50.041507)">
    <g
       clip-path="url(#clipEmfPath1)"
       id="g118"
       transform="matrix(0.12647656,0,0,0.12673784,36.938678,40.046393)"
       style="stroke:#4db6ac;stroke-width:10.8283;stroke-miterlimit:4;stroke-dasharray:none;stroke-opacity:1" />
    <g
       id="g10156"
       transform="matrix(1.0045891,0,0,1.0066644,-122.75336,-7.5406552)">
      <path
         style="fill:#000000;fill-opacity:1;fill-rule:nonzero;stroke:#4db6ac;stroke-width:1.36327;stroke-miterlimit:4;stroke-dasharray:none;stroke-opacity:1"
         clip-path="none"
         d="m 191.40078,112.2957 c -2.30847,0 -4.10395,-1.79604 -4.10395,-4.10522 0,-2.25787 1.79548,-4.10522 4.10395,-4.10522 2.30847,0 4.10395,1.84735 4.10395,4.10522 0,2.30918 -1.89808,4.10522 -4.10395,4.10522 z m 0,-16.010351 c -6.56632,0 -11.90145,5.336781 -11.90145,11.905131 0,6.56835 5.33513,11.90513 11.90145,11.90513 6.56632,0 11.90146,-5.33678 11.90146,-11.90513 0,-6.56835 -5.33514,-11.905131 -11.90146,-11.905131 z"
         sodipodi:nodetypes="ssssssssss"
         id="path6602" />
      <path
         style="fill:#000000;fill-opacity:1;fill-rule:nonzero;stroke:#4db6ac;stroke-width:10.8283;stroke-miterlimit:4;stroke-dasharray:none;stroke-opacity:1"
         clip-path="url(#clipEmfPath1)"
         d="M 376.63358,466.02114 281.44666,242.62627 505.19971,146.0323 600.7941,369.83477 Z"
         id="path6604"
         transform="matrix(0.1258988,0,0,0.1258988,158.96248,46.850586)"
         sodipodi:nodetypes="ccccc" />
      <path
         style="fill:#000000;fill-opacity:1;fill-rule:nonzero;stroke:#4db6ac;stroke-width:10.8283;stroke-miterlimit:4;stroke-dasharray:none;stroke-opacity:1"
         clip-path="url(#clipEmfPath1)"
         d="m 265.39561,367.38412 c 17.11353,1.22277 47.67342,13.85809 47.67342,13.85809 L 194.49668,88.999467 c 0,0 -29.55391,10.16344 -36.67186,15.080863 l 15.07621,37.09078 -53.37793,22.00992 c -9.77916,4.07591 -15.07621,15.89605 -10.59409,25.67823 3.25972,7.74423 10.59409,12.22773 18.33593,12.22773 2.85225,0 5.29704,-0.81518 7.33437,-1.22277 l 53.37793,-22.41751 z"
         id="path6606"
         transform="matrix(0.1258988,0,0,0.1258988,158.96248,46.850586)"
         sodipodi:nodetypes="cccccccsccc" />
      <path
         style="fill:#000000;fill-opacity:1;fill-rule:nonzero;stroke:#4db6ac;stroke-width:10.8283;stroke-miterlimit:4;stroke-dasharray:none;stroke-opacity:1"
         clip-path="url(#clipEmfPath1)"
         d="m 518.43144,437.89736 c -2.44479,0 -5.29704,0.40759 -7.74183,1.22277 l -132.42617,54.6172 c -1.22239,17.11882 -5.29704,33.42246 -13.03888,47.68814 v 0.81518 l 159.31886,-66.43733 c 7.74184,-2.85314 13.44635,-9.78218 13.44635,-18.34159 0,-10.59737 -8.96423,-19.56437 -19.55833,-19.56437 z"
         id="path6608"
         transform="matrix(0.1258988,0,0,0.1258988,158.96248,46.850586)" />
      <g
         id="g6776"
         transform="matrix(1.129079,-0.51095909,0.51095909,1.129079,33.517641,106.44385)">
        <circle
           cx="140.03384"
           cy="52.923515"
           r="1.7515416"
           id="circle4756"
           style="fill:#ed7d31;fill-opacity:1;stroke-width:0.264583" />
        <path
           d="m 141.09218,46.549702 v 3.346979 h -2.11667 v -5.376333 h 1.05833 c 2.33892,0 3.85234,-1.375833 3.85234,-3.503083 0.0473,-2.080287 -1.60076,-3.805026 -3.68105,-3.852334 -0.0571,-0.0013 -0.11419,-0.0013 -0.17129,0 -2.413,0 -3.85233,1.5875 -3.85233,4.0005 h -2.10079 c 0,-3.561291 2.38125,-6.101291 5.95312,-6.101291 3.25255,-0.03527 5.91786,2.572861 5.95313,5.825437 4.5e-4,0.04255 4.5e-4,0.08512 0,0.127688 0,2.960687 -1.95792,5.119687 -4.89479,5.532437 z"
           id="path4758"
           style="fill:#ed7d31;fill-opacity:1;stroke-width:0.264583" />
      </g>
    </g>
  </g>
</svg>
